<?xml version="1.0" standalone="no"?>
<!DOCTYPE svg PUBLIC "-//W3C//DTD SVG 1.1//EN" "http://www.w3.org/Graphics/SVG/1.1/DTD/svg11.dtd" >
<svg>
<metadata>
Created by FontForge 20090622 at Mon Jun 24 07:36:17 2019
 By deploy user
FREE FOR PERSONAL USE
</metadata>
<defs>
<font id="Chocolatecyr-lat" horiz-adv-x="1451" >
  <font-face 
    font-family="Chocolate cyr-lat"
    font-weight="700"
    font-stretch="condensed"
    units-per-em="2048"
    panose-1="2 11 7 6 2 2 2 3 2 4"
    ascent="1638"
    descent="-410"
    x-height="1800"
    cap-height="1796"
    bbox="-186 -768.429 2213 2967.45"
    underline-thickness="150"
    underline-position="-142"
    unicode-range="U+001D-U+FB02"
  />
<missing-glyph horiz-adv-x="606" 
 />
    <glyph glyph-name=".notdef" horiz-adv-x="606" 
 />
    <glyph glyph-name=".null" horiz-adv-x="0" 
 />
    <glyph glyph-name=".null" horiz-adv-x="0" 
 />
    <glyph glyph-name="nonmarkingreturn" horiz-adv-x="467" 
 />
    <glyph glyph-name="space" unicode=" " horiz-adv-x="606" 
 />
    <glyph glyph-name="exclam" unicode="!" horiz-adv-x="438" 
d="M141 1806q78 -2 128 -3t79 -8t40 -25.5t14.5 -53.5t0 -90t-3.5 -139q0 -178 -3 -312.5t-6 -254t-8 -238.5t-9 -266q4 -51 -13.5 -63.5t-56.5 -12.5q-22 0 -58 -1l-72 -2t-62.5 -1t-32.5 2q-33 8 -39 29.5t-4 76.5q0 60 2 154t4 207l4 233.5t2 236.5t-2 217t-8 171
q-4 68 18.5 105.5t85.5 37.5zM141 444q29 9 27 33.5t-6 46.5l-16.5 108l-10.5 69.5t-5 50t1 51t6 69.5t13 109q12 135 11 272.5t-20 272.5l-14 -203t-10 -163l-7.5 -144.5t-5.5 -145t-1 -164t6 -202.5q0 -21 4 -42.5t28 -17.5zM260 465q19 8 25 23.5t6 33t-2 37t0 35.5
q2 12 0 24.5l-4 24.5q-41 -22 -53.5 -55t-0.5 -82q5 -17 12 -31t17 -10zM184 289q78 4 121 -21.5t45 -93.5q0 -65 -31.5 -115.5t-121.5 -58.5q-43 -4 -71 8t-44 33.5t-26.5 49.5t-18.5 56q4 62 33.5 101t113.5 41zM254 236q-16 -17 -22.5 -25t-6.5 -14.5t7.5 -14.5t17.5 -26
q16 18 26.5 25t15.5 13.5t4 13.5t-7 23q-2 5 -16.5 7t-18.5 -2z" />
    <glyph glyph-name="quotedbl" unicode="&#x22;" horiz-adv-x="797" 
d="M75 1374q-5 -42 20 -97q28 -50 57 -95q29 -44 41 -115q7 -36 36 -10t54 81q26 56 36 129q11 72 -15 130q-27 60 -69 68q-42 7 -95 -19q-60 -29 -65 -72zM140 1381q12 2 15 0q23 -23 26 -52q4 -28 -5 -71q-32 24 -46 50t-3 66q2 5 13 7zM463 1374q-5 -42 20 -97
q28 -50 57 -95q29 -44 41 -115q7 -36 36 -10t54 81q26 56 36 129q11 72 -15 130q-27 60 -69 68q-42 7 -95 -19q-60 -29 -65 -72zM528 1381q12 2 15 0q23 -23 26 -52q4 -28 -5 -71q-32 24 -46 50t-3 66q2 5 13 7z" />
    <glyph glyph-name="numbersign" unicode="#" horiz-adv-x="926" 
d="M244 1793q75 0 111 -5.5t48.5 -32.5t10.5 -89.5t-2 -176.5q28 -4 56 -4h56l6 239q-2 50 9.5 63.5t35.5 13.5h38.5h47h41h21.5q22 -8 26.5 -30t2.5 -78v-85t-2 -119q22 0 40.5 2t32.5 6q68 21 68 -139q0 -159 -2 -234t-15.5 -102t-43 -20.5t-85.5 6.5q-2 -61 -2 -120v-120
q31 0 58.5 -2t56.5 -6q25 4 31 -20t6 -74v-79v-99v-87.5v-42.5q-4 -46 -14.5 -54t-36.5 -4h-99q0 -48 1.5 -84.5t3.5 -65.5q10 -142 -68 -142q-76 0 -111.5 5.5t-49 30.5t-10.5 87.5t3 180.5q-29 0 -57.5 2t-57.5 2q0 -64 -1 -123.5t-3 -115.5q2 -50 -9 -63.5t-36 -13.5
h-37.5h-47h-42h-20.5q-23 8 -27 30t-2 78v204l-72 -8q-67 -21 -67 139q0 159 2 234t14 100t42 20.5t87 -4.5q0 61 1 118t1 118l-114 12q-25 -4 -31 20t-6 74v79v99v84v46q4 46 14 54t37 4h40.5t57.5 -4l-4 154q-10 142 68 142zM518 1012h-55.5t-52.5 4q-2 -60 -2 -115.5
v-111.5q28 -4 53.5 -4h54.5v113.5t2 113.5zM244 108q18 9 17 31.5t-5 43.5q-4 36 -6 68l-4 65q-8 0 -14.5 -2t-12.5 -2v-72.5t2 -72.5q2 -21 4 -45t19 -14zM82 1358q4 -40 15.5 -38t21.5 10l63 23q0 13 -1 25.5t-1 28.5q-16 0 -34.5 -2t-34.5 -2l-22 -8t-7 -37zM608 227
q17 12 19 34t0 47h-41q0 -8 1 -19.5t1 -19.5q0 -17 6 -31.5t14 -10.5zM625 394v8q-11 -8 -17 25h-24v-33h41zM238 462q-13 0 -21 -6v-21q8 -4 23 -4q0 8 -1 14.5t-1 16.5zM168 443q2 0 4 -2t4 -2v4h-8z" />
    <glyph glyph-name="dollar" unicode="$" horiz-adv-x="793" 
d="M674 1493q41 -108 37 -236q-2 -36 -9.5 -59.5t-31.5 -29.5l-39.5 -10.5t-34.5 -7.5l-37 -174q72 -50 112 -124.5t55 -160.5t11 -175t-18 -165q-41 -190 -115 -260t-172 -85q-20 -6 -40.5 -6t-43.5 3q-2 -16 -4 -26.5t-4 -19.5q-18 -93 -41 -105t-47 0q-45 22 -68.5 51.5
t-33 63t-7.5 73t11 78.5v5q-70 88 -103 262q-16 86 3.5 135t84.5 109q35 28 62.5 16.5t50.5 -46.5l24 126q-30 34 -59 70.5t-55 81.5q-47 84 -61.5 199.5t0 230.5t55.5 213t104 144q41 30 85 50.5t89 14.5q25 0 49 -9q45 210 56 251q16 54 52 40.5t73 -34.5
q34 -17 48.5 -53.5t15.5 -83.5t-6 -101t-17 -103zM469 572l-39 -187q19 3 36 12t30 27q20 32 15 68.5t-26 60.5zM635 620q-6 172 -107 218q0 -6 -4 -19q33 -33 61.5 -79.5t49.5 -119.5zM143 501q-2 -36 11.5 -58t38.5 -37q0 83 -33 111q-2 0 -9.5 -4.5t-7.5 -11.5zM375 1294
q-10 -18 -11.5 -55.5t5.5 -67.5l30 144q-16 -6 -24 -21zM303 841q25 -49 58.5 -75t69.5 -47t71 -44.5t63 -69.5q-20 67 -52 102.5t-67.5 54t-73.5 33.5t-69 46z" />
    <glyph glyph-name="percent" unicode="%" horiz-adv-x="911" 
d="M813 1485l-60 -161.5l-89.5 -239l-102.5 -275.5l-102 -275.5l-88 -241t-58 -165.5q-12 -37 -27.5 -56.5t-30.5 -27.5t-30.5 -6t-31.5 6q-62 18 -96 42t-46 51.5t-8 58t14 63.5l89.5 260.5l108.5 310l111.5 319.5l101.5 288l78 215t38 100q10 23 29.5 30t42 5t49 -10.5
l51.5 -16.5q49 -14 68.5 -43.5t21.5 -67.5t-8.5 -81t-24.5 -82zM410 934l79.5 177t74.5 181t56.5 186.5t26.5 196.5q-49 -88 -77.5 -180t-52 -187.5l-47.5 -189.5t-60 -184zM223 1638q64 -4 97.5 -31.5t29.5 -93.5q-4 -63 -33.5 -109t-103.5 -44q-37 0 -58.5 14.5t-33.5 36
t-18.5 48t-10.5 54.5q8 60 34 94.5t97 30.5zM223 1552q-26 2 -35.5 -11t-13.5 -36q4 -20 11.5 -37.5t33.5 -19.5q29 0 39 17.5t12 39.5q2 25 -11 35t-36 12zM700 401q64 -4 97.5 -31.5t29.5 -93.5q-4 -63 -33.5 -109t-103.5 -44q-37 0 -58.5 14.5t-33.5 36t-18.5 48
t-10.5 54.5q9 60 34.5 95t96.5 30zM700 315q-26 2 -35.5 -11t-13.5 -36q4 -20 11.5 -37.5t33.5 -19.5q29 0 39 17.5t13 39.5q2 25 -11.5 35t-36.5 12z" />
    <glyph glyph-name="ampersand" unicode="&#x26;" horiz-adv-x="1499" 
d="M1010 556q14 -107 127 -102q-146 -366 -270 -366h-201t-181 34.5t-169.5 34.5h-108.5q-53 0 -84.5 4.5t-36 11.5t-50.5 135q-21 188 47.5 322.5t247.5 229.5q162 86 237.5 226.5t85.5 315.5q4 69 -40.5 112t-106.5 38q-41 -4 -64.5 -19t-33.5 -37.5t-9.5 -50.5t6.5 -58
q16 -71 -7 -88.5t-102 -17.5q-4 0 -24.5 -122.5t-115 9t-114.5 107.5t-12.5 120t38.5 211q56 119 205.5 174.5t353.5 35.5q69 -9 132 -35t112.5 -66t83 -93.5t43.5 -112.5q25 -152 -3.5 -293t-116.5 -270q-45 -65 -97 -125t-109 -116q-26 -24 -122 -66.5t-107.5 -125.5
t45 -124.5t136.5 -47.5t216.5 163.5t83 65t85.5 -13.5zM172 297q6 72 10.5 143.5t8.5 142.5q-9 2 -28 2q-33 -69 -28.5 -141t37.5 -147zM1301 441q29 -32 56.5 -65.5t41 -68.5t8.5 -70.5t-44 -69.5l-40.5 -36t-40 -30t-40.5 -12.5t-39 14.5q-13 10 -77.5 75.5l-160 164
l-212 220t-265 227t-265.5 201.5t-166.5 209t-10 184t87.5 113q14 11 28 18.5t30.5 7t38.5 -11.5t49 -40l121.5 -126.5l180 -182.5l207.5 -209l208.5 -208.5l181 -180zM1327 591.5l-103 -93l-118.5 -108t-292.5 -293.5q-81 17 -101 49t-52 89t-24.5 73t45.5 20
q275 262 209 218.5t0.5 21.5l132 129l119.5 116l90.5 85.5t43.5 38.5q11 8 26 1.5t31 -20t33.5 -32.5l33.5 -38q33 -35 42 -63t4 -51.5t-19 -42.5t-31 -36zM891 311q53 -45 105.5 -51t-27 -107.5t-231.5 -156t-260 -43t-180.5 42t-118.5 62.5t-81 67q-5 4 -26 33t-36 150
q872 -37 855 3z" />
    <glyph glyph-name="quotesingle" unicode="'" horiz-adv-x="399" 
d="M140 1446q53 26 95 18.5t69 -67.5q26 -58 15.5 -130.5t-36 -128t-54.5 -81.5t-36 10q-12 71 -41 115.5t-57 94.5q-25 55 -20 97.5t65 71.5zM127 1374q-11 -40 3 -66t46 -50q9 43 5.5 71.5t-26.5 51.5q-3 2 -14.5 0t-13.5 -7z" />
    <glyph glyph-name="parenleft" unicode="(" horiz-adv-x="401" 
d="M281 -429.5q-26 21.5 -41.5 46.5t-23.5 36q-45 62 -81 192.5t-60 304t-35.5 376t-8 406t22.5 392t58 334.5q71 270 155.5 398.5t82.5 -196.5t-39 -401q-23 -47 -37 -145t-22 -223.5t-7 -263.5t7.5 -262.5t21 -220.5t37.5 -139q21 -69 8.5 -362.5t-38.5 -272zM162 941
q-11 -108 -19 -215.5t-5 -212.5t23.5 -205.5t69.5 -197.5q-39 203 -56.5 410.5t-12.5 420.5zM286 2033q-51 -57 -78.5 -127.5t-33.5 -167.5q10 7 16 8.5t8 6.5z" />
    <glyph glyph-name="parenright" unicode=")" horiz-adv-x="401" 
d="M70 205q23 43 37.5 139t21 220.5t7.5 262.5t-7 263.5t-22 223.5t-37 145q-37 76 -39 401t82.5 196.5t155.5 -398.5q39 -146 58 -334.5t22.5 -392t-8 -406t-35.5 -376t-60 -304t-81 -192.5q-8 -11 -23.5 -36t-41.5 -46.5t-38.5 272t8.5 362.5zM206.5 520.5
q-17.5 -207.5 -56.5 -410.5q49 97 69.5 197.5t23.5 205.5t-5 212.5t-19 215.5q5 -213 -12.5 -420.5zM183 1753q2 -5 8 -6.5t16 -8.5q-6 97 -33.5 167.5t-78.5 127.5z" />
    <glyph glyph-name="asterisk" unicode="*" horiz-adv-x="828" 
d="M143 406q-56 54 -80 79t-24 43.5t23 39.5t64 64l124 129l-203 211q-19 16 -16 28.5t20 30.5l26.5 27.5l32 33.5l28 29.5t14.5 15.5q18 13 29.5 8.5t28.5 -23.5l79 -80l122 -122l100 100l92 86q16 19 28 16t30 -21l28.5 -26.5l33.5 -31.5l29 -28t15 -14q13 -18 9 -29.5
t-24 -28.5q-21 -25 -70.5 -72l-109.5 -107l98.5 -93.5t73.5 -62.5q27 -20 29 -42.5t-26 -51.5q-55 -58 -80 -82t-43.5 -24t-39.5 23.5t-64 63.5l-107 105l-105.5 -109.5t-69.5 -81.5q-39 -57 -95 -3zM621 532q8 24 -8 33t-25 23q-4 4 -8 7l-8 6q-4 -8 -22 -1t-37 17.5
l-34 19.5t-11 4.5t31.5 -29.5l92.5 -82q4 -5 14.5 -5.5t14.5 7.5zM162 1071q-11 -17 -1.5 -22t19.5 -11q82 -55 152 -118.5t128 -140.5q40 -51 87.5 -94t102.5 -81l-218.5 239.5t-233.5 223.5q-10 8 -18.5 13t-17.5 -9zM451 347q-77 0 -113 2t-48.5 15.5t-9.5 44t3 90.5
q0 84 1.5 173t4.5 177t5 170t6 151q-2 25 9 31t36 6h37.5h47h41h21.5q23 -4 27 -14t2 -37q0 -29 -1 -85t-3 -128t-3 -150.5t-1 -151.5t1 -133.5t5 -92.5q10 -68 -68 -68zM421 1157q-18 -5 -16 -16.5t6 -21.5q22 -94 31 -188t0 -191q-11 -126 19 -258q5 163 2.5 325
t-17.5 322q-3 11 -5.5 22t-19.5 6zM390 450q11 5 15 12t3 16t-3.5 17.5t-0.5 16.5q2 6 -0.5 12t-2.5 11q-10 -6 -18.5 11t-15 38.5t-10.5 37.5t-4.5 10t2.5 -42t12 -121q1 -8 7.5 -15t15.5 -4z" />
    <glyph glyph-name="plus" unicode="+" horiz-adv-x="920" 
d="M524 334q-78 0 -113.5 2t-48 15.5t-9.5 44t3 89.5v179l-293 12q-24 -2 -30 9t-6 36v37.5v47v41v21.5q4 23 14 27t37 2q35 0 112.5 -2t171.5 -4q3 72 5 139.5t6 126.5q-2 25 9 31t36 6h37.5h47h41h21.5q23 -4 27 -14.5t2 -36.5q0 -33 -2 -100.5t-4 -153.5q74 0 135 1t96 5
q68 10 68 -68q0 -77 -2 -113t-15.5 -48.5t-44 -9.5t-90.5 3h-149q-2 -84 0 -152.5t6 -105.5q10 -67 -68 -67zM782 754q-4 12 -11 16t-16.5 4t-17.5 -2t-16 0q-6 2 -12.5 0t-10.5 -2q4 -10 -13 -17.5t-38.5 -12.5t-38 -8t-10.5 -4t42 0t122 5q8 0 15 6t5 15zM78 827
q4 -18 15 -17t22 5q96 16 190 19.5t191 -11.5q125 -18 258 4q-162 15 -324 22t-324 1l-21 -4t-7 -19z" />
    <glyph glyph-name="comma" unicode="," horiz-adv-x="348" 
d="M197 272q59 -4 92 -31.5t26 -93.5q-6 -63 -51 -120.5t-95 -93t-88 -44t-26 26.5q25 68 22 121t-3 110q6 60 31.5 94.5t91.5 30.5zM150 215q-29 -29 -30 -58.5t15 -66.5q29 33 40 59.5t3 57.5q-2 4 -13 8t-15 0z" />
    <glyph glyph-name="hyphen" unicode="-" horiz-adv-x="926" 
d="M891 827q0 -77 -2 -113t-15.5 -48.5t-44 -9.5t-90.5 3q-84 0 -173 1.5t-177 4.5t-170 5t-151 6q-25 -2 -31 9t-6 36v37.5v47v41v21.5q4 23 14 27t37 2q29 0 85 -1t128 -3t150.5 -3t151.5 -1t133.5 1t92.5 5q68 10 68 -68zM82 827q4 -18 15.5 -17t21.5 5q96 16 190 19.5
t191 -11.5q125 -18 258 4q-162 15 -324 22t-323 1l-22 -4t-7 -19zM786 754q-4 12 -11 16t-16 4t-17.5 -2t-16.5 0q-6 2 -12 0t-11 -2q5 -10 -12.5 -17.5t-39 -12.5t-38 -8t-10.5 -4t42 0t122 5q8 0 15 6t5 15z" />
    <glyph glyph-name="hyphen" unicode="&#xad;" horiz-adv-x="926" 
d="M891 827q0 -77 -2 -113t-15.5 -48.5t-44 -9.5t-90.5 3q-84 0 -173 1.5t-177 4.5t-170 5t-151 6q-25 -2 -31 9t-6 36v37.5v47v41v21.5q4 23 14 27t37 2q29 0 85 -1t128 -3t150.5 -3t151.5 -1t133.5 1t92.5 5q68 10 68 -68zM82 827q4 -18 15.5 -17t21.5 5q96 16 190 19.5
t191 -11.5q125 -18 258 4q-162 15 -324 22t-323 1l-22 -4t-7 -19zM786 754q-4 12 -11 16t-16 4t-17.5 -2t-16.5 0q-6 2 -12 0t-11 -2q5 -10 -12.5 -17.5t-39 -12.5t-38 -8t-10.5 -4t42 0t122 5q8 0 15 6t5 15z" />
    <glyph glyph-name="period" unicode="." horiz-adv-x="322" 
d="M160 272q63 -4 97 -31.5t30 -93.5q-4 -63 -34 -109t-103 -44q-37 0 -58.5 14.5t-34 36t-18.5 48t-10 54.5q8 60 33.5 94.5t97.5 30.5zM213 215q-14 -14 -20.5 -21.5t-6.5 -13.5t5.5 -15t13.5 -28q14 17 23.5 24t13.5 12t4 11t-4 23q-2 4 -13.5 8t-15.5 0z" />
    <glyph glyph-name="slash" unicode="/" horiz-adv-x="879" 
d="M807 1485l-60.5 -161.5l-89 -239l-102.5 -275.5l-102.5 -275.5l-88 -241l-57.5 -165.5q-12 -37 -27.5 -56.5t-31 -27.5t-30.5 -6t-32 6q-61 18 -95 42t-46 51.5t-8 58t14 63.5l89.5 260.5l108.5 310l111.5 319.5l101.5 288l77.5 215t38.5 100q10 23 29.5 30t42 5
t49 -10.5l51.5 -16.5q49 -14 68.5 -43.5t21.5 -67.5t-8.5 -81t-24.5 -82zM403 934l80 177t75 181t56.5 186.5t26.5 196.5q-49 -88 -77.5 -180t-52.5 -187.5l-47.5 -189.5t-60.5 -184z" />
    <glyph glyph-name="zero" unicode="0" horiz-adv-x="1214" 
d="M616 1790q62 4 124.5 -16.5t118.5 -62.5t101.5 -102.5t73.5 -133.5q58 -150 82.5 -302.5t24.5 -304t-22.5 -299t-61.5 -282.5q-19 -76 -78 -130.5t-135 -89t-157 -51t-140 -18.5q-150 -4 -244 55.5t-158 190.5q-73 153 -91.5 315t-20.5 322q-2 18 0 86.5t9 155.5
t18.5 177.5t29.5 149.5q47 166 184.5 258t341.5 82zM227 836q-34 -103 -35.5 -214.5t23.5 -208t74 -166t114 -89.5q-77 69 -107 150t-38 168t-9 178t-22 182zM440 406q13 59 -0.5 105t-42.5 95q-10 -59 -4 -105t47 -95zM573 424q41 33 55.5 77t22.5 89q11 69 17 135t9 133.5
t2 139t-5 155.5q0 35 -2 68.5t-9.5 61.5t-20.5 46.5t-34 22.5q-26 4 -44.5 -15.5t-32 -50.5t-22.5 -67.5t-15 -67.5q-13 -61 -21 -142t-9 -166t4 -165t18.5 -140.5t35 -93t51.5 -20.5zM627 305q35 0 53 10.5t26.5 27.5t11.5 38.5t7 40.5q-31 -21 -57.5 -46.5t-40.5 -70.5z
M768 580q27 34 41 59t17 47.5t-3 46t-20 58.5q-23 -54 -32 -103t-3 -108zM688 1622q60 -45 118 -95t97 -145q-6 107 -59 163.5t-156 76.5z" />
    <glyph glyph-name="one" unicode="1" horiz-adv-x="539" 
d="M170 1806q98 -2 159.5 -3t97.5 -8t50.5 -25.5t17.5 -52.5t0 -90t-3 -138q0 -176 -3.5 -364.5t-8.5 -372l-10 -356.5t-11 -318q4 -51 -17.5 -63.5t-68.5 -12.5q-29 0 -74 -1l-89 -2t-79 -1t-41 2q-41 8 -49 29.5t-6 76.5q0 60 3 178.5t5 268t5 316.5t3 319.5t-3 278.5
t-9 196q-6 68 22.5 105.5t108.5 37.5zM170 106q35 9 32 33.5t-7 46.5q-35 199 -40 397.5t23 401.5q17 135 14.5 271.5t-24.5 271.5q-27 -342 -40 -680t-1 -682q2 -21 7 -42.5t36 -17.5zM317 127q25 8 32 23.5t7 33t-3 36t1 34.5q2 12 -1 24.5t-5 24.5q-53 -22 -68.5 -55
t1.5 -80q6 -16 14 -30.5t22 -10.5z" />
    <glyph glyph-name="two" unicode="2" horiz-adv-x="1180" 
d="M1010 334q82 -10 110.5 -61.5t18.5 -168.5q-4 -32 -16.5 -52.5t-32 -31t-42 -14.5t-47.5 -4h-70h-122h-150.5t-159.5 1t-147.5 1h-113.5q-56 0 -88.5 5t-50 22.5t-25.5 50.5t-15 88q-22 205 49.5 352.5t258.5 251.5q170 94 248.5 248t89.5 346q4 76 -42.5 123t-111.5 41
q-43 -4 -67.5 -20.5t-35 -41t-9.5 -55.5t7 -63q17 -78 -7.5 -97.5t-106.5 -19.5q-4 0 -41 -3t-82 0t-86 13t-49 39q-25 72 -19 153t39 154q58 131 214.5 191.5t369.5 38.5q72 -9 137.5 -37.5t117.5 -72.5t87 -102.5t45 -123.5q27 -166 -3 -320.5t-122 -296.5
q-47 -71 -101.5 -136.5t-113.5 -127.5q-27 -26 -50.5 -54t-43.5 -56q-29 -43 -42.5 -69t-7 -39t33 -18.5t79.5 -9.5q78 -6 158 -11t158 -13zM209 158q6 78 11 156.5t9 156.5q-10 2 -30 2q-37 -76 -32 -154.5t42 -160.5z" />
    <glyph glyph-name="three" unicode="3" horiz-adv-x="1180" 
d="M1120 1659q23 -205 -48 -353.5t-257 -250.5l-4 -4l114.5 -100t88.5 -91t60.5 -104.5t33.5 -139.5q8 -65 -1 -150t-37 -166t-75 -146.5t-112 -92.5q-99 -41 -198 -58t-190.5 -11t-166 36.5t-119.5 86.5q-51 61 -84 136t-23 152q4 37 28 53.5t54.5 24.5t65.5 14.5t61 20.5
q4 4 11.5 4t11.5 4q65 33 101 16.5t44 -96.5q2 -32 10.5 -62t25.5 -50.5t45 -29.5t71 -1q31 6 55.5 44t37.5 88t15 102.5t-10 89.5q-22 63 -52 103t-67 67.5t-83 50t-99 53.5q-22 12 -31.5 42t-6.5 66.5t18.5 74.5t46.5 69q12 12 33.5 31.5l45 41l43 41t29.5 35.5
q60 89 22 136t-143 57q-77 6 -157 -1t-158 3q-82 10 -109.5 60.5t-17.5 166.5q2 33 14.5 53.5t32 32t42 15.5t46.5 4h71t121.5 -1t150.5 -1t160 -1t147.5 -1h113.5q55 0 88 -5.5t50.5 -21.5t25.5 -49t14 -88zM573 1020q11 33 4.5 57.5t-45.5 52.5q-12 -32 0.5 -56.5
t40.5 -53.5zM1038 1616q-20 47 -40.5 75.5t-45 40t-58.5 7.5t-79 -21l106.5 -48.5z" />
    <glyph glyph-name="four" unicode="4" horiz-adv-x="1270" 
d="M1163 987q49 2 69.5 -23.5t4.5 -80.5q-8 -29 -8 -60.5t-4 -62.5q-4 -39 -22.5 -65.5t-59.5 -22.5q-37 2 -58.5 -7.5t-31 -26.5t-10.5 -41t-1 -50q2 -111 3.5 -217.5t1.5 -216.5q0 -29 -1.5 -50.5t-10.5 -35t-32.5 -20.5t-68.5 -7q-23 0 -59.5 -1t-72.5 1t-63.5 10
t-33.5 29q-9 20 -13 87t-4 146.5t2 155.5t4 115q4 69 -24.5 90.5t-89.5 13.5q-45 -6 -98.5 -6h-108t-107.5 -1t-98 -5q-62 -4 -95.5 19.5t-35.5 95.5v128.5t1 172t1 188.5t-1 181t-1 147.5t-2 89.5q-4 45 8 73.5t33.5 44t50.5 21.5t59 6q31 0 70 -1t74 -12t57.5 -38
t20.5 -78q-5 -137 -5 -287.5t3 -285.5v-38.5t6 -30.5t23.5 -22.5t51.5 -15.5q35 -6 71 -13t66.5 -1t50 33.5t19.5 93.5q0 264 6 532q2 50 17.5 78.5t45.5 44t75 20.5t106 9q82 4 106.5 -32t20.5 -107q-8 -131 -11 -260t-11 -261q-5 -65 15.5 -105t98.5 -38zM932 195
q4 114 6 227l4 227q-10 -2 -31 -2q-10 -115 -12 -227.5t33 -224.5z" />
    <glyph glyph-name="five" unicode="5" horiz-adv-x="1147" 
d="M993 1804q47 0 88 -18.5t47 -83.5q11 -117 -18 -168t-111 -61q-77 -9 -153 -6t-162 6q-53 2 -100 1t-83 -13.5t-57.5 -41t-21.5 -84.5v-4q0 -59 1 -117.5t1 -113.5v-41.5t7 -36.5t22.5 -25.5t46.5 -9.5h319q35 0 58.5 -10t40.5 -23q18 -14 30 -30q80 -123 106.5 -269.5
t0.5 -312.5q-11 -66 -45.5 -123t-87 -102t-118 -74t-136.5 -37q-213 -22 -370 39t-214 193q-31 73 -38 153t17 154q9 26 50 37.5t86 13.5t81.5 0t41.5 -2q81 0 106 -20.5t8 -98.5q-6 -33 -7 -63.5t10.5 -55t35 -41t66.5 -20.5q65 -4 111 42t42 122q0 57 -8 110
q-8 45 -27.5 89t-58.5 67v2q-41 2 -94 2t-108.5 -2t-111 -5t-100.5 -7q-59 -6 -94 17.5t-35 96.5v123.5v156.5v169v162t-1 133t-3 84q-4 45 8.5 73.5t34 44t50 21.5t59.5 6h43h117.5t145.5 1t154.5 1h144.5h116h67z" />
    <glyph glyph-name="six" unicode="6" horiz-adv-x="1137" 
d="M662 1075q55 0 114.5 -8t113.5 -30.5t98 -61.5t69 -101q59 -151 46 -321t-85 -330v2q-39 -65 -83 -110t-101.5 -72t-133 -36t-180.5 1q-71 6 -141 34t-128 71t-101.5 99t-61.5 122q-47 162 -37 313.5t82 292.5q12 25 55 89.5l102.5 150.5l129 183l136.5 185l123 157
t89 99q37 33 85 18.5t90 -52t68.5 -87t22.5 -81.5q-4 -29 -23.5 -70t-50 -89t-68.5 -100.5t-78 -101.5t-80 -92t-72 -74zM817 1636q-26 -18 -40.5 -31.5t-17.5 -25.5t3 -25.5t20 -31.5q23 28 32 55t3 59zM229 516q-34 -57 -35 -118.5t23.5 -114t72.5 -91t113 -49.5
q-77 37 -106 82t-38 93.5t-10 98.5t-20 99zM692 332q33 33 43 85t8 101q-2 57 -14 121q-14 74 -68.5 105.5t-117.5 9.5q-41 -15 -64.5 -39.5t-38.5 -52.5q-16 -99 -6 -209q6 -76 57.5 -121t116.5 -39q25 4 45.5 13t38.5 26z" />
    <glyph glyph-name="seven" unicode="7" horiz-adv-x="1159" 
d="M942 1802q55 0 88 -5t50.5 -21.5t25.5 -49t14 -88.5q10 -82 4 -142t-28 -124l-41.5 -99l-80.5 -185.5l-106.5 -240.5l-117 -267.5l-111.5 -264.5t-90 -229q-10 -29 -16.5 -45t-17.5 -24.5t-30.5 -11.5t-56.5 -3q-2 0 -37 -2t-76 0t-73.5 10t-32.5 29q2 63 36 182
t83 261.5t106.5 290l107.5 271l86 205.5t42 90q30 43 24 68t-34.5 38t-75.5 18t-99 10q-79 6 -158 11t-157 15q-82 10 -110.5 60.5t-18.5 166.5q2 33 15.5 50.5t31.5 23.5t42 6h46h71t122.5 -1t151.5 -1t160 -1t147.5 -1h113.5zM981 1358q37 76 32 142.5t-42 148.5
l-11.5 -144.5l-11.5 -144.5q10 0 17.5 -1t15.5 -1z" />
    <glyph glyph-name="eight" unicode="8" horiz-adv-x="1217" 
d="M1108 1006q-37 -72 -129 -117q53 -37 80 -78q57 -82 81.5 -167t24.5 -168t-22.5 -164t-61.5 -154q-18 -43 -77.5 -73t-135 -49.5t-156.5 -28.5t-141 -9q-149 -4 -243.5 29.5t-157.5 105.5q-74 86 -92.5 174t-20.5 176q-2 11 0 48.5t9.5 86t18.5 97.5t30 84q37 69 129 116
q-54 37 -80 78q-58 82 -82.5 167t-24.5 168t22.5 164t61.5 155q19 43 78.5 72.5t135 49t156.5 28.5t140 9q150 4 244 -29.5t158 -105.5q73 -84 91.5 -174t20.5 -176q2 -10 0 -48t-9 -86t-18.5 -98.5t-29.5 -82.5zM625 1571q-41 -17 -56.5 -41.5t-21.5 -48.5
q-21 -78 -26 -147.5t1 -164.5q0 -39 13.5 -71.5t54.5 -36.5q26 -2 44.5 8t32 27.5t22.5 38l16 36.5q18 52 26 124.5t0 137t-33.5 106.5t-72.5 32zM430 1485q-27 -19 -41 -32t-17 -25.5t3 -25.5t20 -32q23 29 32 56.5t3 58.5zM254 459q-35 -58 -37 -119t22.5 -113.5
t73.5 -91.5t115 -49q-78 37 -107.5 82t-38 93t-9.5 98.5t-19 99.5zM465 223q12 33 -1 57.5t-42 51.5q-10 -31 -4 -56.5t47 -52.5zM571 1636q-34 0 -52.5 -5t-27 -14t-11.5 -21.5t-7 -22.5q31 10 57.5 24.5t40.5 38.5zM598 231q41 19 55.5 43.5t22.5 49.5q20 77 25.5 147
t-3.5 164q2 39 -11 71.5t-54 36.5q-27 2 -45.5 -8t-31.5 -27.5t-22.5 -38t-15.5 -36.5q-18 -51 -26.5 -124t0 -137.5t34 -107.5t72.5 -33zM651 168q35 0 53.5 5t26.5 14.5t11 21.5t8 22q-31 -10 -57.5 -25.5t-41.5 -37.5zM758 1581q-13 -33 0.5 -57.5t42.5 -53.5
q10 33 4 58.5t-47 52.5zM793 317q53 39 58 59.5t-24 57.5q-22 -28 -31.5 -56t-2.5 -61zM969 1346q35 57 37 117.5t-23 113.5t-74 91t-114 50q77 -39 107 -83t38 -92t9 -98t20 -99z" />
    <glyph glyph-name="nine" unicode="9" horiz-adv-x="1165" 
d="M645 1821q72 -6 140.5 -34t127 -71t101.5 -99t61 -120q47 -162 38 -314.5t-83 -293.5q-12 -23 -55 -88.5l-102.5 -150.5l-129 -182l-136 -185l-123 -157t-89.5 -99q-37 -35 -85 -21t-90 53t-68.5 87.5t-22.5 82.5q6 41 46 111t96.5 146.5t119 149.5t111.5 118
q-56 0 -115 8t-113.5 30.5t-98.5 61.5t-69 100q-59 152 -45.5 322t84.5 330q39 65 83 110t101.5 72t134.5 35t181 -2zM293 102q53 39 59 58.5t-22 56.5q-23 -29 -33 -55.5t-4 -59.5zM723 1169q14 99 6 209q-6 74 -57 120t-117 38q-45 -2 -82 -39q-33 -33 -43 -84t-8 -100
q0 -58 12 -121q15 -74 69 -106.5t118 -10.5q41 17 64.5 40.5t37.5 53.5zM573 1653l109 -51.5l115 -53.5q-21 47 -40.5 76t-45 40t-58 8t-80.5 -19z" />
    <glyph glyph-name="colon" unicode=":" horiz-adv-x="322" 
d="M160 416q63 -4 97 -32t30 -93q-4 -64 -34 -110t-103 -44q-37 0 -58.5 14.5t-34 36t-18.5 48t-10 55.5q8 59 33.5 94t97.5 31zM213 358q-14 -14 -20.5 -21t-6.5 -13.5t5.5 -15.5t13.5 -27q14 16 23.5 23t13.5 12.5t4 11.5t-4 22q-2 4 -13.5 8t-15.5 0zM160 928
q63 -4 97 -32t30 -93q-4 -64 -34 -110t-103 -44q-37 0 -58.5 14.5t-34 36t-18.5 48t-10 55.5q8 59 33.5 94t97.5 31zM213 870q-14 -14 -20.5 -21t-6.5 -13.5t5.5 -15.5t13.5 -27q14 16 23.5 23t13.5 12.5t4 11.5t-4 22q-2 4 -13.5 8t-15.5 0z" />
    <glyph glyph-name="semicolon" unicode=";" horiz-adv-x="356" 
d="M197 928q63 -4 97 -32t30 -93q-5 -64 -34.5 -110t-103.5 -44q-36 0 -58 14.5t-34 36t-18 48t-10 55.5q8 59 33.5 94t97.5 31zM250 870q-14 -14 -20.5 -21t-6.5 -13.5t5 -15.5t14 -27q14 16 23 23t13.5 12.5t4.5 11.5t-4 22q-3 4 -14 8t-15 0zM199 422q59 -4 92 -32
t26 -93q-6 -64 -51 -121t-95 -93t-88 -44t-26 27q25 67 22 120.5t-3 110.5q6 59 31.5 94t91.5 31zM152 365q-29 -29 -30 -59t15 -66q29 32 40 59t3 57q-2 4 -13 8.5t-15 0.5z" />
    <glyph glyph-name="semicolon" unicode="&#x37e;" horiz-adv-x="356" 
d="M197 928q63 -4 97 -32t30 -93q-5 -64 -34.5 -110t-103.5 -44q-36 0 -58 14.5t-34 36t-18 48t-10 55.5q8 59 33.5 94t97.5 31zM250 870q-14 -14 -20.5 -21t-6.5 -13.5t5 -15.5t14 -27q14 16 23 23t13.5 12.5t4.5 11.5t-4 22q-3 4 -14 8t-15 0zM199 422q59 -4 92 -32
t26 -93q-6 -64 -51 -121t-95 -93t-88 -44t-26 27q25 67 22 120.5t-3 110.5q6 59 31.5 94t91.5 31zM152 365q-29 -29 -30 -59t15 -66q29 32 40 59t3 57q-2 4 -13 8.5t-15 0.5z" />
    <glyph glyph-name="less" unicode="&#x3c;" horiz-adv-x="1055" 
d="M829 440q35 -24 69 -53t54.5 -60.5t20.5 -68.5t-31 -76l-32.5 -43.5t-34 -37t-37 -19.5t-41.5 8q-41 25 -220.5 143.5t-463.5 325.5q-37 27 -61.5 58.5t-16.5 78.5q-8 47 16.5 79t61.5 59l463.5 324t220.5 145q22 12 41.5 8t37 -19.5t34 -38l32.5 -43.5q31 -41 31 -76.5
t-20.5 -67.5t-54.5 -60.5t-69 -53.5q-106 -71 -207.5 -130.5l-205.5 -125.5l205.5 -124.5t207.5 -131.5zM512 391q39 -22 74 -50l69.5 -55.5t70.5 -53t79 -44.5q-60 70 -136.5 115zM778 1114q53 39 59.5 58.5t-22.5 56.5q-22 -29 -32.5 -55.5t-4.5 -59.5z" />
    <glyph glyph-name="equal" unicode="=" horiz-adv-x="930" 
d="M893 969q0 -78 -2 -114t-15.5 -48t-44 -9t-90.5 3q-84 0 -173 1t-177 4t-170 5t-151 6q-25 -2 -31 9.5t-6 35.5v38.5v47v41v21.5q4 22 14 26t37 2q29 0 85 -1t128 -3t150.5 -3t151.5 -1t133.5 1t92.5 5q68 11 68 -67zM84 969q4 -19 15.5 -18t21.5 5q96 17 190.5 20
t190.5 -11q125 -19 258 4q-162 14 -324 21t-323 1l-22 -4t-7 -18zM788 895q-4 12 -11 16t-16 4t-17.5 -2t-16.5 0q-6 2 -12 0t-10 -2q4 -10 -13.5 -17t-39 -12t-38 -8.5t-10.5 -4.5t42 0t122 5q8 0 15.5 6.5t4.5 14.5zM37 530q0 76 2 112t15.5 48t44 10t89.5 -2
q84 0 173.5 -1t176.5 -4l170 -6t152 -5q25 2 31 -9t6 -36v-38v-47.5v-41.5v-21q-4 -22 -14.5 -26t-36.5 -2q-29 0 -85 1t-128 3t-151 3t-151.5 1t-133 -1t-93.5 -5q-67 -10 -67 67zM846 530q-4 19 -15.5 18t-21.5 -5q-96 -17 -190.5 -20t-190.5 12q-125 18 -258 -5
q162 -14 323.5 -21t323.5 -1q10 2 21.5 4t7.5 18zM141 604q4 -12 11.5 -16t16.5 -4t17.5 2t16.5 0q6 -2 12 0t10 2q-4 8 13.5 16t39 13.5t38 8.5t10 4t-43 0t-120.5 -5q-8 0 -15.5 -6.5t-5.5 -14.5z" />
    <glyph glyph-name="greater" unicode="&#x3e;" horiz-adv-x="1055" 
d="M225 952q-35 25 -68.5 53.5t-54 60.5t-20.5 67.5t31 76.5l32.5 43.5t34 38t37 19.5t41.5 -8q41 -25 220 -145l464 -324q37 -27 61.5 -59t16.5 -79q8 -47 -16.5 -78.5t-61.5 -58.5q-285 -207 -464 -325.5t-220 -143.5q-22 -12 -41.5 -8t-37 19.5t-34 37l-32.5 43.5
q-31 39 -31 76t20.5 68.5t54 60.5t68.5 53q107 72 208.5 131.5l205.5 124.5l-205.5 125.5t-208.5 130.5zM543 1001q-39 23 -74 50.5l-69.5 55.5t-70.5 53.5t-79 43.5q59 -69 136 -114.5zM276 279q-53 -39 -59 -58.5t23 -56.5q22 29 32.5 55.5t3.5 59.5z" />
    <glyph glyph-name="question" unicode="?" horiz-adv-x="1141" 
d="M524 401q4 33 4 52.5t-6 31t-19.5 15.5t-35.5 6q6 -70 57 -105zM426 1165q-10 -82 -35.5 -128t-58.5 -66.5t-70 -20.5t-68.5 9.5t-54 24.5t-28.5 26q-25 45 -37.5 114.5t-11.5 149.5t17.5 166t51.5 166q39 65 83 110t101.5 72t134 35t181.5 -2q71 -6 140 -34t127 -71
t101 -99t62 -120q47 -162 38 -314.5t-83 -293.5q-12 -25 -45 -59.5l-75 -75.5l-88 -87t-82 -89t-58.5 -84t-18.5 -72q6 -51 -36 -74.5t-100 -28t-115.5 10t-78.5 41.5q-26 32 -21 79.5t30.5 99.5t67.5 105.5t91 98.5q52 59 86.5 108t59 96.5t42 98.5t34.5 112q14 99 6 209
q-6 74 -57.5 120t-116.5 38q-45 -2 -82 -39q-33 -33 -43 -84t-8 -100q0 -58 12 -121zM430 283q78 4 121 -21.5t45 -93.5q0 -66 -32 -116t-122 -58q-43 -4 -70.5 8t-44 33.5t-26.5 49.5t-18 56q4 62 33.5 101t113.5 41zM500 229q-17 -16 -23 -24t-6 -14.5t7 -14.5t18 -26
q16 18 26 25t15.5 13.5t4.5 13.5t-7 23q-3 4 -17 6t-18 -2z" />
    <glyph glyph-name="at" unicode="@" horiz-adv-x="1638" 
d="M1457 19h174q-87 -215 -271 -332.5t-451 -117.5q-272 0 -460.5 107t-293.5 313.5t-105 496.5q0 297 115 534t301.5 354.5t423.5 117.5q203 0 360.5 -94.5t248 -272t90.5 -404.5q0 -261 -137 -474q-159 -247 -406 -247q-66 0 -101 27t-48 87q223 115 232.5 102.5
t22.5 -12.5q38 0 100 56q83 74 136 203t53 267q0 168 -72.5 304.5t-192 205t-289.5 68.5q-202 0 -352.5 -95.5t-243 -292.5t-92.5 -451q0 -217 87 -383t238 -249.5t369 -83.5q196 0 337 66.5t227 199.5zM800 880q33 -16 52.5 -40.5t32 -54t20 -61.5l15.5 -63
q22 -95 21.5 -189t-15.5 -189q-10 -69 -40.5 -122t-75 -86t-101.5 -42.5t-121 8.5q-49 12 -88.5 51t-61.5 92q-28 69 -42 141.5t-13 161.5q3 30 5 61.5t7 64.5t12.5 67t22.5 67q24 57 67 93t95 52t107 12.5t101 -24.5zM776 665q-15 25 -34 48t-53 43q7 -20 18 -33t23 -22.5
t24.5 -18t21.5 -17.5zM649 811q-25 4 -50.5 -3t-47.5 -22.5t-37.5 -37.5t-18.5 -45l74.5 52.5zM519 293q11 -56 35 -78.5t74 -23.5l-62.5 46t-46.5 56zM580 329q10 -44 33 -69t59 -26q18 0 31 8.5t22.5 22.5t15.5 32t10 38q5 23 5 49t2 51q1 44 -3 85t-18 81
q-14 38 -38 63.5t-55 24.5q-14 -1 -25.5 -10t-19.5 -23t-13.5 -31.5t-7.5 -34.5q-10 -65 -11 -130.5t13 -130.5zM694 143q33 1 56.5 8.5t40 21.5t26.5 36t16 53q-11 -21 -25.5 -37.5t-33 -30t-39 -26zM881.5 875q15.5 14 55.5 16q20 -1 42 -0.5t39.5 -4t28.5 -17.5t11 -42
q-1 -51 -3 -101.5t-3 -102.5q0 -82 0.5 -163t-0.5 -163q0 -23 10.5 -40t120 -67.5t92 -81t-45 -49t-66 -25.5t-91.5 -4q-93 5 -145.5 51t-64.5 126q-4 29 -5 81t-0.5 113.5t2 128t4 125.5t4 105.5t0.5 67.5q-1 33 14.5 47zM972 673.5q-5 -46.5 -5.5 -92.5t2.5 -92.5t5 -92.5
q-1 46 3.5 92l9 92.5t6.5 92.5t-3 93q-13 -46 -18 -92.5zM1077 184.5q-9 3.5 -20 6.5q-6 2 -14 4t-21 7q6 -12 8 -16.5t4 -6.5q15 -16 36 -27.5t18.5 9t-11.5 24zM1023.5 122.5q-28.5 16.5 -49 37.5t-31.5 47.5t-10 61.5q-16 -93 23 -138.5t127 -38.5q-31 14 -59.5 30.5z
M544 1352q-25 4 -50.5 -3t-47.5 -22.5t-37.5 -37.5t-18.5 -45l74.5 52.5zM649 811q-25 4 -50.5 -3t-47.5 -22.5t-37.5 -37.5t-18.5 -45l74.5 52.5zM1447 -153q25 4 47.5 18t39 35t25 46.5t5.5 48.5l-56.5 -71.5z" />
    <glyph glyph-name="A" unicode="A" horiz-adv-x="1292" 
d="M905 1651l167 -753l173 -753q6 -22 11.5 -44.5t2 -43t-19.5 -36t-57 -21.5q-35 -4 -80 -5t-88 7t-77 29.5t-44 62.5l-12 51.5t-9 51.5q-10 90 -60 134t-155 48q-73 2 -120.5 -11.5t-75 -41t-39.5 -67.5t-19 -91q-10 -72 -25.5 -106.5t-40 -48t-59 -13.5t-79.5 -2
q-41 -2 -73 4t-51.5 23.5t-26.5 45t1 68.5q17 92 46.5 228.5l65.5 290l73.5 310l70.5 291l57.5 231.5l32.5 130q17 66 24 102.5t25.5 54t58.5 19.5t124 0h27.5h37t35.5 -1t25 -1q47 -2 73.5 -7t41 -20.5t21.5 -43t17 -72.5zM467 948q-6 131 51 271q37 100 35 186
q-41 -121 -72.5 -237.5t-50.5 -233.5q0 -8 1 -14.5t18 -1.5q18 6 19 14t-1 16zM643 621q21 0 43.5 1t39.5 9t25.5 25.5t0.5 48.5q-13 49 -23 121.5t-21.5 140t-25.5 115.5t-35 48q-16 0 -31.5 -48t-29 -115.5t-25.5 -141t-24 -125.5q-9 -34 1.5 -51.5t29 -24t39 -5t36.5 1.5
zM1094 342l4 -77t10 -74.5t24.5 -71.5t45.5 -66q2 78 -20.5 150.5t-63.5 138.5z" />
    <glyph glyph-name="B" unicode="B" horiz-adv-x="1153" 
d="M1006 1145l-18 -79t-6 -55.5t13.5 -53t42.5 -72.5q43 -66 63.5 -158t21.5 -191.5t-16 -193.5t-50 -164q-35 -78 -112 -128t-175 -54q-80 0 -148.5 -1t-133 -1h-131t-142.5 2q-158 2 -164 145q-4 68 -7 191t-5 272.5t-3 310t-1 306t1 260t3 172.5q2 108 111 119
q57 4 106 10t97 10t97.5 5t104.5 -1q281 -16 399.5 -181t59.5 -446l-4 -12zM825 1487q-20 47 -40.5 75.5t-46 40t-58.5 7.5t-80 -21l108.5 -48.5zM393 1110q43 -10 84 -14q35 -4 75 -1t73 19q34 19 55.5 49.5t28 65.5t-4 70.5t-36.5 64.5q-25 25 -71 31t-91 2
q-53 -4 -113 -17v-270zM692 119q66 -10 123 12.5t96 66.5t55.5 103t0.5 125q-4 -86 -33 -131t-70 -71.5t-87 -47t-85 -57.5zM702 600q-30 29 -67 43t-78 15t-83 -11t-81 -37v-141q0 -55 -1 -105.5t1 -66.5q99 -14 174.5 -6t134.5 67q21 21 33.5 52.5t12.5 66.5t-10.5 68
t-35.5 55z" />
    <glyph glyph-name="C" unicode="C" horiz-adv-x="1262" 
d="M664 -29q-84 -4 -144.5 7.5t-100.5 26.5t-63.5 32.5t-36.5 25.5q-69 43 -124.5 134.5t-92 213t-54 263t-12.5 284t34.5 274.5t89.5 234q108 189 238 279t261.5 91t254 -84t219.5 -245q30 -49 43.5 -104t23.5 -113q8 -33 4 -68.5t-45 -45.5q-18 -5 -57 -11t-81 -6
t-75 10.5t-39 40.5q-18 78 -67 126t-113.5 63.5t-134.5 -2t-127 -70.5q-35 -33 -56.5 -101.5t-34 -156.5t-11 -184.5t11.5 -183.5t32.5 -154.5t57.5 -97.5q33 -48 75 -73.5t87 -31.5t89 6t83 41q47 35 75.5 94.5t26.5 114.5q0 43 22.5 57.5t57.5 22.5q6 2 33.5 10t61.5 9
t69 -12t55 -56q12 -29 13 -79t-8 -105.5t-27.5 -105.5t-44.5 -77q-93 -129 -214.5 -204.5t-254.5 -88.5zM193 1096q-11 -82 -19 -164t-5 -162t23.5 -156.5t69.5 -150.5q-39 155 -56.5 313t-12.5 320zM659 1513q91 -4 166.5 -36.5t143.5 -90.5q-27 60 -63 99t-77 55t-85 10
t-85 -37zM319 1468q-51 -43 -78.5 -97t-33.5 -128q10 6 16 7t8 5z" />
    <glyph glyph-name="D" unicode="D" horiz-adv-x="1174" 
d="M678 1786q51 -10 105.5 -30.5t103.5 -49.5t91 -68t66 -86q33 -61 53.5 -180t29 -264t0 -303t-31 -298t-63.5 -247.5t-100 -150.5q-31 -27 -87.5 -47.5t-119.5 -35t-124.5 -22.5t-104.5 -8h-396q-41 0 -55 29.5t-14 52.5v120v199.5t1 249.5t1 272.5t1 267.5t1 233.5t1 171
t3 79.5q2 37 5 63.5t48 37.5q49 10 131 17t169 9t165 -1t121 -11zM578 1679q-43 4 -109 -20l108.5 -49.5l114.5 -53.5q-2 5 -4 11t-4 10q10 -4 22.5 -10t24.5 -11q-33 72 -66.5 99.5t-86.5 23.5zM502 287q35 0 67.5 6t63.5 29.5t58.5 65.5t49.5 114q25 80 32 190.5t1 225
t-25.5 218t-46.5 171.5q-16 36 -36.5 71t-42 61.5t-45 41t-43.5 12.5h-11q-4 0 -9 1t-9 -1q-43 -4 -64.5 -27.5t-31 -69.5t-10.5 -115t-3 -165q0 -29 -2 -81t-3 -117.5l-2 -137t-1 -138.5v-121v-85q0 -24 1 -49t4 -45t11.5 -33.5t24.5 -15.5q33 -6 72 -6zM637 102
q180 -6 259 89.5t46 281.5q2 -51 -8 -94t-39 -78q-6 -6 -19.5 -40t-47 -71.5t-94 -65.5t-159.5 -22q33 -2 62 0z" />
    <glyph glyph-name="E" unicode="E" horiz-adv-x="948" 
d="M825 358q52 0 70 -23.5t20 -78.5q0 -102 -8 -156.5t-37.5 -77t-87 -24.5t-155.5 -2q-41 2 -103.5 1t-130 -1t-130 -1t-103.5 1q-37 0 -58.5 8t-34 26.5t-18.5 49.5t-12 78q-2 8 -2 71.5v163v224t1 257t1 262.5t1 237.5t0 182t-1 99.5q0 24 2 50t9 46.5t21.5 33.5t36.5 13
q76 0 173.5 -1t199 -1t196.5 -1t167 -1q63 0 67 -74q2 -4 2 -12q-2 -119 -7 -181.5t-24.5 -92t-59.5 -33.5t-111 -6h-111q-72 -2 -114 -4t-62.5 -20.5t-24.5 -62.5t0 -132q6 -29 21.5 -38.5t38.5 -9.5q43 -2 86 -2t84 -2q80 -2 105.5 -32.5t23.5 -112.5q0 -39 -2 -78
t-14.5 -69.5t-41 -49t-82.5 -14.5q-84 4 -128 5t-62 -17.5t-20.5 -64.5t0.5 -138q2 -47 1 -83t6 -60.5t25.5 -37t59.5 -12.5q86 -2 166.5 -3t160.5 1zM715 1583q2 -8 -1 -18.5t-3 -19.5t6 -14t28 -5q27 0 43.5 12t18.5 39q2 25 -2 49.5t-39 28.5q-23 2 -31 -4t-11 -17.5
t-4 -25t-5 -25.5z" />
    <glyph glyph-name="F" unicode="F" horiz-adv-x="932" 
d="M840 1794q63 0 67 -74v-12q-2 -119 -7 -181.5t-24.5 -92t-59.5 -33.5t-111 -6h-109q-74 -2 -116 -4t-62.5 -20.5t-24.5 -62.5t0 -132q8 -29 22.5 -38.5t37.5 -9.5q43 -2 86 -1t86 -3q37 -2 62.5 -9t39.5 -23.5t20.5 -43t6.5 -69.5q-4 -35 -6.5 -72t-13.5 -67.5t-37.5 -51
t-82.5 -20.5q-67 4 -108 6t-64.5 -6t-32 -30.5t-8.5 -67.5v-502q0 -66 -7 -101.5t-25.5 -51t-52 -17.5t-89.5 -2q-41 2 -42 1t6.5 -1t6.5 -1t-42 1q-37 0 -60.5 2t-37 13.5t-18.5 36t-7 71.5v72.5t1 167t1 231.5v265t1 268t1 243t-1 187.5t-1 101.5q-2 24 0 50t10 46.5
t22.5 33.5t36.5 13q76 0 173.5 -1t197.5 -1t195.5 -1t169.5 -1zM125 55q35 6 33 29l-8 41q-35 174 -39 348q-7 174 22 352q17 119 14 240q-2 119 -24 238q-27 -302 -39 -596q-14 -297 -2 -601q2 -16 8 -36q4 -19 35 -15zM676 1694q8 -25 23.5 -32t33 -7t35.5 3t35 -1
q12 -2 24.5 1t24.5 5q-23 53 -55.5 68.5t-79.5 -0.5q-17 -7 -31 -15t-10 -22z" />
    <glyph glyph-name="G" unicode="G" horiz-adv-x="1165" 
d="M1030 995q49 0 66.5 -23.5t19.5 -64.5q0 -67 2 -154l4 -178.5l4 -180.5t4.5 -160.5t3.5 -119.5t3 -59q-4 -39 -45 -48t-101 -11q-69 -2 -104 20.5t-31 94.5l-56.5 -35.5t-45.5 -26.5q-146 -74 -285 -50t-238 146q-59 76 -97 163t-60.5 179.5t-29.5 187.5t-1 187
q8 142 22.5 252.5t41 203.5t69.5 176t109 169q37 39 86 65.5t102 42t109.5 21.5t109.5 4q96 -4 164 -34.5t113 -75t71.5 -97.5t40 -104t16.5 -94t3 -66q0 -27 -3 -50.5t-13.5 -44t-31 -33.5t-57.5 -17q-30 -4 -62 -9.5t-59.5 -1t-48 23.5t-28.5 67q-13 67 -50.5 102t-84 41
t-91.5 -13.5t-73 -58.5q-17 -24 -29 -61t-19.5 -78t-11.5 -81t-4 -67q-6 -178 -6 -358q0 -24 1 -60t5 -74t13.5 -75t25.5 -63q12 -23 32.5 -41.5t46.5 -30.5t57.5 -14t68.5 8q39 12 61.5 39.5t33.5 61.5t15.5 70t8.5 64q8 47 -23 61.5t-59 2.5q-66 -29 -91.5 -4.5
t-31.5 78.5q-4 47 -4 98v96q0 49 30.5 66.5t71.5 19.5q47 2 88 3t81 1t82 1t89 1zM778 1696q-4 2 -14 -4t-12 -11q-4 -41 18.5 -62.5t58.5 -37.5q-2 43 -12 70.5t-39 44.5zM209 866q-35 -102 -37 -213.5t22.5 -207t73.5 -165t115 -90.5q-78 68 -107.5 149t-38 169t-9.5 178
t-19 180z" />
    <glyph glyph-name="H" unicode="H" horiz-adv-x="1303" 
d="M1174 1796q36 0 55.5 -20.5t27 -49t8.5 -58.5t1 -48q0 -59 -2 -174t-5.5 -256l-7.5 -295t-7 -295t-4 -255t-1 -173q0 -29 -4 -59.5t-16.5 -56t-35 -42t-59.5 -16.5h-39.5t-68.5 -1t-71 -1h-42q-24 0 -37.5 16.5t-19.5 45t-6 66.5v79q-2 135 -2 267v265q2 47 -11.5 65.5
t-66.5 20.5q-121 4 -186.5 2t-95 -29.5t-34 -88t-4.5 -173.5q0 -43 1 -102t1 -120.5t1 -120t1 -103.5q2 -45 -17 -67.5t-73 -22.5h-66.5t-64.5 2q-43 0 -76.5 1t-56 12.5t-35 35t-12.5 68.5q-4 84 -5 231.5t-2 321.5t-1 354v329.5v247v107.5q0 45 21.5 64.5t65.5 25.5
t109.5 3t153.5 -3q29 -6 42 -23.5t18.5 -40t4.5 -46t-1 -44.5q-3 -108 -3 -217.5t5 -222.5q2 -49 15 -70.5t77 -19.5q112 2 172.5 7t88 31t32 81t4.5 158v274q0 18 1 40.5t9 43t27.5 35t56.5 14.5h240zM168 1386q-4 29 4 56.5l16.5 57.5t7.5 63.5t-24 72.5
q-27 -77 -21.5 -135.5t17.5 -114.5zM1114 207q2 24 -1 49t-40 29q-20 2 -29.5 -4.5t-12.5 -17.5t-3 -24.5t-4 -25.5q0 -8 -3 -18.5t-3 -19.5t7 -14t30 -5q24 2 41.5 13t17.5 38z" />
    <glyph glyph-name="I" unicode="I" horiz-adv-x="530" 
d="M469 1604v-173.5v-254t-1 -294t-1 -295t1 -255t3 -174.5q2 -78 -44 -121t-167 -49q-65 -4 -104 7t-60.5 32.5t-29 51.5t-7.5 64q-2 117 -6 276t-7 329t-5 338.5t-4 305t-3 227.5t1 107q2 25 17.5 39.5t38 20.5t49 7t53.5 3l78 4t76 -3t64.5 -21.5t43.5 -53.5
q10 -28 12 -59t2 -59zM242 932q6 98 13 195.5t7 194.5t-12 194.5t-43 193.5q-14 -98 -9 -195.5t15 -194.5l20.5 -193.5t8.5 -194.5z" />
    <glyph glyph-name="J" unicode="J" horiz-adv-x="1071" 
d="M997 1671q-2 -45 1 -142t7.5 -221t8.5 -263.5t5 -268.5t-2 -237.5t-11 -169.5q-25 -168 -134.5 -264.5t-304.5 -106.5q-112 -6 -193 8t-138.5 53t-93.5 103.5t-58 159.5q-23 96 -37 190t-18 193q-4 65 26.5 93.5t112.5 30.5q92 0 142 -2t74 -20.5t29 -61.5t9 -122
q0 -19 -1 -38.5t3 -37.5q4 -17 4 -37.5t5 -37.5t20.5 -28.5t52.5 -9.5q59 4 80.5 40t21.5 83q-2 172 -1 342t1 342q-2 109 -6 214.5t-6 213.5q0 60 22.5 87.5t59.5 36.5t83 8t89 1q84 -4 116.5 -32.5t30.5 -98.5zM739 1540q-12 -98 -7 -194.5t14.5 -193.5l18.5 -193.5
t7 -192.5q4 96 10 193.5t5 193.5t-11 193.5t-37 193.5zM481 248q45 -19 89 4.5t77 58.5q4 4 8 13.5t17 33.5q-29 -10 -45.5 -14t-28.5 -8q-23 -6 -42 -13.5t-42 -11.5q-20 -4 -37.5 -9t-26 -13t-2 -18.5t32.5 -22.5zM543 127q184 -14 266 82t49 289q2 -72 -21.5 -127.5
t-66.5 -99.5t-102.5 -78.5t-124.5 -65.5z" />
    <glyph glyph-name="K" unicode="K" horiz-adv-x="1192" 
d="M911 688q19 -35 45.5 -108.5l59.5 -160.5l67.5 -175t67.5 -156q16 -35 12 -53.5t-26.5 -25.5t-61.5 -9t-88 -4q-53 -2 -87 -2t-54.5 5t-31.5 15.5t-19 26.5q-23 43 -56.5 117.5l-70.5 156.5l-69 155t-50 110q-12 26 -43 62t-60 40h-2q-34 -4 -44.5 -26.5t-6.5 -63.5
q2 -31 4 -103.5t3 -152.5l2 -152.5t4 -103.5q0 -35 -6.5 -52.5t-14.5 -23.5t-16.5 -6h-10.5q-12 0 -56 -1t-93 -1h-93h-57q-16 0 -22 29.5t-6 52.5v121v201.5t1 254t1 277.5v271t1 237.5t2 174t1 81.5q2 37 6 63.5t45 36.5q29 6 81 10t102.5 0t89 -18t38.5 -43
q-4 -47 -6 -112.5t-3 -136.5l-2 -142.5t-1 -133v-105.5v-58q2 -25 7 -47.5t34 -24.5q37 -4 58.5 -3t36 9t27.5 27.5l36 54.5q41 96 83 207l76.5 207l58 162.5t30.5 76.5q6 13 14 27t19.5 26.5t24.5 17.5t30 -1q24 -10 65 -19.5t80 -22.5t67.5 -29.5t28.5 -38.5
q2 -19 -4 -34.5l-12 -31.5q-8 -18 -26.5 -71.5l-42 -124l-49 -148.5l-48.5 -143.5l-38 -111.5t-17 -50q-15 -25 -25 -58.5t-13 -71.5t2 -77t21 -76zM313 70q21 75 18 150t-26 151l-16 -77t-9 -76t6 -75t27 -73z" />
    <glyph glyph-name="L" unicode="L" horiz-adv-x="819" 
d="M520 338q109 4 163 0t74.5 -25.5t20.5 -65.5v-118q0 -72 -29.5 -101.5t-97.5 -29.5q-51 0 -109.5 -1t-117.5 -1h-115.5h-101.5q-94 0 -132 38t-32 132q0 55 -1 147.5t-2 205t-1 239.5t-1 252l-2 241.5t-1 208.5v152.5v73.5q-4 47 11 83.5t81 30.5q29 -2 81 4t102 2
t87 -25.5t37 -78.5v-140.5t-1 -222.5t-1 -263t-1 -263t-2 -222t-1 -140q0 -52 19.5 -83.5t72.5 -29.5zM297 508q22 76 18 150.5t-24 150.5l-16.5 -75t-9.5 -75.5t5 -75.5t27 -75zM215 1708l76 -32.5l80 -37.5q-29 66 -59.5 79.5t-96.5 -9.5z" />
    <glyph glyph-name="M" unicode="M" horiz-adv-x="1683" 
d="M1653 1667q-2 -387 -1 -768t1 -766q0 -35 -6.5 -71.5t-38.5 -47.5q-43 -12 -104.5 -15t-117 3t-95.5 21.5t-40 39.5q4 228 13.5 460.5t13.5 473.5q-6 -10 -26.5 -58l-49 -116.5l-62.5 -149.5l-65 -159l-57.5 -142.5t-38.5 -101.5q-2 -6 -9 -19t-23.5 -25.5t-43 -21.5
t-65.5 -9q-41 2 -74 19t-51 56q-19 33 -47.5 106l-64.5 170l-77 210.5t-86 224.5q-2 -33 -3 -97.5t-2 -146.5t-1 -173t-1 -176t-2 -158.5t-1 -120.5q4 -70 -20.5 -92.5t-83.5 -20.5q-68 2 -119 5t-87 20.5t-55.5 57.5t-19.5 118q-4 364 -1 708t1 711q0 24 -1 55t5 58.5
t21.5 47t48.5 19.5h146.5t112.5 -11t80.5 -39t51.5 -83q20 -66 49 -152l61.5 -179l65.5 -188l63.5 -181l56 -155t42.5 -110l67.5 177.5l73.5 202l74 203.5l67.5 185l54 143.5t36.5 80.5q14 32 25 53.5t23.5 33t27 15.5t36.5 4h223q50 0 74.5 -33.5t24.5 -95.5zM190 166
q31 4 29 19.5t-6 31.5q-61 254 -16 510q34 176 -9 350q-24 -221 -35.5 -437t-0.5 -437q2 -15 6 -28t32 -9z" />
    <glyph glyph-name="N" unicode="N" horiz-adv-x="1288" 
d="M1206 1782q37 -10 44 -47t7 -70q0 -387 -1 -768t1 -766q0 -131 -110 -131h-197q-24 0 -41.5 4t-31 15.5t-26.5 32t-30 54.5q-22 33 -66 132.5l-97.5 228.5l-112 267l-109.5 249q-2 -33 -3 -97.5t-2 -145.5t-2 -172l-2 -176t-2 -158.5t-1 -120.5q4 -72 -23.5 -94.5
t-93.5 -18.5q-76 2 -126 5t-80.5 20.5t-44 57.5t-13.5 118q-4 364 0 708t2 711q0 25 -1 55.5t5 58t23.5 47t54.5 19.5h156.5t108.5 -11t73 -40t49 -84l63.5 -177.5l75.5 -210l79 -216l72 -194.5t55.5 -145t29.5 -69q-2 121 -6 262.5t-8.5 286l-8.5 281.5t-6 250
q0 24 36 40.5t88 22.5t112.5 2t109.5 -16zM141 221q2 -43 7.5 -71.5t17.5 -47t31.5 -33t54.5 -30.5q-16 53 -42 97t-69 85zM520 1245q37 -110 81 -213.5t122 -193.5l-86 210.5l-88 208.5q-8 -4 -29 -12zM938 1720q27 -37 56.5 -44t60 -3t60.5 11.5t56 -5.5q-51 43 -109 49.5
t-124 -8.5z" />
    <glyph glyph-name="O" unicode="O" horiz-adv-x="1253" 
d="M907 1767q68 -32 109 -83.5t67.5 -113t42 -129l31.5 -132.5q47 -199 46 -396.5t-32 -396.5q-22 -145 -85.5 -255.5t-157.5 -179.5t-213 -89.5t-254 16.5q-101 27 -184.5 108t-129.5 193q-59 144 -88.5 296.5t-25.5 338.5q6 62 10 128.5t14.5 136t26.5 140t47 140.5
q49 119 140 194.5t200 109.5t223.5 26.5t212.5 -52.5zM856 1317q-31 53 -71 101t-111 89q14 -41 37.5 -68.5t48 -47t50.5 -37t46 -37.5zM590 1624q-53 8 -106.5 -7t-99.5 -47t-78 -78t-40 -95l157 110.5zM317 537q23 -117 73 -164t155 -49l-130.5 95t-97.5 118zM444 612
q21 -92 70 -144t123 -54q39 0 66.5 17.5t47 47t32 67.5t20.5 79q12 49 12 103t4 108q2 92 -7 178t-38 170q-29 78 -79 132t-115 52q-31 -2 -54.5 -21.5t-41 -49t-29 -65.5t-15.5 -73q-20 -135 -22 -273t26 -274zM684 223q70 2 119 17.5t83 45t55.5 76t33.5 111.5
q-23 -45 -53.5 -79t-68.5 -62.5t-81 -55z" />
    <glyph glyph-name="P" unicode="P" horiz-adv-x="1139" 
d="M643 1788q49 -10 100.5 -29.5t98.5 -49.5t86 -67.5t63 -85.5q45 -92 65.5 -212.5t10.5 -242.5t-55 -230.5t-129 -172.5q-29 -28 -82 -49.5t-114.5 -36t-120 -21.5t-95.5 -5q-53 4 -61.5 -19.5t-3.5 -72.5q-3 -93 -3 -175v-137.5t3 -99.5q0 -35 -6.5 -51.5t-13.5 -23.5
t-15.5 -7h-12.5h-299q-16 0 -22 28.5t-6 51.5v120v199.5t1 250.5t1 273.5v266.5t1 233.5t2 172t1 79.5q2 35 6 62.5t45 38.5q47 10 125 17t160 8t155.5 -2t114.5 -11zM692 1561q-20 47 -39.5 74.5t-45 39t-58.5 8t-80 -19.5l108.5 -49.5zM702 991q25 39 31 96.5t0 117
t-23.5 112.5t-43.5 88q-29 37 -74 66.5t-86 25.5q-43 -2 -64.5 -13t-31 -34t-10.5 -57.5t-3 -81.5q-2 -23 -3 -71t-3 -103.5t-2 -105.5v-73q0 -24 5 -46.5t36 -24.5q39 -4 77 -3t72.5 11t66.5 32.5t56 63.5z" />
    <glyph glyph-name="Q" unicode="Q" horiz-adv-x="1253" 
d="M1147 203q37 -35 40 -73t-40 -85q-45 -51 -80 -42t-68 40l-55 53q-96 -71 -219 -95t-264 15q-49 13 -98.5 39.5t-93.5 64.5t-79.5 86t-58.5 103q-59 142 -80.5 294.5t-17.5 332.5q8 121 23.5 259t74.5 278q51 116 142.5 190t200 107.5t223 27.5t212.5 -51q68 -31 110 -82
t69.5 -111.5t43 -128l31.5 -131.5q47 -192 45 -387.5t-32 -390.5q-21 -141 -89 -256l34.5 -32.5zM397 842q-10 -99 -3 -178.5t29.5 -136t61.5 -86t97 -27.5q47 -4 85 13t66 42q39 35 60.5 84t37.5 98q17 58 18 119t5 121q0 98 -6 181t-33 142.5t-83 90t-159 26.5
q-47 0 -73.5 -29.5t-43 -73.5t-25.5 -93.5l-17 -90.5q-11 -51 -12 -100t-5 -102zM592 1606q-53 8 -107.5 -6.5t-100.5 -47t-78 -76.5t-40 -94zM283 272q63 -125 143 -158.5t207 1.5q-49 0 -93 14t-86 35.5t-84 49.5zM858 1303q-29 53 -69.5 100t-112.5 88q14 -41 36.5 -67.5
t48 -47t51.5 -37t46 -36.5z" />
    <glyph glyph-name="R" unicode="R" horiz-adv-x="1169" 
d="M846 641l48 -90l63.5 -122l68.5 -138.5l68 -138.5q34 -70 13.5 -109t-122.5 -43q-53 -4 -91 6t-65.5 29.5t-46 46.5t-32.5 57l-47.5 92.5l-50 98.5l-48 95l-41.5 83q-12 27 -29.5 48.5t-46.5 25.5q-4 2 -5 2t-5 2h-8q-53 4 -66.5 -19.5t-9.5 -72.5q2 -31 3 -87.5l2 -118
l2 -118.5t3 -88q0 -35 -6 -51.5t-13 -23.5t-15.5 -7h-12.5h-297q-18 0 -23 28.5t-5 51.5v120v199.5v250.5t1 273.5t1 266.5t1 233.5t1 172t2 79.5v34t4 28.5t14.5 24t30.5 14.5q47 10 117.5 17t143.5 8t139.5 -2t105.5 -11q98 -23 180 -58.5t143 -123.5q62 -86 95.5 -199
t29.5 -234.5t-55 -241.5t-162 -218q-10 -23 2.5 -41.5zM692 1561q-20 47 -40.5 74.5t-46 39t-58.5 8t-80 -19.5l108.5 -49.5zM700 991q25 39 31 96.5t0 117t-23.5 112.5t-43.5 88q-29 37 -73 66.5t-85 25.5q-43 -2 -65.5 -13t-32 -34t-10.5 -57.5t-3 -81.5q0 -23 -2 -71
t-4 -103.5t-2 -105.5v-73q0 -24 6 -46.5t35 -24.5q39 -4 77 -3t72.5 11t66.5 32.5t56 63.5z" />
    <glyph glyph-name="S" unicode="S" horiz-adv-x="1174" 
d="M788 1047q138 -46 214.5 -125.5t108.5 -175t25.5 -196.5t-32.5 -188q-31 -102 -77 -168.5t-103.5 -108.5t-126 -62.5t-146.5 -28.5q-86 -10 -176 2t-173 56t-149.5 127t-105.5 218q-12 45 -12 79t16.5 63.5t50 57.5t86.5 58q37 19 67 20t55.5 -10.5t48 -33t44.5 -47.5
q23 -23 37.5 -53.5t32.5 -55.5q23 -31 60.5 -50t77.5 -24.5t77 4t62 33.5q32 33 25 71t-40 64q-28 23 -62 43.5t-69 30.5q-108 47 -204.5 113.5t-176.5 159.5q-76 86 -98.5 208.5t0 244.5t87 225.5t167.5 152.5q65 31 135 53.5t139 14.5q90 0 172 -43t143.5 -113t95.5 -160
t28 -184q-5 -39 -15 -62.5t-51 -31.5l-51.5 -10.5t-47 -6.5t-53 -2t-67.5 2q-19 2 -37 17.5t-29 38.5q-10 22 -21 42.5t-28 36.5q-28 29 -66 39.5t-67 -24.5q-10 -12 -14 -35t-2 -47.5t9 -47t17 -34.5q47 -53 100.5 -89t118.5 -58zM195 520q-5 -41 16.5 -62.5t60.5 -39.5
q-2 45 -12 72.5t-39 44.5q-4 2 -15 -4.5t-11 -10.5zM446 881q39 -54 92.5 -81.5t110 -50t111.5 -47t100 -71.5q-31 74 -81 108.5t-107.5 55t-116.5 36t-109 50.5zM756 889l61 -45.5t58.5 -50t52 -63.5t45.5 -83q-6 107 -59.5 164t-157.5 78z" />
    <glyph glyph-name="T" unicode="T" horiz-adv-x="1292" 
d="M1251 1722q-2 -30 2 -70t4 -80t-9 -76t-38 -54q-45 -31 -111.5 -36t-115.5 1q-37 4 -58.5 -11.5t-33.5 -43t-15.5 -62.5t-3.5 -69q2 -140 2 -263.5v-244.5v-245t3 -263q0 -64 -17.5 -110t-73.5 -70q-63 -27 -128.5 -28t-131.5 21q-16 7 -23 20t-9 29.5t-1 34t1 33.5
v456.5t-2 455.5q0 28 -1.5 50.5t-4.5 42t-6 42t-5 51.5q-6 63 -12 99t-22.5 51.5t-51.5 17.5t-96 0q-17 0 -31 -1t-31 -1q-65 -4 -112 25.5t-70.5 78.5t-23.5 112.5t28 129.5q17 37 43.5 45t57.5 8q252 2 499.5 3t497.5 3q41 0 71.5 -15t28.5 -67zM147 1663
q76 -29 134.5 -17.5t111.5 35.5q-28 2 -57 7.5t-58.5 6.5t-62.5 -6.5t-68 -25.5zM741 317q21 76 18 151t-26 150l-16 -76t-9 -76t6 -75t27 -74z" />
    <glyph glyph-name="U" unicode="U" horiz-adv-x="1208" 
d="M891 1800q94 0 144 -2t75 -16.5t32 -46t13 -88.5q4 -56 7 -148t5 -200.5t3 -223t1 -216t-2 -180.5t-6 -116q-8 -100 -37.5 -195.5t-86 -172t-141.5 -129t-204 -66.5q-80 -8 -161.5 2t-154.5 41t-132.5 83t-95.5 128q-64 137 -83.5 279.5t-25.5 289.5q-8 205 -3 418t3 418
q0 55 21.5 82.5t56.5 39t76 13.5t81 6q189 19 189 -145q0 -105 1 -227.5l2 -248.5l2 -249t1 -228q0 -63 8 -128.5t45 -118.5q19 -27 53.5 -38t75.5 -1q35 8 60.5 28.5t29.5 49.5q5 20 8 59t4 83t3 84t2 60q4 113 5 233t0 232.5t-2 211.5t-1 173q0 27 3 56.5t15.5 54t38 42
t72.5 17.5zM268 324q64 -123 144 -158t206 0q-49 2 -93 15.5t-86 35t-84 49z" />
    <glyph glyph-name="V" unicode="V" horiz-adv-x="1260" 
d="M1186 1782q33 -10 33 -47t-7 -70l-148 -768l-146 -766q-23 -131 -136 -131h-319q-25 0 -41 4t-27.5 15.5t-19.5 32t-19 54.5q-8 17 -26.5 92.5t-42 189.5l-51 253l-54.5 281l-141 747q-10 55 17.5 93t99.5 38h145t82 -11t40 -40t21 -84l29.5 -177.5l34.5 -210l36.5 -216
l34 -194.5t28 -145t16.5 -69q22 121 44.5 262.5l46 286l46 281.5t43.5 250q4 24 47 40.5t101.5 22.5t122 2t110.5 -16zM268 1645q-6 -43 2.5 -77t21.5 -63.5t28.5 -56.5t23.5 -55q-2 61 -16.5 121.5t-59.5 130.5z" />
    <glyph glyph-name="W" unicode="W" horiz-adv-x="2052" 
d="M1978 1782q35 -10 35 -47t-6 -70l-148.5 -768l-146.5 -766q-24 -131 -135 -131h-320q-24 0 -40.5 4t-27.5 15.5t-20.5 32t-19.5 54.5q-6 13 -18.5 64t-29 128l-37 175t-40.5 207l-53.5 -274.5t-50.5 -274.5q-25 -131 -138 -131h-317q-25 0 -41 4t-28.5 15.5t-20.5 32
t-19 54.5q-8 17 -25.5 92.5t-41 189.5l-52 253l-55.5 281l-141 747q-10 55 17.5 93t99.5 38h145t82 -11t40 -40t21 -84l30.5 -177.5l35.5 -210l36.5 -216l34 -194.5t27 -145t17.5 -69l43.5 262.5l46 286l45 281.5t43.5 250q4 16 21.5 27.5t45.5 21.5q31 18 78 18
q113 0 168.5 -1t79.5 -23q12 -9 14 -17q19 -30 27 -94q12 -76 29.5 -177.5l36 -210l37 -216l34 -194.5t27.5 -145t16 -69q23 121 45.5 262.5l46 286l45 281.5t41.5 250q5 24 48 40.5t101 22.5t121.5 2t110.5 -16zM135 1681q17 -114 40.5 -223.5t82.5 -212.5l-46 222.5
l-46 222.5q-8 -2 -15.5 -4.5t-15.5 -4.5zM1151 1493q12 59 0 105.5t-41 95.5q-10 -60 -4 -106t45 -95z" />
    <glyph glyph-name="X" unicode="X" horiz-adv-x="1464" 
d="M1083 1804q119 0 162 -19.5t40 -59t-33.5 -98t-55.5 -136.5l-60.5 -177t-61.5 -164l-66.5 -164l-75.5 -179l94 -186.5l101.5 -196.5l96.5 -188.5l81 -159.5q28 -51 16 -63.5t-57 -12.5q-27 0 -67 -1t-80 -1h-71.5h-37.5q-43 8 -61.5 30.5t-45.5 75.5q-8 15 -26.5 61
l-40 101.5l-44 109.5l-36.5 85q-13 -29 -40.5 -83l-56 -112.5l-54 -112t-38.5 -77.5q-16 -51 -51 -63.5t-104 -12.5q-82 0 -130.5 -2t-68.5 0q-57 8 -60.5 30.5t19.5 75.5l54 130.5l78 185l94 228.5l106 257l-118 224.5l-117.5 217l-104.5 186.5t-78 130q-41 68 -35 105.5
t80 35.5q90 -2 147.5 -3t94.5 -8t59.5 -25.5t43 -52.5t47 -90t69.5 -138q6 -10 22.5 -41l36 -67l36.5 -66.5t24 -40.5l34.5 99.5l40 115.5l35 105t21.5 71q16 68 71.5 104.5t171.5 36.5zM281 106q32 5 35 17l6 24q16 109 58 215.5t114 215.5q96 147 118 292
q-104 -184 -195 -365t-159 -368q-4 -10 -5 -22.5t28 -8.5zM625 254q6 10 6 22.5t4 24.5q-86 -22 -121 -54t-31 -81q2 -14 8.5 -29.5t30.5 -9.5q39 8 55.5 22.5t23.5 32t10 37t14 35.5z" />
    <glyph glyph-name="Y" unicode="Y" horiz-adv-x="1336" 
d="M1083 1804q119 0 162 -19.5t40 -59t-33.5 -98t-55.5 -136.5l-60.5 -177t-61.5 -164l-66.5 -164l-75.5 -179l-178 -346q-13 -29 -40.5 -83l-56 -112.5l-54 -112t-38.5 -77.5q-16 -51 -51 -63.5t-104 -12.5q-82 0 -130.5 -2t-68.5 0q-57 8 -60.5 30.5t19.5 75.5l54 130.5
l78 185l94 228.5l106 257l-118 224.5l-117.5 217l-104.5 186.5t-78 130q-41 68 -35 105.5t80 35.5q90 -2 147.5 -3t94.5 -8t59.5 -25.5t43 -52.5t47 -90t69.5 -138q6 -10 22.5 -41l36 -67l36.5 -66.5t24 -40.5l34.5 99.5l40 115.5l35 105t21.5 71q16 68 71.5 104.5
t171.5 36.5zM469 55q32 5 35 17l6 24q16 109 58 215.5t114 215.5q96 147 118 292q-104 -184 -195 -365t-159 -368q-4 -10 -5 -22.5t28 -8.5zM131 1767q-17 0 -26 -2.5t-13 -7t-5.5 -10.5t-3.5 -11q15 5 28 12t20 19z" />
    <glyph glyph-name="Z" unicode="Z" horiz-adv-x="1020" 
d="M915 1800q23 0 37.5 -12t22.5 -32.5t10 -46.5t0 -50q0 -25 -25.5 -104.5t-66.5 -192.5l-92 -249l-104.5 -274.5l-103.5 -267.5l-89 -229h172q108 4 162.5 0t75 -25.5t20.5 -65.5v-118q-2 -72 -31 -101.5t-96 -31.5h-438q-13 -2 -28 -2h-38l-4 2h-82h-35h-6h-4
q-33 0 -51 6q-47 10 -66.5 44t2.5 120v2q0 4 19.5 58.5l51.5 140.5l73 193.5l83 220l83 221l73.5 194.5l53 140.5t22.5 60.5q8 35 -2 52t-28.5 25.5t-40 8.5h-31.5q-11 2 -31.5 1t-30.5 -1q-71 2 -117.5 4t-74 21.5t-37.5 64.5t-10 135v12q4 74 67 74q74 0 169 1t195.5 1
h198h172.5zM178 1665l80 38l76 34q-66 22 -96.5 8t-59.5 -80zM342 264q55 66 63.5 140.5t6.5 152.5q-35 -68 -54.5 -141.5t-15.5 -151.5z" />
    <glyph glyph-name="bracketleft" unicode="[" horiz-adv-x="969" 
d="M37 -72q2 52 3 161.5t2 254.5t2 317.5t0 348.5t-1 347t-2 316q-12 53 0 113q-12 8 2 16v2q-10 2 -9 4t11 4q6 27 18 56q17 37 43.5 45t57.5 8q84 0 140 1t100.5 1t81 1t79.5 1t99.5 1t140.5 1q41 0 71.5 -15.5t28.5 -66.5q-2 -30 2 -70t4 -80t-9 -76t-38 -54
q-22 -17 -64 -25t-88 -11t-89 -3t-68 4q-37 4 -58.5 -11.5t-33.5 -43t-15.5 -62.5t-3.5 -70q2 -98 2 -229v-267v-263v-213q7 -47 14 -73t25.5 -37t51 -12t88.5 1q16 0 30.5 1t30.5 1q66 2 113 -26.5t70.5 -78t23.5 -113t-29 -128.5q-16 -37 -42.5 -45t-57.5 -8
q-84 0 -139.5 -1.5t-97.5 -1.5t-76.5 -1t-76.5 -1t-98.5 -1t-138.5 -1q-20 0 -39.5 3.5t-33 12.5t-21.5 24.5t-6 41.5zM770 -12q-76 28 -134 17t-112 -36l57.5 -8t58.5 -5t62.5 6t67.5 26z" />
    <glyph glyph-name="backslash" unicode="\" horiz-adv-x="907" 
d="M811 356q14 -41 24.5 -83t8.5 -79.5t-21.5 -67.5t-68.5 -44l-51.5 -16.5t-49 -10.5t-42 5.5t-29.5 29.5q-7 14 -38.5 100l-77.5 215.5l-101.5 288l-111.5 319.5l-108.5 310.5l-89.5 259.5q-10 33 -14 63.5t8 58.5t46 51.5t95 41.5q17 4 32.5 5t30.5 -6t30.5 -26.5
t27.5 -56.5q19 -57 58 -165.5l88 -240.5l102 -275.5l102.5 -275.5l89.5 -238.5zM408 907q36 -90 60 -184l47.5 -189.5t52 -187.5t77.5 -180q-4 100 -26.5 195.5t-56.5 187.5t-75 180t-79 178z" />
    <glyph glyph-name="bracketright" unicode="]" horiz-adv-x="969" 
d="M932 -72q2 -53 -29 -67.5t-72 -14.5q-83 0 -138.5 1t-97.5 1t-77 1t-77 1t-97 1.5t-139 1.5q-31 0 -57.5 8t-43.5 45q-28 65 -28 128.5t23.5 113t70.5 78t113 26.5q16 0 30.5 -1t30.5 -1q55 -2 88 -1t51.5 12t25.5 37t13 73v213v263v267t2 229q0 35 -3 70t-15 62.5
t-33.5 43t-58.5 11.5q-25 -4 -68 -4t-89 3t-88 11t-65 25q-28 18 -37.5 54t-9.5 76t4.5 80t1.5 70q-4 51 28 66.5t73 15.5q82 0 139 -1t100 -1t80 -1t81 -1t100.5 -1t140.5 -1q31 0 57.5 -8t42.5 -45q13 -29 19 -56q10 -2 11 -4t-9 -4v-2q14 -8 2 -16q12 -60 0 -113
q-2 -145 -2 -316t-1 -347t0 -348.5t2 -317.5t2 -254.5t3 -161.5zM199 -12q34 -19 67 -26t62.5 -6t58.5 5l57 8q-53 25 -111.5 36t-133.5 -17z" />
    <glyph glyph-name="asciicircum" unicode="^" horiz-adv-x="1314" 
d="M391 835q-25 -35 -53.5 -68.5t-60.5 -54t-67.5 -20.5t-76.5 31l-43.5 32.5t-38 34t-19.5 37t8 41.5q25 41 145 220l324 464q27 37 59 61.5t79 16.5q47 8 78.5 -16.5t58.5 -61.5q207 -285 325.5 -464t143.5 -220q12 -22 8 -41.5t-19.5 -37t-37 -34l-43.5 -32.5
q-39 -31 -76 -31t-68.5 20.5t-60.5 54t-53 68.5q-72 107 -131.5 208.5l-124.5 205.5l-125.5 -205.5t-130.5 -208.5zM342 1153q-23 -39 -50.5 -74l-55.5 -69.5t-53.5 -70.5t-43.5 -79q69 59 114.5 136zM1064 886q39 -53 58.5 -59t56.5 23q-29 22 -55.5 32.5t-59.5 3.5z" />
    <glyph glyph-name="underscore" unicode="_" horiz-adv-x="1296" 
d="M1262 -131q0 -78 -2.5 -114t-15.5 -48t-44 -9t-90 3q-55 0 -141 1t-186.5 2l-207 2t-204 3t-177 4t-126.5 4q-25 -2 -31 9.5t-6 35.5v38.5v47v41v21.5q4 22 14 26.5t37 2.5q29 0 113 -1t196.5 -3.5t239.5 -3.5t240.5 -1t201.5 1t121 6q68 10 68 -68zM82 -131
q4 -19 15.5 -17.5t21.5 5.5q31 6 90 10t133 6t152.5 3t152.5 0t132.5 -4t90.5 -7q125 -19 258 4q-53 4 -135 8t-177 7t-196.5 5t-196.5 3.5t-177 1.5t-135 -3l-22 -4t-7 -18zM1157 -205q-4 12 -11 16.5t-16.5 4.5t-17.5 -2t-16 0q-6 2 -12.5 0t-10.5 -2q4 -11 -13.5 -18
t-39 -12t-37.5 -8t-10 -4t42 0t122 5q8 0 15 6t5 14z" />
    <glyph glyph-name="grave" unicode="`" horiz-adv-x="543" 
d="M94 2148q47 47 88 38t86 -50q37 -43 70 -86t96 -78q21 -12 11.5 -24.5t-37 -22.5t-70.5 -14t-88 1t-89 19.5t-75 44.5q-47 47 -41 89t49 83zM166 2136q-4 0 -11.5 -10t-2.5 -15q24 -51 108 -59q-12 37 -32.5 59.5t-61.5 24.5z" />
    <glyph glyph-name="a" unicode="a" horiz-adv-x="1292" 
d="M905 1651l167 -753l173 -753q6 -22 11.5 -44.5t2 -43t-19.5 -36t-57 -21.5q-35 -4 -80 -5t-88 7t-77 29.5t-44 62.5l-12 51.5t-9 51.5q-10 90 -60 134t-155 48q-73 2 -120.5 -11.5t-75 -41t-39.5 -67.5t-19 -91q-10 -72 -25.5 -106.5t-40 -48t-59 -13.5t-79.5 -2
q-41 -2 -73 4t-51.5 23.5t-26.5 45t1 68.5q17 92 46.5 228.5l65.5 290l73.5 310l70.5 291l57.5 231.5l32.5 130q17 66 24 102.5t25.5 54t58.5 19.5t124 0h27.5h37t35.5 -1t25 -1q47 -2 73.5 -7t41 -20.5t21.5 -43t17 -72.5zM467 948q-6 131 51 271q37 100 35 186
q-41 -121 -72.5 -237.5t-50.5 -233.5q0 -8 1 -14.5t18 -1.5q18 6 19 14t-1 16zM643 621q21 0 43.5 1t39.5 9t25.5 25.5t0.5 48.5q-13 49 -23 121.5t-21.5 140t-25.5 115.5t-35 48q-16 0 -31.5 -48t-29 -115.5t-25.5 -141t-24 -125.5q-9 -34 1.5 -51.5t29 -24t39 -5t36.5 1.5
zM1094 342l4 -77t10 -74.5t24.5 -71.5t45.5 -66q2 78 -20.5 150.5t-63.5 138.5z" />
    <glyph glyph-name="b" unicode="b" horiz-adv-x="1153" 
d="M1006 1145l-18 -79t-6 -55.5t13.5 -53t42.5 -72.5q43 -66 63.5 -158t21.5 -191.5t-16 -193.5t-50 -164q-35 -78 -112 -128t-175 -54q-80 0 -148.5 -1t-133 -1h-131t-142.5 2q-158 2 -164 145q-4 68 -7 191t-5 272.5t-3 310t-1 306t1 260t3 172.5q2 108 111 119
q57 4 106 10t97 10t97.5 5t104.5 -1q281 -16 399.5 -181t59.5 -446l-4 -12zM825 1487q-20 47 -40.5 75.5t-46 40t-58.5 7.5t-80 -21l108.5 -48.5zM393 1110q43 -10 84 -14q35 -4 75 -1t73 19q34 19 55.5 49.5t28 65.5t-4 70.5t-36.5 64.5q-25 25 -71 31t-91 2
q-53 -4 -113 -17v-270zM692 119q66 -10 123 12.5t96 66.5t55.5 103t0.5 125q-4 -86 -33 -131t-70 -71.5t-87 -47t-85 -57.5zM702 600q-30 29 -67 43t-78 15t-83 -11t-81 -37v-141q0 -55 -1 -105.5t1 -66.5q99 -14 174.5 -6t134.5 67q21 21 33.5 52.5t12.5 66.5t-10.5 68
t-35.5 55z" />
    <glyph glyph-name="c" unicode="c" horiz-adv-x="1262" 
d="M664 -29q-84 -4 -144.5 7.5t-100.5 26.5t-63.5 32.5t-36.5 25.5q-69 43 -124.5 134.5t-92 213t-54 263t-12.5 284t34.5 274.5t89.5 234q108 189 238 279t261.5 91t254 -84t219.5 -245q30 -49 43.5 -104t23.5 -113q8 -33 4 -68.5t-45 -45.5q-18 -5 -57 -11t-81 -6
t-75 10.5t-39 40.5q-18 78 -67 126t-113.5 63.5t-134.5 -2t-127 -70.5q-35 -33 -56.5 -101.5t-34 -156.5t-11 -184.5t11.5 -183.5t32.5 -154.5t57.5 -97.5q33 -48 75 -73.5t87 -31.5t89 6t83 41q47 35 75.5 94.5t26.5 114.5q0 43 22.5 57.5t57.5 22.5q6 2 33.5 10t61.5 9
t69 -12t55 -56q12 -29 13 -79t-8 -105.5t-27.5 -105.5t-44.5 -77q-93 -129 -214.5 -204.5t-254.5 -88.5zM193 1096q-11 -82 -19 -164t-5 -162t23.5 -156.5t69.5 -150.5q-39 155 -56.5 313t-12.5 320zM659 1513q91 -4 166.5 -36.5t143.5 -90.5q-27 60 -63 99t-77 55t-85 10
t-85 -37zM319 1468q-51 -43 -78.5 -97t-33.5 -128q10 6 16 7t8 5z" />
    <glyph glyph-name="d" unicode="d" horiz-adv-x="1174" 
d="M678 1786q51 -10 105.5 -30.5t103.5 -49.5t91 -68t66 -86q33 -61 53.5 -180t29 -264t0 -303t-31 -298t-63.5 -247.5t-100 -150.5q-31 -27 -87.5 -47.5t-119.5 -35t-124.5 -22.5t-104.5 -8h-396q-41 0 -55 29.5t-14 52.5v120v199.5t1 249.5t1 272.5t1 267.5t1 233.5t1 171
t3 79.5q2 37 5 63.5t48 37.5q49 10 131 17t169 9t165 -1t121 -11zM578 1679q-43 4 -109 -20l108.5 -49.5l114.5 -53.5q-2 5 -4 11t-4 10q10 -4 22.5 -10t24.5 -11q-33 72 -66.5 99.5t-86.5 23.5zM502 287q35 0 67.5 6t63.5 29.5t58.5 65.5t49.5 114q25 80 32 190.5t1 225
t-25.5 218t-46.5 171.5q-16 36 -36.5 71t-42 61.5t-45 41t-43.5 12.5h-11q-4 0 -9 1t-9 -1q-43 -4 -64.5 -27.5t-31 -69.5t-10.5 -115t-3 -165q0 -29 -2 -81t-3 -117.5l-2 -137t-1 -138.5v-121v-85q0 -24 1 -49t4 -45t11.5 -33.5t24.5 -15.5q33 -6 72 -6zM637 102
q180 -6 259 89.5t46 281.5q2 -51 -8 -94t-39 -78q-6 -6 -19.5 -40t-47 -71.5t-94 -65.5t-159.5 -22q33 -2 62 0z" />
    <glyph glyph-name="e" unicode="e" horiz-adv-x="948" 
d="M825 358q52 0 70 -23.5t20 -78.5q0 -102 -8 -156.5t-37.5 -77t-87 -24.5t-155.5 -2q-41 2 -103.5 1t-130 -1t-130 -1t-103.5 1q-37 0 -58.5 8t-34 26.5t-18.5 49.5t-12 78q-2 8 -2 71.5v163v224t1 257t1 262.5t1 237.5t0 182t-1 99.5q0 24 2 50t9 46.5t21.5 33.5t36.5 13
q76 0 173.5 -1t199 -1t196.5 -1t167 -1q63 0 67 -74q2 -4 2 -12q-2 -119 -7 -181.5t-24.5 -92t-59.5 -33.5t-111 -6h-111q-72 -2 -114 -4t-62.5 -20.5t-24.5 -62.5t0 -132q6 -29 21.5 -38.5t38.5 -9.5q43 -2 86 -2t84 -2q80 -2 105.5 -32.5t23.5 -112.5q0 -39 -2 -78
t-14.5 -69.5t-41 -49t-82.5 -14.5q-84 4 -128 5t-62 -17.5t-20.5 -64.5t0.5 -138q2 -47 1 -83t6 -60.5t25.5 -37t59.5 -12.5q86 -2 166.5 -3t160.5 1zM715 1583q2 -8 -1 -18.5t-3 -19.5t6 -14t28 -5q27 0 43.5 12t18.5 39q2 25 -2 49.5t-39 28.5q-23 2 -31 -4t-11 -17.5
t-4 -25t-5 -25.5z" />
    <glyph glyph-name="f" unicode="f" horiz-adv-x="932" 
d="M840 1794q63 0 67 -74v-12q-2 -119 -7 -181.5t-24.5 -92t-59.5 -33.5t-111 -6h-109q-74 -2 -116 -4t-62.5 -20.5t-24.5 -62.5t0 -132q8 -29 22.5 -38.5t37.5 -9.5q43 -2 86 -1t86 -3q37 -2 62.5 -9t39.5 -23.5t20.5 -43t6.5 -69.5q-4 -35 -6.5 -72t-13.5 -67.5t-37.5 -51
t-82.5 -20.5q-67 4 -108 6t-64.5 -6t-32 -30.5t-8.5 -67.5v-502q0 -66 -7 -101.5t-25.5 -51t-52 -17.5t-89.5 -2q-41 2 -42 1t6.5 -1t6.5 -1t-42 1q-37 0 -60.5 2t-37 13.5t-18.5 36t-7 71.5v72.5t1 167t1 231.5v265t1 268t1 243t-1 187.5t-1 101.5q-2 24 0 50t10 46.5
t22.5 33.5t36.5 13q76 0 173.5 -1t197.5 -1t195.5 -1t169.5 -1zM125 55q35 6 33 29l-8 41q-35 174 -39 348q-7 174 22 352q17 119 14 240q-2 119 -24 238q-27 -302 -39 -596q-14 -297 -2 -601q2 -16 8 -36q4 -19 35 -15zM676 1694q8 -25 23.5 -32t33 -7t35.5 3t35 -1
q12 -2 24.5 1t24.5 5q-23 53 -55.5 68.5t-79.5 -0.5q-17 -7 -31 -15t-10 -22z" />
    <glyph glyph-name="g" unicode="g" horiz-adv-x="1165" 
d="M1030 995q49 0 66.5 -23.5t19.5 -64.5q0 -67 2 -154l4 -178.5l4 -180.5t4.5 -160.5t3.5 -119.5t3 -59q-4 -39 -45 -48t-101 -11q-69 -2 -104 20.5t-31 94.5l-56.5 -35.5t-45.5 -26.5q-146 -74 -285 -50t-238 146q-59 76 -97 163t-60.5 179.5t-29.5 187.5t-1 187
q8 142 22.5 252.5t41 203.5t69.5 176t109 169q37 39 86 65.5t102 42t109.5 21.5t109.5 4q96 -4 164 -34.5t113 -75t71.5 -97.5t40 -104t16.5 -94t3 -66q0 -27 -3 -50.5t-13.5 -44t-31 -33.5t-57.5 -17q-30 -4 -62 -9.5t-59.5 -1t-48 23.5t-28.5 67q-13 67 -50.5 102t-84 41
t-91.5 -13.5t-73 -58.5q-17 -24 -29 -61t-19.5 -78t-11.5 -81t-4 -67q-6 -178 -6 -358q0 -24 1 -60t5 -74t13.5 -75t25.5 -63q12 -23 32.5 -41.5t46.5 -30.5t57.5 -14t68.5 8q39 12 61.5 39.5t33.5 61.5t15.5 70t8.5 64q8 47 -23 61.5t-59 2.5q-66 -29 -91.5 -4.5
t-31.5 78.5q-4 47 -4 98v96q0 49 30.5 66.5t71.5 19.5q47 2 88 3t81 1t82 1t89 1zM778 1696q-4 2 -14 -4t-12 -11q-4 -41 18.5 -62.5t58.5 -37.5q-2 43 -12 70.5t-39 44.5zM209 866q-35 -102 -37 -213.5t22.5 -207t73.5 -165t115 -90.5q-78 68 -107.5 149t-38 169t-9.5 178
t-19 180z" />
    <glyph glyph-name="h" unicode="h" horiz-adv-x="1303" 
d="M1174 1796q36 0 55.5 -20.5t27 -49t8.5 -58.5t1 -48q0 -59 -2 -174t-5.5 -256l-7.5 -295t-7 -295t-4 -255t-1 -173q0 -29 -4 -59.5t-16.5 -56t-35 -42t-59.5 -16.5h-39.5t-68.5 -1t-71 -1h-42q-24 0 -37.5 16.5t-19.5 45t-6 66.5v79q-2 135 -2 267v265q2 47 -11.5 65.5
t-66.5 20.5q-121 4 -186.5 2t-95 -29.5t-34 -88t-4.5 -173.5q0 -43 1 -102t1 -120.5t1 -120t1 -103.5q2 -45 -17 -67.5t-73 -22.5h-66.5t-64.5 2q-43 0 -76.5 1t-56 12.5t-35 35t-12.5 68.5q-4 84 -5 231.5t-2 321.5t-1 354v329.5v247v107.5q0 45 21.5 64.5t65.5 25.5
t109.5 3t153.5 -3q29 -6 42 -23.5t18.5 -40t4.5 -46t-1 -44.5q-3 -108 -3 -217.5t5 -222.5q2 -49 15 -70.5t77 -19.5q112 2 172.5 7t88 31t32 81t4.5 158v274q0 18 1 40.5t9 43t27.5 35t56.5 14.5h240zM168 1386q-4 29 4 56.5l16.5 57.5t7.5 63.5t-24 72.5
q-27 -77 -21.5 -135.5t17.5 -114.5zM1114 207q2 24 -1 49t-40 29q-20 2 -29.5 -4.5t-12.5 -17.5t-3 -24.5t-4 -25.5q0 -8 -3 -18.5t-3 -19.5t7 -14t30 -5q24 2 41.5 13t17.5 38z" />
    <glyph glyph-name="i" unicode="i" horiz-adv-x="530" 
d="M469 1604v-173.5v-254t-1 -294t-1 -295t1 -255t3 -174.5q2 -78 -44 -121t-167 -49q-65 -4 -104 7t-60.5 32.5t-29 51.5t-7.5 64q-2 117 -6 276t-7 329t-5 338.5t-4 305t-3 227.5t1 107q2 25 17.5 39.5t38 20.5t49 7t53.5 3l78 4t76 -3t64.5 -21.5t43.5 -53.5
q10 -28 12 -59t2 -59zM242 932q6 98 13 195.5t7 194.5t-12 194.5t-43 193.5q-14 -98 -9 -195.5t15 -194.5l20.5 -193.5t8.5 -194.5z" />
    <glyph glyph-name="j" unicode="j" horiz-adv-x="1071" 
d="M997 1671q-2 -45 1 -142t7.5 -221t8.5 -263.5t5 -268.5t-2 -237.5t-11 -169.5q-25 -168 -134.5 -264.5t-304.5 -106.5q-112 -6 -193 8t-138.5 53t-93.5 103.5t-58 159.5q-23 96 -37 190t-18 193q-4 65 26.5 93.5t112.5 30.5q92 0 142 -2t74 -20.5t29 -61.5t9 -122
q0 -19 -1 -38.5t3 -37.5q4 -17 4 -37.5t5 -37.5t20.5 -28.5t52.5 -9.5q59 4 80.5 40t21.5 83q-2 172 -1 342t1 342q-2 109 -6 214.5t-6 213.5q0 60 22.5 87.5t59.5 36.5t83 8t89 1q84 -4 116.5 -32.5t30.5 -98.5zM739 1540q-12 -98 -7 -194.5t14.5 -193.5l18.5 -193.5
t7 -192.5q4 96 10 193.5t5 193.5t-11 193.5t-37 193.5zM481 248q45 -19 89 4.5t77 58.5q4 4 8 13.5t17 33.5q-29 -10 -45.5 -14t-28.5 -8q-23 -6 -42 -13.5t-42 -11.5q-20 -4 -37.5 -9t-26 -13t-2 -18.5t32.5 -22.5zM543 127q184 -14 266 82t49 289q2 -72 -21.5 -127.5
t-66.5 -99.5t-102.5 -78.5t-124.5 -65.5z" />
    <glyph glyph-name="k" unicode="k" horiz-adv-x="1192" 
d="M911 688q19 -35 45.5 -108.5l59.5 -160.5l67.5 -175t67.5 -156q16 -35 12 -53.5t-26.5 -25.5t-61.5 -9t-88 -4q-53 -2 -87 -2t-54.5 5t-31.5 15.5t-19 26.5q-23 43 -56.5 117.5l-70.5 156.5l-69 155t-50 110q-12 26 -43 62t-60 40h-2q-34 -4 -44.5 -26.5t-6.5 -63.5
q2 -31 4 -103.5t3 -152.5l2 -152.5t4 -103.5q0 -35 -6.5 -52.5t-14.5 -23.5t-16.5 -6h-10.5q-12 0 -56 -1t-93 -1h-93h-57q-16 0 -22 29.5t-6 52.5v121v201.5t1 254t1 277.5v271t1 237.5t2 174t1 81.5q2 37 6 63.5t45 36.5q29 6 81 10t102.5 0t89 -18t38.5 -43
q-4 -47 -6 -112.5t-3 -136.5l-2 -142.5t-1 -133v-105.5v-58q2 -25 7 -47.5t34 -24.5q37 -4 58.5 -3t36 9t27.5 27.5l36 54.5q41 96 83 207l76.5 207l58 162.5t30.5 76.5q6 13 14 27t19.5 26.5t24.5 17.5t30 -1q24 -10 65 -19.5t80 -22.5t67.5 -29.5t28.5 -38.5
q2 -19 -4 -34.5l-12 -31.5q-8 -18 -26.5 -71.5l-42 -124l-49 -148.5l-48.5 -143.5l-38 -111.5t-17 -50q-15 -25 -25 -58.5t-13 -71.5t2 -77t21 -76zM313 70q21 75 18 150t-26 151l-16 -77t-9 -76t6 -75t27 -73z" />
    <glyph glyph-name="l" unicode="l" horiz-adv-x="819" 
d="M520 338q109 4 163 0t74.5 -25.5t20.5 -65.5v-118q0 -72 -29.5 -101.5t-97.5 -29.5q-51 0 -109.5 -1t-117.5 -1h-115.5h-101.5q-94 0 -132 38t-32 132q0 55 -1 147.5t-2 205t-1 239.5t-1 252l-2 241.5t-1 208.5v152.5v73.5q-4 47 11 83.5t81 30.5q29 -2 81 4t102 2
t87 -25.5t37 -78.5v-140.5t-1 -222.5t-1 -263t-1 -263t-2 -222t-1 -140q0 -52 19.5 -83.5t72.5 -29.5zM297 508q22 76 18 150.5t-24 150.5l-16.5 -75t-9.5 -75.5t5 -75.5t27 -75zM215 1708l76 -32.5l80 -37.5q-29 66 -59.5 79.5t-96.5 -9.5z" />
    <glyph glyph-name="m" unicode="m" horiz-adv-x="1683" 
d="M1653 1667q-2 -387 -1 -768t1 -766q0 -35 -6.5 -71.5t-38.5 -47.5q-43 -12 -104.5 -15t-117 3t-95.5 21.5t-40 39.5q4 228 13.5 460.5t13.5 473.5q-6 -10 -26.5 -58l-49 -116.5l-62.5 -149.5l-65 -159l-57.5 -142.5t-38.5 -101.5q-2 -6 -9 -19t-23.5 -25.5t-43 -21.5
t-65.5 -9q-41 2 -74 19t-51 56q-19 33 -47.5 106l-64.5 170l-77 210.5t-86 224.5q-2 -33 -3 -97.5t-2 -146.5t-1 -173t-1 -176t-2 -158.5t-1 -120.5q4 -70 -20.5 -92.5t-83.5 -20.5q-68 2 -119 5t-87 20.5t-55.5 57.5t-19.5 118q-4 364 -1 708t1 711q0 24 -1 55t5 58.5
t21.5 47t48.5 19.5h146.5t112.5 -11t80.5 -39t51.5 -83q20 -66 49 -152l61.5 -179l65.5 -188l63.5 -181l56 -155t42.5 -110l67.5 177.5l73.5 202l74 203.5l67.5 185l54 143.5t36.5 80.5q14 32 25 53.5t23.5 33t27 15.5t36.5 4h223q50 0 74.5 -33.5t24.5 -95.5zM190 166
q31 4 29 19.5t-6 31.5q-61 254 -16 510q34 176 -9 350q-24 -221 -35.5 -437t-0.5 -437q2 -15 6 -28t32 -9z" />
    <glyph glyph-name="n" unicode="n" horiz-adv-x="1288" 
d="M1206 1782q37 -10 44 -47t7 -70q0 -387 -1 -768t1 -766q0 -131 -110 -131h-197q-24 0 -41.5 4t-31 15.5t-26.5 32t-30 54.5q-22 33 -66 132.5l-97.5 228.5l-112 267l-109.5 249q-2 -33 -3 -97.5t-2 -145.5t-2 -172l-2 -176t-2 -158.5t-1 -120.5q4 -72 -23.5 -94.5
t-93.5 -18.5q-76 2 -126 5t-80.5 20.5t-44 57.5t-13.5 118q-4 364 0 708t2 711q0 25 -1 55.5t5 58t23.5 47t54.5 19.5h156.5t108.5 -11t73 -40t49 -84l63.5 -177.5l75.5 -210l79 -216l72 -194.5t55.5 -145t29.5 -69q-2 121 -6 262.5t-8.5 286l-8.5 281.5t-6 250
q0 24 36 40.5t88 22.5t112.5 2t109.5 -16zM141 221q2 -43 7.5 -71.5t17.5 -47t31.5 -33t54.5 -30.5q-16 53 -42 97t-69 85zM520 1245q37 -110 81 -213.5t122 -193.5l-86 210.5l-88 208.5q-8 -4 -29 -12zM938 1720q27 -37 56.5 -44t60 -3t60.5 11.5t56 -5.5q-51 43 -109 49.5
t-124 -8.5z" />
    <glyph glyph-name="o" unicode="o" horiz-adv-x="1253" 
d="M907 1767q68 -32 109 -83.5t67.5 -113t42 -129l31.5 -132.5q47 -199 46 -396.5t-32 -396.5q-22 -145 -85.5 -255.5t-157.5 -179.5t-213 -89.5t-254 16.5q-101 27 -184.5 108t-129.5 193q-59 144 -88.5 296.5t-25.5 338.5q6 62 10 128.5t14.5 136t26.5 140t47 140.5
q49 119 140 194.5t200 109.5t223.5 26.5t212.5 -52.5zM856 1317q-31 53 -71 101t-111 89q14 -41 37.5 -68.5t48 -47t50.5 -37t46 -37.5zM590 1624q-53 8 -106.5 -7t-99.5 -47t-78 -78t-40 -95l157 110.5zM317 537q23 -117 73 -164t155 -49l-130.5 95t-97.5 118zM444 612
q21 -92 70 -144t123 -54q39 0 66.5 17.5t47 47t32 67.5t20.5 79q12 49 12 103t4 108q2 92 -7 178t-38 170q-29 78 -79 132t-115 52q-31 -2 -54.5 -21.5t-41 -49t-29 -65.5t-15.5 -73q-20 -135 -22 -273t26 -274zM684 223q70 2 119 17.5t83 45t55.5 76t33.5 111.5
q-23 -45 -53.5 -79t-68.5 -62.5t-81 -55z" />
    <glyph glyph-name="p" unicode="p" horiz-adv-x="1139" 
d="M643 1788q49 -10 100.5 -29.5t98.5 -49.5t86 -67.5t63 -85.5q45 -92 65.5 -212.5t10.5 -242.5t-55 -230.5t-129 -172.5q-29 -28 -82 -49.5t-114.5 -36t-120 -21.5t-95.5 -5q-53 4 -61.5 -19.5t-3.5 -72.5q-3 -93 -3 -175v-137.5t3 -99.5q0 -35 -6.5 -51.5t-13.5 -23.5
t-15.5 -7h-12.5h-299q-16 0 -22 28.5t-6 51.5v120v199.5t1 250.5t1 273.5v266.5t1 233.5t2 172t1 79.5q2 35 6 62.5t45 38.5q47 10 125 17t160 8t155.5 -2t114.5 -11zM692 1561q-20 47 -39.5 74.5t-45 39t-58.5 8t-80 -19.5l108.5 -49.5zM702 991q25 39 31 96.5t0 117
t-23.5 112.5t-43.5 88q-29 37 -74 66.5t-86 25.5q-43 -2 -64.5 -13t-31 -34t-10.5 -57.5t-3 -81.5q-2 -23 -3 -71t-3 -103.5t-2 -105.5v-73q0 -24 5 -46.5t36 -24.5q39 -4 77 -3t72.5 11t66.5 32.5t56 63.5z" />
    <glyph glyph-name="q" unicode="q" horiz-adv-x="1253" 
d="M1147 203q37 -35 40 -73t-40 -85q-45 -51 -80 -42t-68 40l-55 53q-96 -71 -219 -95t-264 15q-49 13 -98.5 39.5t-93.5 64.5t-79.5 86t-58.5 103q-59 142 -80.5 294.5t-17.5 332.5q8 121 23.5 259t74.5 278q51 116 142.5 190t200 107.5t223 27.5t212.5 -51q68 -31 110 -82
t69.5 -111.5t43 -128l31.5 -131.5q47 -192 45 -387.5t-32 -390.5q-21 -141 -89 -256l34.5 -32.5zM397 842q-10 -99 -3 -178.5t29.5 -136t61.5 -86t97 -27.5q47 -4 85 13t66 42q39 35 60.5 84t37.5 98q17 58 18 119t5 121q0 98 -6 181t-33 142.5t-83 90t-159 26.5
q-47 0 -73.5 -29.5t-43 -73.5t-25.5 -93.5l-17 -90.5q-11 -51 -12 -100t-5 -102zM592 1606q-53 8 -107.5 -6.5t-100.5 -47t-78 -76.5t-40 -94zM283 272q63 -125 143 -158.5t207 1.5q-49 0 -93 14t-86 35.5t-84 49.5zM858 1303q-29 53 -69.5 100t-112.5 88q14 -41 36.5 -67.5
t48 -47t51.5 -37t46 -36.5z" />
    <glyph glyph-name="r" unicode="r" horiz-adv-x="1169" 
d="M846 641l48 -90l63.5 -122l68.5 -138.5l68 -138.5q34 -70 13.5 -109t-122.5 -43q-53 -4 -91 6t-65.5 29.5t-46 46.5t-32.5 57l-47.5 92.5l-50 98.5l-48 95l-41.5 83q-12 27 -29.5 48.5t-46.5 25.5q-4 2 -5 2t-5 2h-8q-53 4 -66.5 -19.5t-9.5 -72.5q2 -31 3 -87.5l2 -118
l2 -118.5t3 -88q0 -35 -6 -51.5t-13 -23.5t-15.5 -7h-12.5h-297q-18 0 -23 28.5t-5 51.5v120v199.5v250.5t1 273.5t1 266.5t1 233.5t1 172t2 79.5v34t4 28.5t14.5 24t30.5 14.5q47 10 117.5 17t143.5 8t139.5 -2t105.5 -11q98 -23 180 -58.5t143 -123.5q62 -86 95.5 -199
t29.5 -234.5t-55 -241.5t-162 -218q-10 -23 2.5 -41.5zM692 1561q-20 47 -40.5 74.5t-46 39t-58.5 8t-80 -19.5l108.5 -49.5zM700 991q25 39 31 96.5t0 117t-23.5 112.5t-43.5 88q-29 37 -73 66.5t-85 25.5q-43 -2 -65.5 -13t-32 -34t-10.5 -57.5t-3 -81.5q0 -23 -2 -71
t-4 -103.5t-2 -105.5v-73q0 -24 6 -46.5t35 -24.5q39 -4 77 -3t72.5 11t66.5 32.5t56 63.5z" />
    <glyph glyph-name="s" unicode="s" horiz-adv-x="1174" 
d="M788 1047q138 -46 214.5 -125.5t108.5 -175t25.5 -196.5t-32.5 -188q-31 -102 -77 -168.5t-103.5 -108.5t-126 -62.5t-146.5 -28.5q-86 -10 -176 2t-173 56t-149.5 127t-105.5 218q-12 45 -12 79t16.5 63.5t50 57.5t86.5 58q37 19 67 20t55.5 -10.5t48 -33t44.5 -47.5
q23 -23 37.5 -53.5t32.5 -55.5q23 -31 60.5 -50t77.5 -24.5t77 4t62 33.5q32 33 25 71t-40 64q-28 23 -62 43.5t-69 30.5q-108 47 -204.5 113.5t-176.5 159.5q-76 86 -98.5 208.5t0 244.5t87 225.5t167.5 152.5q65 31 135 53.5t139 14.5q90 0 172 -43t143.5 -113t95.5 -160
t28 -184q-5 -39 -15 -62.5t-51 -31.5l-51.5 -10.5t-47 -6.5t-53 -2t-67.5 2q-19 2 -37 17.5t-29 38.5q-10 22 -21 42.5t-28 36.5q-28 29 -66 39.5t-67 -24.5q-10 -12 -14 -35t-2 -47.5t9 -47t17 -34.5q47 -53 100.5 -89t118.5 -58zM195 520q-5 -41 16.5 -62.5t60.5 -39.5
q-2 45 -12 72.5t-39 44.5q-4 2 -15 -4.5t-11 -10.5zM446 881q39 -54 92.5 -81.5t110 -50t111.5 -47t100 -71.5q-31 74 -81 108.5t-107.5 55t-116.5 36t-109 50.5zM756 889l61 -45.5t58.5 -50t52 -63.5t45.5 -83q-6 107 -59.5 164t-157.5 78z" />
    <glyph glyph-name="t" unicode="t" horiz-adv-x="1292" 
d="M1251 1722q-2 -30 2 -70t4 -80t-9 -76t-38 -54q-45 -31 -111.5 -36t-115.5 1q-37 4 -58.5 -11.5t-33.5 -43t-15.5 -62.5t-3.5 -69q2 -140 2 -263.5v-244.5v-245t3 -263q0 -64 -17.5 -110t-73.5 -70q-63 -27 -128.5 -28t-131.5 21q-16 7 -23 20t-9 29.5t-1 34t1 33.5
v456.5t-2 455.5q0 28 -1.5 50.5t-4.5 42t-6 42t-5 51.5q-6 63 -12 99t-22.5 51.5t-51.5 17.5t-96 0q-17 0 -31 -1t-31 -1q-65 -4 -112 25.5t-70.5 78.5t-23.5 112.5t28 129.5q17 37 43.5 45t57.5 8q252 2 499.5 3t497.5 3q41 0 71.5 -15t28.5 -67zM147 1663
q76 -29 134.5 -17.5t111.5 35.5q-28 2 -57 7.5t-58.5 6.5t-62.5 -6.5t-68 -25.5zM741 317q21 76 18 151t-26 150l-16 -76t-9 -76t6 -75t27 -74z" />
    <glyph glyph-name="u" unicode="u" horiz-adv-x="1208" 
d="M891 1800q94 0 144 -2t75 -16.5t32 -46t13 -88.5q4 -56 7 -148t5 -200.5t3 -223t1 -216t-2 -180.5t-6 -116q-8 -100 -37.5 -195.5t-86 -172t-141.5 -129t-204 -66.5q-80 -8 -161.5 2t-154.5 41t-132.5 83t-95.5 128q-64 137 -83.5 279.5t-25.5 289.5q-8 205 -3 418t3 418
q0 55 21.5 82.5t56.5 39t76 13.5t81 6q189 19 189 -145q0 -105 1 -227.5l2 -248.5l2 -249t1 -228q0 -63 8 -128.5t45 -118.5q19 -27 53.5 -38t75.5 -1q35 8 60.5 28.5t29.5 49.5q5 20 8 59t4 83t3 84t2 60q4 113 5 233t0 232.5t-2 211.5t-1 173q0 27 3 56.5t15.5 54t38 42
t72.5 17.5zM268 324q64 -123 144 -158t206 0q-49 2 -93 15.5t-86 35t-84 49z" />
    <glyph glyph-name="v" unicode="v" horiz-adv-x="1260" 
d="M1186 1782q33 -10 33 -47t-7 -70l-148 -768l-146 -766q-23 -131 -136 -131h-319q-25 0 -41 4t-27.5 15.5t-19.5 32t-19 54.5q-8 17 -26.5 92.5t-42 189.5l-51 253l-54.5 281l-141 747q-10 55 17.5 93t99.5 38h145t82 -11t40 -40t21 -84l29.5 -177.5l34.5 -210l36.5 -216
l34 -194.5t28 -145t16.5 -69q22 121 44.5 262.5l46 286l46 281.5t43.5 250q4 24 47 40.5t101.5 22.5t122 2t110.5 -16zM268 1645q-6 -43 2.5 -77t21.5 -63.5t28.5 -56.5t23.5 -55q-2 61 -16.5 121.5t-59.5 130.5z" />
    <glyph glyph-name="w" unicode="w" horiz-adv-x="2052" 
d="M1978 1782q35 -10 35 -47t-6 -70l-148.5 -768l-146.5 -766q-24 -131 -135 -131h-320q-24 0 -40.5 4t-27.5 15.5t-20.5 32t-19.5 54.5q-6 13 -18.5 64t-29 128l-37 175t-40.5 207l-53.5 -274.5t-50.5 -274.5q-25 -131 -138 -131h-317q-25 0 -41 4t-28.5 15.5t-20.5 32
t-19 54.5q-8 17 -25.5 92.5t-41 189.5l-52 253l-55.5 281l-141 747q-10 55 17.5 93t99.5 38h145t82 -11t40 -40t21 -84l30.5 -177.5l35.5 -210l36.5 -216l34 -194.5t27 -145t17.5 -69l43.5 262.5l46 286l45 281.5t43.5 250q4 16 21.5 27.5t45.5 21.5q31 18 78 18
q113 0 168.5 -1t79.5 -23q12 -9 14 -17q19 -30 27 -94q12 -76 29.5 -177.5l36 -210l37 -216l34 -194.5t27.5 -145t16 -69q23 121 45.5 262.5l46 286l45 281.5t41.5 250q5 24 48 40.5t101 22.5t121.5 2t110.5 -16zM135 1681q17 -114 40.5 -223.5t82.5 -212.5l-46 222.5
l-46 222.5q-8 -2 -15.5 -4.5t-15.5 -4.5zM1151 1493q12 59 0 105.5t-41 95.5q-10 -60 -4 -106t45 -95z" />
    <glyph glyph-name="x" unicode="x" horiz-adv-x="1464" 
d="M1083 1804q119 0 162 -19.5t40 -59t-33.5 -98t-55.5 -136.5l-60.5 -177t-61.5 -164l-66.5 -164l-75.5 -179l94 -186.5l101.5 -196.5l96.5 -188.5l81 -159.5q28 -51 16 -63.5t-57 -12.5q-27 0 -67 -1t-80 -1h-71.5h-37.5q-43 8 -61.5 30.5t-45.5 75.5q-8 15 -26.5 61
l-40 101.5l-44 109.5l-36.5 85q-13 -29 -40.5 -83l-56 -112.5l-54 -112t-38.5 -77.5q-16 -51 -51 -63.5t-104 -12.5q-82 0 -130.5 -2t-68.5 0q-57 8 -60.5 30.5t19.5 75.5l54 130.5l78 185l94 228.5l106 257l-118 224.5l-117.5 217l-104.5 186.5t-78 130q-41 68 -35 105.5
t80 35.5q90 -2 147.5 -3t94.5 -8t59.5 -25.5t43 -52.5t47 -90t69.5 -138q6 -10 22.5 -41l36 -67l36.5 -66.5t24 -40.5l34.5 99.5l40 115.5l35 105t21.5 71q16 68 71.5 104.5t171.5 36.5zM281 106q32 5 35 17l6 24q16 109 58 215.5t114 215.5q96 147 118 292
q-104 -184 -195 -365t-159 -368q-4 -10 -5 -22.5t28 -8.5zM625 254q6 10 6 22.5t4 24.5q-86 -22 -121 -54t-31 -81q2 -14 8.5 -29.5t30.5 -9.5q39 8 55.5 22.5t23.5 32t10 37t14 35.5z" />
    <glyph glyph-name="y" unicode="y" horiz-adv-x="1336" 
d="M1083 1804q119 0 162 -19.5t40 -59t-33.5 -98t-55.5 -136.5l-60.5 -177t-61.5 -164l-66.5 -164l-75.5 -179l-178 -346q-13 -29 -40.5 -83l-56 -112.5l-54 -112t-38.5 -77.5q-16 -51 -51 -63.5t-104 -12.5q-82 0 -130.5 -2t-68.5 0q-57 8 -60.5 30.5t19.5 75.5l54 130.5
l78 185l94 228.5l106 257l-118 224.5l-117.5 217l-104.5 186.5t-78 130q-41 68 -35 105.5t80 35.5q90 -2 147.5 -3t94.5 -8t59.5 -25.5t43 -52.5t47 -90t69.5 -138q6 -10 22.5 -41l36 -67l36.5 -66.5t24 -40.5l34.5 99.5l40 115.5l35 105t21.5 71q16 68 71.5 104.5
t171.5 36.5zM469 55q32 5 35 17l6 24q16 109 58 215.5t114 215.5q96 147 118 292q-104 -184 -195 -365t-159 -368q-4 -10 -5 -22.5t28 -8.5zM131 1767q-17 0 -26 -2.5t-13 -7t-5.5 -10.5t-3.5 -11q15 5 28 12t20 19z" />
    <glyph glyph-name="z" unicode="z" horiz-adv-x="1020" 
d="M915 1800q23 0 37.5 -12t22.5 -32.5t10 -46.5t0 -50q0 -25 -25.5 -104.5t-66.5 -192.5l-92 -249l-104.5 -274.5l-103.5 -267.5l-89 -229h172q108 4 162.5 0t75 -25.5t20.5 -65.5v-118q-2 -72 -31 -101.5t-96 -31.5h-438q-13 -2 -28 -2h-38l-4 2h-82h-35h-6h-4
q-33 0 -51 6q-47 10 -66.5 44t2.5 120v2q0 4 19.5 58.5l51.5 140.5l73 193.5l83 220l83 221l73.5 194.5l53 140.5t22.5 60.5q8 35 -2 52t-28.5 25.5t-40 8.5h-31.5q-11 2 -31.5 1t-30.5 -1q-71 2 -117.5 4t-74 21.5t-37.5 64.5t-10 135v12q4 74 67 74q74 0 169 1t195.5 1
h198h172.5zM178 1665l80 38l76 34q-66 22 -96.5 8t-59.5 -80zM342 264q55 66 63.5 140.5t6.5 152.5q-35 -68 -54.5 -141.5t-15.5 -151.5z" />
    <glyph glyph-name="braceleft" unicode="{" horiz-adv-x="540" 
d="M297 1420q-29 108 -30 202t15.5 171t46 137t60.5 99q37 46 69 61.5t6.5 -176.5t-22.5 -227q2 -31 6.5 -63t11.5 -58q20 -92 30.5 -188.5t9.5 -200.5q-1 -97 -27.5 -186.5t-287.5 -153t-62 144.5t199 221q0 61 -6 114t-19 103zM444 1330q3 55 -5.5 103t-19 94.5l-20.5 93
t-10 101.5q-11 -64 -5.5 -114t17 -96t24.5 -89.5t19 -92.5zM349 1502q-2 31 -5.5 62.5t-4 64.5t2 69.5t9.5 77.5q-28 -70 -27.5 -136t25.5 -138zM325 344q6 53 6 114q-1 13 -199.5 244.5t62 144.5t287 -176.5t27.5 -186.5q1 -104 -9.5 -201t-29.5 -188q-8 -26 -12.5 -58
t-6.5 -62q-3 -36 22.5 -227.5t-6.5 -176.5t-68 61q-32 39 -61.5 99t-46 137.5t-15 171t29.5 200.5q14 51 20 104zM433.5 238.5q-13.5 -43.5 -25 -89.5t-17 -96t5.5 -114q1 55 10.5 101.5l20 93.5t19 95t5.5 103q-5 -50 -18.5 -93.5zM332.5 21q-0.5 -66 26.5 -136
q-7 41 -9.5 77.5t-1.5 69.5t4 64.5l6 63.5q-25 -73 -25.5 -139z" />
    <glyph glyph-name="bar" unicode="|" horiz-adv-x="378" 
d="M123 1806q63 -2 103 -3t63.5 -8t33 -25.5t11.5 -52.5t0 -90t-2 -138q0 -176 -2.5 -364.5t-5.5 -372t-6.5 -356.5t-7.5 -318q3 -51 -11 -63.5t-45 -12.5q-18 0 -47.5 -1l-58 -2t-51.5 -1t-26 2q-27 8 -32 29.5t-4 76.5q0 60 2 178.5t3 268t3 316.5t2 319.5t-2 278.5
t-6 196q-3 68 15.5 105.5t70.5 37.5zM160 106q32 9 29 33.5t-6 46.5q-33 199 -37.5 397.5t21.5 401.5q16 135 13.5 271.5t-22.5 271.5q-25 -342 -37 -680t-1 -682q2 -21 6.5 -42.5t33.5 -17.5zM234 1543q23 8 29.5 23.5t6.5 33t-2.5 36t1.5 34.5q1 12 -1.5 24.5t-4.5 24.5
q-49 -22 -63.5 -55t1.5 -80q6 -16 13 -30.5t20 -10.5z" />
    <glyph glyph-name="braceright" unicode="}" horiz-adv-x="540" 
d="M229 1317q-6 -53 -6 -114q0 -13 199 -221t-62 -144.5t-287.5 153t-27.5 186.5q-1 104 9.5 200.5t30.5 188.5q7 26 11.5 58t6.5 63q3 35 -22.5 227t6.5 176.5t69 -61.5q31 -39 60.5 -99t46 -137t15.5 -171t-30 -202q-13 -50 -19 -103zM120 1422.5q13 43.5 24.5 89.5t17 96
t-5.5 114q0 -55 -10 -101.5l-20.5 -93t-19 -94.5t-5.5 -103q6 49 19 92.5zM221.5 1640q0.5 66 -27.5 136q7 -41 9.5 -77.5t2 -69.5t-4 -64.5t-5.5 -62.5q25 72 25.5 138zM240 240q28 -107 29.5 -200.5t-15 -171t-46 -137.5t-61.5 -99q-36 -46 -68 -61t-6.5 176.5t22.5 227.5
q-2 30 -6.5 62t-12.5 58q-19 91 -29.5 188t-9.5 201q1 97 27.5 186.5t287 176.5t62 -144.5t-199.5 -244.5q0 -61 6 -114t20 -104zM93 332q-3 -55 5.5 -103t19 -95l20 -93.5t10.5 -101.5q11 64 5.5 114t-17 96t-25 89.5t-18.5 93.5zM187 160l6 -63.5t4 -64.5t-1.5 -69.5
t-9.5 -77.5q27 70 26.5 136t-25.5 139z" />
    <glyph glyph-name="asciitilde" unicode="~" horiz-adv-x="981" 
d="M393.5 607.5q-36.5 10.5 -77.5 9.5q-9 0 -151.5 38.5t-99 107.5t104.5 115.5t128 47.5q71 3 137.5 -15.5t128.5 -52.5q18 -13 40.5 -21t43.5 -12q24 -5 155.5 39.5t121 -11t-41.5 -119.5q-27 -55 -68 -106t-94.5 -79.5t-117.5 -26.5t-138 52q-35 23 -71.5 33.5z
M466.5 796.5q29.5 -23.5 61 -43.5t66 -29.5t78.5 9.5q-38 1 -70 18l-64 35.5t-64.5 33.5t-71.5 9q35 -9 64.5 -32.5zM615.5 620.5q45.5 -0.5 93.5 46.5q-28 -11 -53 -15.5t-48 -3.5t-44.5 6.5t-43.5 10.5q50 -44 95.5 -44.5z" />
    <glyph glyph-name="Adieresis" unicode="&#xc4;" horiz-adv-x="1292" 
d="M905 1651l167 -753l173 -753q6 -22 11.5 -44.5t2 -43t-19.5 -36t-57 -21.5q-35 -4 -80 -5t-88 7t-77 29.5t-44 62.5l-12 51.5t-9 51.5q-10 90 -60 134t-155 48q-73 2 -120.5 -11.5t-75 -41t-39.5 -67.5t-19 -91q-10 -72 -25.5 -106.5t-40 -48t-59 -13.5t-79.5 -2
q-41 -2 -73 4t-51.5 23.5t-26.5 45t1 68.5q17 92 46.5 228.5l65.5 290l73.5 310l70.5 291l57.5 231.5l32.5 130q17 66 24 102.5t25.5 54t58.5 19.5t124 0h27.5h37t35.5 -1t25 -1q47 -2 73.5 -7t41 -20.5t21.5 -43t17 -72.5zM467 948q-6 131 51 271q37 100 35 186
q-41 -121 -72.5 -237.5t-50.5 -233.5q0 -8 1 -14.5t18 -1.5q18 6 19 14t-1 16zM643 621q21 0 43.5 1t39.5 9t25.5 25.5t0.5 48.5q-13 49 -23 121.5t-21.5 140t-25.5 115.5t-35 48q-16 0 -31.5 -48t-29 -115.5t-25.5 -141t-24 -125.5q-9 -34 1.5 -51.5t29 -24t39 -5t36.5 1.5
zM1094 342l4 -77t10 -74.5t24.5 -71.5t45.5 -66q2 78 -20.5 150.5t-63.5 138.5zM492 2152q63 -4 97 -31.5t29 -92.5q-4 -64 -33.5 -110t-103.5 -44q-37 0 -58.5 14.5t-33.5 36t-18 48t-11 55.5q9 59 34.5 94t97.5 30zM545 2095q-15 -14 -21 -21.5t-6 -13.5t5 -15t14 -28
q14 17 23 24t13.5 12t4.5 11.5t-5 22.5q-2 4 -13 8t-15 0zM799 2152q63 -4 97 -31.5t30 -92.5q-4 -64 -34 -110t-104 -44q-36 0 -57.5 14.5t-34 36t-18.5 48t-10 55.5q8 59 33.5 94t97.5 30zM852 2095q-14 -14 -20.5 -21.5t-6.5 -13.5t5.5 -15t13.5 -28q14 17 23.5 24
t13.5 12t4 11.5t-4 22.5q-2 4 -13.5 8t-15.5 0z" />
    <glyph glyph-name="Aring" unicode="&#xc5;" horiz-adv-x="1292" 
d="M905 1651l167 -753l173 -753q6 -22 11.5 -44.5t2 -43t-19.5 -36t-57 -21.5q-35 -4 -80 -5t-88 7t-77 29.5t-44 62.5l-12 51.5t-9 51.5q-10 90 -60 134t-155 48q-73 2 -120.5 -11.5t-75 -41t-39.5 -67.5t-19 -91q-10 -72 -25.5 -106.5t-40 -48t-59 -13.5t-79.5 -2
q-41 -2 -73 4t-51.5 23.5t-26.5 45t1 68.5q17 92 46.5 228.5l65.5 290l73.5 310l70.5 291l57.5 231.5l32.5 130q17 66 24 102.5t25.5 54t58.5 19.5t124 0h27.5h37t35.5 -1t25 -1q47 -2 73.5 -7t41 -20.5t21.5 -43t17 -72.5zM467 948q-6 131 51 271q37 100 35 186
q-41 -121 -72.5 -237.5t-50.5 -233.5q0 -8 1 -14.5t18 -1.5q18 6 19 14t-1 16zM643 621q21 0 43.5 1t39.5 9t25.5 25.5t0.5 48.5q-13 49 -23 121.5t-21.5 140t-25.5 115.5t-35 48q-16 0 -31.5 -48t-29 -115.5t-25.5 -141t-24 -125.5q-9 -34 1.5 -51.5t29 -24t39 -5t36.5 1.5
zM1094 342l4 -77t10 -74.5t24.5 -71.5t45.5 -66q2 78 -20.5 150.5t-63.5 138.5zM645 2118q64 -4 97.5 -32t29.5 -93q-4 -64 -33.5 -110t-103.5 -44q-37 0 -58.5 14.5t-34 36t-18.5 48t-10 55.5q8 59 33.5 94t97.5 31zM645 2032q-27 2 -36 -11.5t-13 -35.5q4 -21 11 -38.5
t34 -19.5q29 0 39 17.5t12 40.5q2 24 -11 34.5t-36 12.5z" />
    <glyph glyph-name="Ccedilla" unicode="&#xc7;" horiz-adv-x="1262" 
d="M659 -29q11 -24 35 -30q88 -17 144.5 -59t87 -95t38 -114.5t1.5 -118.5q-9 -66 -29.5 -112t-51 -79t-70.5 -52.5t-87 -33.5q-51 -16 -108.5 -19t-112.5 15t-105.5 62t-89.5 124q-26 52 -14 87.5t72 84.5q41 33 73.5 21t65.5 -41q16 -10 28.5 -27.5t28.5 -29.5
q17 -17 41.5 -25t50 -7t47 11t33.5 29q17 22 8.5 45.5t-30.5 34.5q-23 12 -44.5 21t-43.5 11q-37 9 -77 22t-77 31.5t-65.5 45t-40.5 63.5q-13 33 -1.5 80t46.5 92q-37 17 -59.5 32t-33.5 23q-69 43 -124.5 134.5t-92 213t-54 263t-12.5 284t34.5 274.5t89.5 234
q108 189 238 279t261.5 91t254 -84t219.5 -245q30 -49 43.5 -104t23.5 -113q8 -33 4 -68.5t-45 -45.5q-18 -5 -57 -11t-81 -6t-75 10.5t-39 40.5q-18 78 -67 126t-113.5 63.5t-134.5 -2t-127 -70.5q-35 -33 -56.5 -101.5t-34 -156.5t-11 -184.5t11.5 -183.5t32.5 -154.5
t57.5 -97.5q33 -48 75 -73.5t87 -31.5t89 6t83 41q47 35 75.5 94.5t26.5 114.5q0 43 22.5 57.5t57.5 22.5q6 2 33.5 10t61.5 9t69 -12t55 -56q12 -29 13 -79t-8 -105.5t-27.5 -105.5t-44.5 -77q-93 -129 -214.5 -204.5t-254.5 -88.5h-5zM193 1096q-11 -82 -19 -164t-5 -162
t23.5 -156.5t69.5 -150.5q-39 155 -56.5 313t-12.5 320zM659 1513q91 -4 166.5 -36.5t143.5 -90.5q-27 60 -63 99t-77 55t-85 10t-85 -37zM319 1468q-51 -43 -78.5 -97t-33.5 -128q10 6 16 7t8 5zM502 -201q30 -28 66 -38.5t73 -17.5t74 -16.5t69 -33.5q-28 41 -62 57.5
t-72 22.5t-75.5 9t-72.5 17zM692 -160q43 -22 84 -46.5t76 -78.5q-16 66 -55 94.5t-105 30.5zM389 -451q0 -24 16.5 -35.5t40.5 -17.5q-8 53 -43 66q-4 0 -10 -4t-4 -9z" />
    <glyph glyph-name="Eacute" unicode="&#xc9;" horiz-adv-x="948" 
d="M825 358q52 0 70 -23.5t20 -78.5q0 -102 -8 -156.5t-37.5 -77t-87 -24.5t-155.5 -2q-41 2 -103.5 1t-130 -1t-130 -1t-103.5 1q-37 0 -58.5 8t-34 26.5t-18.5 49.5t-12 78q-2 8 -2 71.5v163v224t1 257t1 262.5t1 237.5t0 182t-1 99.5q0 24 2 50t9 46.5t21.5 33.5t36.5 13
q76 0 173.5 -1t199 -1t196.5 -1t167 -1q63 0 67 -74q2 -4 2 -12q-2 -119 -7 -181.5t-24.5 -92t-59.5 -33.5t-111 -6h-111q-72 -2 -114 -4t-62.5 -20.5t-24.5 -62.5t0 -132q6 -29 21.5 -38.5t38.5 -9.5q43 -2 86 -2t84 -2q80 -2 105.5 -32.5t23.5 -112.5q0 -39 -2 -78
t-14.5 -69.5t-41 -49t-82.5 -14.5q-84 4 -128 5t-62 -17.5t-20.5 -64.5t0.5 -138q2 -47 1 -83t6 -60.5t25.5 -37t59.5 -12.5q86 -2 166.5 -3t160.5 1zM715 1583q2 -8 -1 -18.5t-3 -19.5t6 -14t28 -5q27 0 43.5 12t18.5 39q2 25 -2 49.5t-39 28.5q-23 2 -31 -4t-11 -17.5
t-4 -25t-5 -25.5zM727 2520q43 -41 49.5 -83t-40.5 -89q-47 -45 -119 -58t-133.5 -7t-94 24.5t-2.5 36.5q64 35 97 78l69 86q45 41 86 50t88 -38zM656 2508q-41 -2 -61.5 -24.5t-32.5 -59.5q84 8 108 59q4 5 -3 15t-11 10z" />
    <glyph glyph-name="Ntilde" unicode="&#xd1;" horiz-adv-x="1288" 
d="M1206 1782q37 -10 44 -47t7 -70q0 -387 -1 -768t1 -766q0 -131 -110 -131h-197q-24 0 -41.5 4t-31 15.5t-26.5 32t-30 54.5q-22 33 -66 132.5l-97.5 228.5l-112 267l-109.5 249q-2 -33 -3 -97.5t-2 -145.5t-2 -172l-2 -176t-2 -158.5t-1 -120.5q4 -72 -23.5 -94.5
t-93.5 -18.5q-76 2 -126 5t-80.5 20.5t-44 57.5t-13.5 118q-4 364 0 708t2 711q0 25 -1 55.5t5 58t23.5 47t54.5 19.5h156.5t108.5 -11t73 -40t49 -84l63.5 -177.5l75.5 -210l79 -216l72 -194.5t55.5 -145t29.5 -69q-2 121 -6 262.5t-8.5 286l-8.5 281.5t-6 250
q0 24 36 40.5t88 22.5t112.5 2t109.5 -16zM141 221q2 -43 7.5 -71.5t17.5 -47t31.5 -33t54.5 -30.5q-16 53 -42 97t-69 85zM520 1245q37 -110 81 -213.5t122 -193.5l-86 210.5l-88 208.5q-8 -4 -29 -12zM938 1720q27 -37 56.5 -44t60 -3t60.5 11.5t56 -5.5q-51 43 -109 49.5
t-124 -8.5zM688 1952q-12 -41 -36.5 -64.5t-53.5 -33t-59.5 -7.5t-55.5 11q-61 18 -84.5 53t-27.5 82q-4 26 0 54t17 52.5t39 45t67 32.5q26 10 42.5 0t34.5 -41q11 -22 2.5 -37.5t-22.5 -30.5q-10 -6 -18.5 -10t-16.5 -10q-20 -14 -23.5 -42t11.5 -42q10 -10 22.5 -8
t20.5 12q6 8 12 18.5t10 22.5q23 62 82 117q27 20 64 27.5t73.5 0t68.5 -28t46 -50.5q10 -19 16.5 -39.5t4.5 -42.5q0 -27 -12.5 -51.5t-34 -43t-49 -29.5t-56.5 -9q-12 2 -18 5t-11 15q-4 16 -5 29.5t-1 38.5q2 12 17 18q8 4 15 7t11 7q8 11 11.5 22t-7.5 21
q-8 5 -25.5 3.5t-25.5 -7.5q-16 -14 -25.5 -30.5t-19.5 -36.5z" />
    <glyph glyph-name="Odieresis" unicode="&#xd6;" horiz-adv-x="1253" 
d="M907 1767q68 -32 109 -83.5t67.5 -113t42 -129l31.5 -132.5q47 -199 46 -396.5t-32 -396.5q-22 -145 -85.5 -255.5t-157.5 -179.5t-213 -89.5t-254 16.5q-101 27 -184.5 108t-129.5 193q-59 144 -88.5 296.5t-25.5 338.5q6 62 10 128.5t14.5 136t26.5 140t47 140.5
q49 119 140 194.5t200 109.5t223.5 26.5t212.5 -52.5zM856 1317q-31 53 -71 101t-111 89q14 -41 37.5 -68.5t48 -47t50.5 -37t46 -37.5zM590 1624q-53 8 -106.5 -7t-99.5 -47t-78 -78t-40 -95l157 110.5zM317 537q23 -117 73 -164t155 -49l-130.5 95t-97.5 118zM444 612
q21 -92 70 -144t123 -54q39 0 66.5 17.5t47 47t32 67.5t20.5 79q12 49 12 103t4 108q2 92 -7 178t-38 170q-29 78 -79 132t-115 52q-31 -2 -54.5 -21.5t-41 -49t-29 -65.5t-15.5 -73q-20 -135 -22 -273t26 -274zM684 223q70 2 119 17.5t83 45t55.5 76t33.5 111.5
q-23 -45 -53.5 -79t-68.5 -62.5t-81 -55zM471 2126q64 -4 97.5 -32t29.5 -93q-4 -64 -33.5 -110t-103.5 -44q-37 0 -58.5 14.5t-34 36t-18.5 48t-10 55.5q8 59 33.5 94t97.5 31zM524 2068q-14 -14 -20 -21t-6 -13t5 -15.5t13 -27.5q14 16 23.5 23t13.5 12.5t4 11.5t-4 22
q-2 4 -13.5 8.5t-15.5 -0.5zM778 2126q64 -4 97.5 -32t29.5 -93q-4 -64 -33.5 -110t-103.5 -44q-37 0 -58.5 14.5t-33.5 36t-18.5 48t-10.5 55.5q8 59 34 94t97 31zM831 2068q-14 -14 -20 -21t-6 -13t5 -15.5t13 -27.5q15 16 24 23t13 12.5t4 11.5t-4 22q-2 4 -13 8.5
t-16 -0.5z" />
    <glyph glyph-name="Udieresis" unicode="&#xdc;" horiz-adv-x="1208" 
d="M891 1800q94 0 144 -2t75 -16.5t32 -46t13 -88.5q4 -56 7 -148t5 -200.5t3 -223t1 -216t-2 -180.5t-6 -116q-8 -100 -37.5 -195.5t-86 -172t-141.5 -129t-204 -66.5q-80 -8 -161.5 2t-154.5 41t-132.5 83t-95.5 128q-64 137 -83.5 279.5t-25.5 289.5q-8 205 -3 418t3 418
q0 55 21.5 82.5t56.5 39t76 13.5t81 6q189 19 189 -145q0 -105 1 -227.5l2 -248.5l2 -249t1 -228q0 -63 8 -128.5t45 -118.5q19 -27 53.5 -38t75.5 -1q35 8 60.5 28.5t29.5 49.5q5 20 8 59t4 83t3 84t2 60q4 113 5 233t0 232.5t-2 211.5t-1 173q0 27 3 56.5t15.5 54t38 42
t72.5 17.5zM268 324q64 -123 144 -158t206 0q-49 2 -93 15.5t-86 35t-84 49zM449 2124q63 -4 97 -32t29 -93q-4 -64 -33.5 -110t-103.5 -44q-37 0 -58.5 14.5t-33.5 36t-18 48t-11 55.5q9 59 34.5 94t97.5 31zM502 2066q-15 -14 -21 -21t-6 -13.5t5 -15.5t14 -27
q14 16 23 23t13.5 12.5t4.5 11.5t-5 22q-2 4 -13 8.5t-15 -0.5zM756 2124q63 -4 97 -32t30 -93q-4 -64 -34 -110t-104 -44q-36 0 -57.5 14.5t-34 36t-18.5 48t-10 55.5q8 59 33.5 94t97.5 31zM809 2066q-14 -14 -20.5 -21t-6.5 -13.5t5.5 -15.5t13.5 -27q14 16 23.5 23
t13.5 12.5t4 11.5t-4 22q-2 4 -13.5 8.5t-15.5 -0.5z" />
    <glyph glyph-name="aacute" unicode="&#xe1;" horiz-adv-x="1292" 
d="M905 1651l167 -753l173 -753q6 -22 11.5 -44.5t2 -43t-19.5 -36t-57 -21.5q-35 -4 -80 -5t-88 7t-77 29.5t-44 62.5l-12 51.5t-9 51.5q-10 90 -60 134t-155 48q-73 2 -120.5 -11.5t-75 -41t-39.5 -67.5t-19 -91q-10 -72 -25.5 -106.5t-40 -48t-59 -13.5t-79.5 -2
q-41 -2 -73 4t-51.5 23.5t-26.5 45t1 68.5q17 92 46.5 228.5l65.5 290l73.5 310l70.5 291l57.5 231.5l32.5 130q17 66 24 102.5t25.5 54t58.5 19.5t124 0h27.5h37t35.5 -1t25 -1q47 -2 73.5 -7t41 -20.5t21.5 -43t17 -72.5zM467 948q-6 131 51 271q37 100 35 186
q-41 -121 -72.5 -237.5t-50.5 -233.5q0 -8 1 -14.5t18 -1.5q18 6 19 14t-1 16zM643 621q21 0 43.5 1t39.5 9t25.5 25.5t0.5 48.5q-13 49 -23 121.5t-21.5 140t-25.5 115.5t-35 48q-16 0 -31.5 -48t-29 -115.5t-25.5 -141t-24 -125.5q-9 -34 1.5 -51.5t29 -24t39 -5t36.5 1.5
zM1094 342l4 -77t10 -74.5t24.5 -71.5t45.5 -66q2 78 -20.5 150.5t-63.5 138.5zM821 2089q43 -41 49.5 -83t-41.5 -89q-47 -45 -118.5 -58.5t-133 -7t-94 24.5t-2.5 37q64 35 96.5 78t69.5 86q45 41 86 50t88 -38zM750 2077q-41 -2 -61.5 -24.5t-33.5 -59.5q84 8 109 59
q4 4 -3 14.5t-11 10.5z" />
    <glyph glyph-name="agrave" unicode="&#xe0;" horiz-adv-x="1292" 
d="M905 1651l167 -753l173 -753q6 -22 11.5 -44.5t2 -43t-19.5 -36t-57 -21.5q-35 -4 -80 -5t-88 7t-77 29.5t-44 62.5l-12 51.5t-9 51.5q-10 90 -60 134t-155 48q-73 2 -120.5 -11.5t-75 -41t-39.5 -67.5t-19 -91q-10 -72 -25.5 -106.5t-40 -48t-59 -13.5t-79.5 -2
q-41 -2 -73 4t-51.5 23.5t-26.5 45t1 68.5q17 92 46.5 228.5l65.5 290l73.5 310l70.5 291l57.5 231.5l32.5 130q17 66 24 102.5t25.5 54t58.5 19.5t124 0h27.5h37t35.5 -1t25 -1q47 -2 73.5 -7t41 -20.5t21.5 -43t17 -72.5zM467 948q-6 131 51 271q37 100 35 186
q-41 -121 -72.5 -237.5t-50.5 -233.5q0 -8 1 -14.5t18 -1.5q18 6 19 14t-1 16zM643 621q21 0 43.5 1t39.5 9t25.5 25.5t0.5 48.5q-13 49 -23 121.5t-21.5 140t-25.5 115.5t-35 48q-16 0 -31.5 -48t-29 -115.5t-25.5 -141t-24 -125.5q-9 -34 1.5 -51.5t29 -24t39 -5t36.5 1.5
zM1094 342l4 -77t10 -74.5t24.5 -71.5t45.5 -66q2 78 -20.5 150.5t-63.5 138.5zM469 2087q47 47 88 38t86 -50q37 -43 69.5 -86t96.5 -78q20 -13 11 -25t-36.5 -22.5t-70.5 -14.5t-88 1t-89 19.5t-75 45.5q-47 47 -41 89t49 83zM541 2075q-4 0 -11.5 -10.5t-3.5 -14.5
q25 -51 109 -59q-12 37 -32.5 59.5t-61.5 24.5z" />
    <glyph glyph-name="acircumflex" unicode="&#xe2;" horiz-adv-x="1292" 
d="M905 1651l167 -753l173 -753q6 -22 11.5 -44.5t2 -43t-19.5 -36t-57 -21.5q-35 -4 -80 -5t-88 7t-77 29.5t-44 62.5l-12 51.5t-9 51.5q-10 90 -60 134t-155 48q-73 2 -120.5 -11.5t-75 -41t-39.5 -67.5t-19 -91q-10 -72 -25.5 -106.5t-40 -48t-59 -13.5t-79.5 -2
q-41 -2 -73 4t-51.5 23.5t-26.5 45t1 68.5q17 92 46.5 228.5l65.5 290l73.5 310l70.5 291l57.5 231.5l32.5 130q17 66 24 102.5t25.5 54t58.5 19.5t124 0h27.5h37t35.5 -1t25 -1q47 -2 73.5 -7t41 -20.5t21.5 -43t17 -72.5zM467 948q-6 131 51 271q37 100 35 186
q-41 -121 -72.5 -237.5t-50.5 -233.5q0 -8 1 -14.5t18 -1.5q18 6 19 14t-1 16zM643 621q21 0 43.5 1t39.5 9t25.5 25.5t0.5 48.5q-13 49 -23 121.5t-21.5 140t-25.5 115.5t-35 48q-16 0 -31.5 -48t-29 -115.5t-25.5 -141t-24 -125.5q-9 -34 1.5 -51.5t29 -24t39 -5t36.5 1.5
zM1094 342l4 -77t10 -74.5t24.5 -71.5t45.5 -66q2 78 -20.5 150.5t-63.5 138.5zM543 2081q26 22 50.5 37.5t51.5 13.5q27 2 51.5 -13.5t53.5 -37.5l69 -86t96 -78q27 -16 7.5 -31.5t-63.5 -24t-102.5 -7.5t-111.5 20q-53 -19 -110.5 -20t-101.5 7.5t-63.5 24t7.5 31.5
q63 35 96 78t70 86zM659 2081q-4 0 -11 -10.5t-3 -14.5q25 -51 109 -59q-13 37 -33.5 59.5t-61.5 24.5z" />
    <glyph glyph-name="adieresis" unicode="&#xe4;" horiz-adv-x="1292" 
d="M905 1651l167 -753l173 -753q6 -22 11.5 -44.5t2 -43t-19.5 -36t-57 -21.5q-35 -4 -80 -5t-88 7t-77 29.5t-44 62.5l-12 51.5t-9 51.5q-10 90 -60 134t-155 48q-73 2 -120.5 -11.5t-75 -41t-39.5 -67.5t-19 -91q-10 -72 -25.5 -106.5t-40 -48t-59 -13.5t-79.5 -2
q-41 -2 -73 4t-51.5 23.5t-26.5 45t1 68.5q17 92 46.5 228.5l65.5 290l73.5 310l70.5 291l57.5 231.5l32.5 130q17 66 24 102.5t25.5 54t58.5 19.5t124 0h27.5h37t35.5 -1t25 -1q47 -2 73.5 -7t41 -20.5t21.5 -43t17 -72.5zM467 948q-6 131 51 271q37 100 35 186
q-41 -121 -72.5 -237.5t-50.5 -233.5q0 -8 1 -14.5t18 -1.5q18 6 19 14t-1 16zM643 621q21 0 43.5 1t39.5 9t25.5 25.5t0.5 48.5q-13 49 -23 121.5t-21.5 140t-25.5 115.5t-35 48q-16 0 -31.5 -48t-29 -115.5t-25.5 -141t-24 -125.5q-9 -34 1.5 -51.5t29 -24t39 -5t36.5 1.5
zM1094 342l4 -77t10 -74.5t24.5 -71.5t45.5 -66q2 78 -20.5 150.5t-63.5 138.5zM492 2152q63 -4 97 -31.5t29 -92.5q-4 -64 -33.5 -110t-103.5 -44q-37 0 -58.5 14.5t-33.5 36t-18 48t-11 55.5q9 59 34.5 94t97.5 30zM545 2095q-15 -14 -21 -21.5t-6 -13.5t5 -15t14 -28
q14 17 23 24t13.5 12t4.5 11.5t-5 22.5q-2 4 -13 8t-15 0zM799 2152q63 -4 97 -31.5t30 -92.5q-4 -64 -34 -110t-104 -44q-36 0 -57.5 14.5t-34 36t-18.5 48t-10 55.5q8 59 33.5 94t97.5 30zM852 2095q-14 -14 -20.5 -21.5t-6.5 -13.5t5.5 -15t13.5 -28q14 17 23.5 24
t13.5 12t4 11.5t-4 22.5q-2 4 -13.5 8t-15.5 0z" />
    <glyph glyph-name="atilde" unicode="&#xe3;" horiz-adv-x="1292" 
d="M905 1651l167 -753l173 -753q6 -22 11.5 -44.5t2 -43t-19.5 -36t-57 -21.5q-35 -4 -80 -5t-88 7t-77 29.5t-44 62.5l-12 51.5t-9 51.5q-10 90 -60 134t-155 48q-73 2 -120.5 -11.5t-75 -41t-39.5 -67.5t-19 -91q-10 -72 -25.5 -106.5t-40 -48t-59 -13.5t-79.5 -2
q-41 -2 -73 4t-51.5 23.5t-26.5 45t1 68.5q17 92 46.5 228.5l65.5 290l73.5 310l70.5 291l57.5 231.5l32.5 130q17 66 24 102.5t25.5 54t58.5 19.5t124 0h27.5h37t35.5 -1t25 -1q47 -2 73.5 -7t41 -20.5t21.5 -43t17 -72.5zM467 948q-6 131 51 271q37 100 35 186
q-41 -121 -72.5 -237.5t-50.5 -233.5q0 -8 1 -14.5t18 -1.5q18 6 19 14t-1 16zM643 621q21 0 43.5 1t39.5 9t25.5 25.5t0.5 48.5q-13 49 -23 121.5t-21.5 140t-25.5 115.5t-35 48q-16 0 -31.5 -48t-29 -115.5t-25.5 -141t-24 -125.5q-9 -34 1.5 -51.5t29 -24t39 -5t36.5 1.5
zM1094 342l4 -77t10 -74.5t24.5 -71.5t45.5 -66q2 78 -20.5 150.5t-63.5 138.5zM690 1952q-12 -41 -36.5 -64.5t-53.5 -33t-59.5 -7.5t-55.5 11q-61 18 -84.5 53t-27.5 82q-4 26 0 54t17 52.5t39 45t67 32.5q26 10 42.5 0t34.5 -41q11 -22 2.5 -37.5t-22.5 -30.5
q-10 -6 -18.5 -10t-16.5 -10q-20 -14 -23 -42t11 -42q10 -10 22.5 -8t20.5 12q6 8 12 18.5t10 22.5q23 62 82 117q27 20 64 27.5t73.5 0t68.5 -28t46 -50.5q10 -19 16.5 -39.5t4.5 -42.5q0 -27 -12.5 -51.5t-34 -43t-49 -29.5t-56.5 -9q-12 2 -18 5t-11 15q-4 16 -5 29.5
t-1 38.5q2 12 17 18q8 4 15 7t11 7q9 11 12 22t-8 21q-8 5 -25.5 3.5t-25.5 -7.5q-16 -14 -25.5 -30.5t-19.5 -36.5z" />
    <glyph glyph-name="aring" unicode="&#xe5;" horiz-adv-x="1292" 
d="M905 1651l167 -753l173 -753q6 -22 11.5 -44.5t2 -43t-19.5 -36t-57 -21.5q-35 -4 -80 -5t-88 7t-77 29.5t-44 62.5l-12 51.5t-9 51.5q-10 90 -60 134t-155 48q-73 2 -120.5 -11.5t-75 -41t-39.5 -67.5t-19 -91q-10 -72 -25.5 -106.5t-40 -48t-59 -13.5t-79.5 -2
q-41 -2 -73 4t-51.5 23.5t-26.5 45t1 68.5q17 92 46.5 228.5l65.5 290l73.5 310l70.5 291l57.5 231.5l32.5 130q17 66 24 102.5t25.5 54t58.5 19.5t124 0h27.5h37t35.5 -1t25 -1q47 -2 73.5 -7t41 -20.5t21.5 -43t17 -72.5zM467 948q-6 131 51 271q37 100 35 186
q-41 -121 -72.5 -237.5t-50.5 -233.5q0 -8 1 -14.5t18 -1.5q18 6 19 14t-1 16zM643 621q21 0 43.5 1t39.5 9t25.5 25.5t0.5 48.5q-13 49 -23 121.5t-21.5 140t-25.5 115.5t-35 48q-16 0 -31.5 -48t-29 -115.5t-25.5 -141t-24 -125.5q-9 -34 1.5 -51.5t29 -24t39 -5t36.5 1.5
zM1094 342l4 -77t10 -74.5t24.5 -71.5t45.5 -66q2 78 -20.5 150.5t-63.5 138.5zM645 2118q64 -4 97.5 -32t29.5 -93q-4 -64 -33.5 -110t-103.5 -44q-37 0 -58.5 14.5t-34 36t-18.5 48t-10 55.5q8 59 33.5 94t97.5 31zM645 2032q-27 2 -36 -11.5t-13 -35.5q4 -21 11 -38.5
t34 -19.5q29 0 39 17.5t12 40.5q2 24 -11 34.5t-36 12.5z" />
    <glyph glyph-name="ccedilla" unicode="&#xe7;" horiz-adv-x="1262" 
d="M659 -29q11 -24 35 -30q88 -17 144.5 -59t87 -95t38 -114.5t1.5 -118.5q-9 -66 -29.5 -112t-51 -79t-70.5 -52.5t-87 -33.5q-51 -16 -108.5 -19t-112.5 15t-105.5 62t-89.5 124q-26 52 -14 87.5t72 84.5q41 33 73.5 21t65.5 -41q16 -10 28.5 -27.5t28.5 -29.5
q17 -17 41.5 -25t50 -7t47 11t33.5 29q17 22 8.5 45.5t-30.5 34.5q-23 12 -44.5 21t-43.5 11q-37 9 -77 22t-77 31.5t-65.5 45t-40.5 63.5q-13 33 -1.5 80t46.5 92q-37 17 -59.5 32t-33.5 23q-69 43 -124.5 134.5t-92 213t-54 263t-12.5 284t34.5 274.5t89.5 234
q108 189 238 279t261.5 91t254 -84t219.5 -245q30 -49 43.5 -104t23.5 -113q8 -33 4 -68.5t-45 -45.5q-18 -5 -57 -11t-81 -6t-75 10.5t-39 40.5q-18 78 -67 126t-113.5 63.5t-134.5 -2t-127 -70.5q-35 -33 -56.5 -101.5t-34 -156.5t-11 -184.5t11.5 -183.5t32.5 -154.5
t57.5 -97.5q33 -48 75 -73.5t87 -31.5t89 6t83 41q47 35 75.5 94.5t26.5 114.5q0 43 22.5 57.5t57.5 22.5q6 2 33.5 10t61.5 9t69 -12t55 -56q12 -29 13 -79t-8 -105.5t-27.5 -105.5t-44.5 -77q-93 -129 -214.5 -204.5t-254.5 -88.5h-5zM193 1096q-11 -82 -19 -164t-5 -162
t23.5 -156.5t69.5 -150.5q-39 155 -56.5 313t-12.5 320zM659 1513q91 -4 166.5 -36.5t143.5 -90.5q-27 60 -63 99t-77 55t-85 10t-85 -37zM319 1468q-51 -43 -78.5 -97t-33.5 -128q10 6 16 7t8 5zM502 -201q30 -28 66 -38.5t73 -17.5t74 -16.5t69 -33.5q-28 41 -62 57.5
t-72 22.5t-75.5 9t-72.5 17zM692 -160q43 -22 84 -46.5t76 -78.5q-16 66 -55 94.5t-105 30.5zM389 -451q0 -24 16.5 -35.5t40.5 -17.5q-8 53 -43 66q-4 0 -10 -4t-4 -9z" />
    <glyph glyph-name="eacute" unicode="&#xe9;" horiz-adv-x="948" 
d="M825 358q52 0 70 -23.5t20 -78.5q0 -102 -8 -156.5t-37.5 -77t-87 -24.5t-155.5 -2q-41 2 -103.5 1t-130 -1t-130 -1t-103.5 1q-37 0 -58.5 8t-34 26.5t-18.5 49.5t-12 78q-2 8 -2 71.5v163v224t1 257t1 262.5t1 237.5t0 182t-1 99.5q0 24 2 50t9 46.5t21.5 33.5t36.5 13
q76 0 173.5 -1t199 -1t196.5 -1t167 -1q63 0 67 -74q2 -4 2 -12q-2 -119 -7 -181.5t-24.5 -92t-59.5 -33.5t-111 -6h-111q-72 -2 -114 -4t-62.5 -20.5t-24.5 -62.5t0 -132q6 -29 21.5 -38.5t38.5 -9.5q43 -2 86 -2t84 -2q80 -2 105.5 -32.5t23.5 -112.5q0 -39 -2 -78
t-14.5 -69.5t-41 -49t-82.5 -14.5q-84 4 -128 5t-62 -17.5t-20.5 -64.5t0.5 -138q2 -47 1 -83t6 -60.5t25.5 -37t59.5 -12.5q86 -2 166.5 -3t160.5 1zM715 1583q2 -8 -1 -18.5t-3 -19.5t6 -14t28 -5q27 0 43.5 12t18.5 39q2 25 -2 49.5t-39 28.5q-23 2 -31 -4t-11 -17.5
t-4 -25t-5 -25.5zM649 2081q43 -41 49.5 -83t-41.5 -89q-47 -45 -118.5 -58.5t-133 -7.5t-94 24.5t-2.5 37.5q64 34 96.5 77t69.5 86q45 41 86 50.5t88 -37.5zM578 2068q-41 -2 -61.5 -24.5t-33.5 -58.5q84 8 109 59q4 4 -3 14t-11 10z" />
    <glyph glyph-name="egrave" unicode="&#xe8;" horiz-adv-x="948" 
d="M825 358q52 0 70 -23.5t20 -78.5q0 -102 -8 -156.5t-37.5 -77t-87 -24.5t-155.5 -2q-41 2 -103.5 1t-130 -1t-130 -1t-103.5 1q-37 0 -58.5 8t-34 26.5t-18.5 49.5t-12 78q-2 8 -2 71.5v163v224t1 257t1 262.5t1 237.5t0 182t-1 99.5q0 24 2 50t9 46.5t21.5 33.5t36.5 13
q76 0 173.5 -1t199 -1t196.5 -1t167 -1q63 0 67 -74q2 -4 2 -12q-2 -119 -7 -181.5t-24.5 -92t-59.5 -33.5t-111 -6h-111q-72 -2 -114 -4t-62.5 -20.5t-24.5 -62.5t0 -132q6 -29 21.5 -38.5t38.5 -9.5q43 -2 86 -2t84 -2q80 -2 105.5 -32.5t23.5 -112.5q0 -39 -2 -78
t-14.5 -69.5t-41 -49t-82.5 -14.5q-84 4 -128 5t-62 -17.5t-20.5 -64.5t0.5 -138q2 -47 1 -83t6 -60.5t25.5 -37t59.5 -12.5q86 -2 166.5 -3t160.5 1zM715 1583q2 -8 -1 -18.5t-3 -19.5t6 -14t28 -5q27 0 43.5 12t18.5 39q2 25 -2 49.5t-39 28.5q-23 2 -31 -4t-11 -17.5
t-4 -25t-5 -25.5zM315 2083q47 47 88 37.5t86 -49.5q37 -43 70 -86t96 -78q21 -13 11.5 -25t-37 -22.5t-70.5 -14.5t-88 1t-89 19.5t-75 45.5q-47 47 -41 89t49 83zM387 2071q-4 0 -11 -10.5t-3 -14.5q24 -51 108 -59q-12 36 -32.5 58.5t-61.5 25.5z" />
    <glyph glyph-name="ecircumflex" unicode="&#xea;" horiz-adv-x="948" 
d="M825 358q52 0 70 -23.5t20 -78.5q0 -102 -8 -156.5t-37.5 -77t-87 -24.5t-155.5 -2q-41 2 -103.5 1t-130 -1t-130 -1t-103.5 1q-37 0 -58.5 8t-34 26.5t-18.5 49.5t-12 78q-2 8 -2 71.5v163v224t1 257t1 262.5t1 237.5t0 182t-1 99.5q0 24 2 50t9 46.5t21.5 33.5t36.5 13
q76 0 173.5 -1t199 -1t196.5 -1t167 -1q63 0 67 -74q2 -4 2 -12q-2 -119 -7 -181.5t-24.5 -92t-59.5 -33.5t-111 -6h-111q-72 -2 -114 -4t-62.5 -20.5t-24.5 -62.5t0 -132q6 -29 21.5 -38.5t38.5 -9.5q43 -2 86 -2t84 -2q80 -2 105.5 -32.5t23.5 -112.5q0 -39 -2 -78
t-14.5 -69.5t-41 -49t-82.5 -14.5q-84 4 -128 5t-62 -17.5t-20.5 -64.5t0.5 -138q2 -47 1 -83t6 -60.5t25.5 -37t59.5 -12.5q86 -2 166.5 -3t160.5 1zM715 1583q2 -8 -1 -18.5t-3 -19.5t6 -14t28 -5q27 0 43.5 12t18.5 39q2 25 -2 49.5t-39 28.5q-23 2 -31 -4t-11 -17.5
t-4 -25t-5 -25.5zM371 2073q26 22 50.5 37.5t51.5 13.5q27 2 51.5 -13.5t53.5 -37.5l69 -86t96 -78q27 -17 7.5 -32t-63.5 -23.5t-102.5 -7.5t-111.5 20q-53 -19 -110.5 -20t-101.5 7.5t-63.5 23.5t7.5 32q63 35 96 78t70 86zM487 2073q-4 0 -11 -10.5t-3 -14.5
q25 -51 109 -59q-13 36 -33.5 59t-61.5 25z" />
    <glyph glyph-name="edieresis" unicode="&#xeb;" horiz-adv-x="948" 
d="M825 358q52 0 70 -23.5t20 -78.5q0 -102 -8 -156.5t-37.5 -77t-87 -24.5t-155.5 -2q-41 2 -103.5 1t-130 -1t-130 -1t-103.5 1q-37 0 -58.5 8t-34 26.5t-18.5 49.5t-12 78q-2 8 -2 71.5v163v224t1 257t1 262.5t1 237.5t0 182t-1 99.5q0 24 2 50t9 46.5t21.5 33.5t36.5 13
q76 0 173.5 -1t199 -1t196.5 -1t167 -1q63 0 67 -74q2 -4 2 -12q-2 -119 -7 -181.5t-24.5 -92t-59.5 -33.5t-111 -6h-111q-72 -2 -114 -4t-62.5 -20.5t-24.5 -62.5t0 -132q6 -29 21.5 -38.5t38.5 -9.5q43 -2 86 -2t84 -2q80 -2 105.5 -32.5t23.5 -112.5q0 -39 -2 -78
t-14.5 -69.5t-41 -49t-82.5 -14.5q-84 4 -128 5t-62 -17.5t-20.5 -64.5t0.5 -138q2 -47 1 -83t6 -60.5t25.5 -37t59.5 -12.5q86 -2 166.5 -3t160.5 1zM715 1583q2 -8 -1 -18.5t-3 -19.5t6 -14t28 -5q27 0 43.5 12t18.5 39q2 25 -2 49.5t-39 28.5q-23 2 -31 -4t-11 -17.5
t-4 -25t-5 -25.5zM319 2120q64 -4 98 -32t29 -93q-4 -64 -33.5 -110t-103.5 -44q-37 0 -58.5 14.5t-33.5 36t-18 48t-11 55.5q9 59 34.5 94t96.5 31zM373 2062q-15 -14 -21 -21t-6 -13.5t5 -15.5t14 -27q14 16 23 23t13.5 12t4.5 11.5t-5 22.5q-2 4 -13 8t-15 0zM627 2120
q63 -4 97 -32t30 -93q-4 -64 -34 -110t-104 -44q-36 0 -57.5 14.5t-34 36t-18.5 48t-10 55.5q8 59 33.5 94t97.5 31zM680 2062q-14 -14 -20.5 -21t-6.5 -13.5t5.5 -15.5t13.5 -27q14 16 23.5 23t13.5 12t4 11.5t-4 22.5q-2 4 -13.5 8t-15.5 0z" />
    <glyph glyph-name="iacute" unicode="&#xed;" horiz-adv-x="530" 
d="M468 1604v-173.5v-254t-1 -294t-1 -295t1 -255t3 -174.5q2 -78 -44 -121t-167 -49q-65 -4 -104 7t-60.5 32.5t-29 51.5t-7.5 64q-2 117 -6 276t-7 329t-5 338.5t-4 305t-3 227.5t1 107q2 25 17.5 39.5t38 20.5t49 7t53.5 3l78 4t76 -3t64.5 -21.5t43.5 -53.5
q10 -28 12 -59t2 -59zM241 932q6 98 13 195.5t7 194.5t-12 194.5t-43 193.5q-14 -98 -9 -195.5t15 -194.5l20.5 -193.5t8.5 -194.5zM413 2148q43 -41 49.5 -83t-40.5 -89q-47 -45 -119 -58t-133.5 -7t-94 24.5t-2.5 36.5q64 35 97 78l69 86q45 41 86 50t88 -38zM342 2136
q-41 -2 -61.5 -24.5t-32.5 -59.5q84 8 108 59q4 5 -3 15t-11 10z" />
    <glyph glyph-name="igrave" unicode="&#xec;" horiz-adv-x="530" 
d="M468 1604v-173.5v-254t-1 -294t-1 -295t1 -255t3 -174.5q2 -78 -44 -121t-167 -49q-65 -4 -104 7t-60.5 32.5t-29 51.5t-7.5 64q-2 117 -6 276t-7 329t-5 338.5t-4 305t-3 227.5t1 107q2 25 17.5 39.5t38 20.5t49 7t53.5 3l78 4t76 -3t64.5 -21.5t43.5 -53.5
q10 -28 12 -59t2 -59zM241 932q6 98 13 195.5t7 194.5t-12 194.5t-43 193.5q-14 -98 -9 -195.5t15 -194.5l20.5 -193.5t8.5 -194.5zM40 2148q47 47 88 38t86 -50q37 -43 70 -86t96 -78q21 -12 11.5 -24.5t-37 -22.5t-70.5 -14t-88 1t-89 19.5t-75 44.5q-47 47 -41 89t49 83z
M112 2136q-4 0 -11.5 -10t-2.5 -15q24 -51 108 -59q-12 37 -32.5 59.5t-61.5 24.5z" />
    <glyph glyph-name="icircumflex" unicode="&#xee;" horiz-adv-x="530" 
d="M468 1604v-173.5v-254t-1 -294t-1 -295t1 -255t3 -174.5q2 -78 -44 -121t-167 -49q-65 -4 -104 7t-60.5 32.5t-29 51.5t-7.5 64q-2 117 -6 276t-7 329t-5 338.5t-4 305t-3 227.5t1 107q2 25 17.5 39.5t38 20.5t49 7t53.5 3l78 4t76 -3t64.5 -21.5t43.5 -53.5
q10 -28 12 -59t2 -59zM241 932q6 98 13 195.5t7 194.5t-12 194.5t-43 193.5q-14 -98 -9 -195.5t15 -194.5l20.5 -193.5t8.5 -194.5zM217 2136q27 23 51.5 38t50.5 13q27 2 51.5 -13t53.5 -38q37 -43 69.5 -86t96.5 -78q26 -16 7 -31.5t-63.5 -23.5t-102.5 -7t-112 19
q-53 -18 -110 -19t-101.5 7t-63.5 23.5t7 31.5q64 35 96.5 78t69.5 86zM334 2136q-4 0 -11.5 -10t-3.5 -15q25 -51 109 -59q-12 37 -32.5 59.5t-61.5 24.5z" />
    <glyph glyph-name="idieresis" unicode="&#xef;" horiz-adv-x="530" 
d="M468 1604v-173.5v-254t-1 -294t-1 -295t1 -255t3 -174.5q2 -78 -44 -121t-167 -49q-65 -4 -104 7t-60.5 32.5t-29 51.5t-7.5 64q-2 117 -6 276t-7 329t-5 338.5t-4 305t-3 227.5t1 107q2 25 17.5 39.5t38 20.5t49 7t53.5 3l78 4t76 -3t64.5 -21.5t43.5 -53.5
q10 -28 12 -59t2 -59zM241 932q6 98 13 195.5t7 194.5t-12 194.5t-43 193.5q-14 -98 -9 -195.5t15 -194.5l20.5 -193.5t8.5 -194.5zM119 2183q63 -4 97 -31.5t30 -93.5q-4 -63 -34 -109t-103 -44q-37 0 -58.5 14t-34 35.5t-18.5 48.5t-10 55q8 60 33.5 94.5t97.5 30.5z
M172 2126l-20.5 -22t-6.5 -13t5.5 -15.5t13.5 -27.5q14 16 23.5 23.5t13.5 12.5t4 11t-4 23q-2 4 -13.5 8t-15.5 0zM426 2183q63 -4 97 -31.5t30 -93.5q-4 -63 -34 -109t-103 -44q-37 0 -58.5 14t-34 35.5t-18.5 48.5t-10 55q8 60 33.5 94.5t97.5 30.5zM479 2126
q-14 -15 -20 -22t-6 -13t5 -15.5t13 -27.5q14 16 23.5 23.5t13.5 12.5t4 11t-4 23q-2 4 -13.5 8t-15.5 0z" />
    <glyph glyph-name="ntilde" unicode="&#xf1;" horiz-adv-x="1288" 
d="M1206 1782q37 -10 44 -47t7 -70q0 -387 -1 -768t1 -766q0 -131 -110 -131h-197q-24 0 -41.5 4t-31 15.5t-26.5 32t-30 54.5q-22 33 -66 132.5l-97.5 228.5l-112 267l-109.5 249q-2 -33 -3 -97.5t-2 -145.5t-2 -172l-2 -176t-2 -158.5t-1 -120.5q4 -72 -23.5 -94.5
t-93.5 -18.5q-76 2 -126 5t-80.5 20.5t-44 57.5t-13.5 118q-4 364 0 708t2 711q0 25 -1 55.5t5 58t23.5 47t54.5 19.5h156.5t108.5 -11t73 -40t49 -84l63.5 -177.5l75.5 -210l79 -216l72 -194.5t55.5 -145t29.5 -69q-2 121 -6 262.5t-8.5 286l-8.5 281.5t-6 250
q0 24 36 40.5t88 22.5t112.5 2t109.5 -16zM141 221q2 -43 7.5 -71.5t17.5 -47t31.5 -33t54.5 -30.5q-16 53 -42 97t-69 85zM520 1245q37 -110 81 -213.5t122 -193.5l-86 210.5l-88 208.5q-8 -4 -29 -12zM938 1720q27 -37 56.5 -44t60 -3t60.5 11.5t56 -5.5q-51 43 -109 49.5
t-124 -8.5zM688 1952q-12 -41 -36.5 -64.5t-53.5 -33t-59.5 -7.5t-55.5 11q-61 18 -84.5 53t-27.5 82q-4 26 0 54t17 52.5t39 45t67 32.5q26 10 42.5 0t34.5 -41q11 -22 2.5 -37.5t-22.5 -30.5q-10 -6 -18.5 -10t-16.5 -10q-20 -14 -23.5 -42t11.5 -42q10 -10 22.5 -8
t20.5 12q6 8 12 18.5t10 22.5q23 62 82 117q27 20 64 27.5t73.5 0t68.5 -28t46 -50.5q10 -19 16.5 -39.5t4.5 -42.5q0 -27 -12.5 -51.5t-34 -43t-49 -29.5t-56.5 -9q-12 2 -18 5t-11 15q-4 16 -5 29.5t-1 38.5q2 12 17 18q8 4 15 7t11 7q8 11 11.5 22t-7.5 21
q-8 5 -25.5 3.5t-25.5 -7.5q-16 -14 -25.5 -30.5t-19.5 -36.5z" />
    <glyph glyph-name="oacute" unicode="&#xf3;" horiz-adv-x="1253" 
d="M907 1767q68 -32 109 -83.5t67.5 -113t42 -129l31.5 -132.5q47 -199 46 -396.5t-32 -396.5q-22 -145 -85.5 -255.5t-157.5 -179.5t-213 -89.5t-254 16.5q-101 27 -184.5 108t-129.5 193q-59 144 -88.5 296.5t-25.5 338.5q6 62 10 128.5t14.5 136t26.5 140t47 140.5
q49 119 140 194.5t200 109.5t223.5 26.5t212.5 -52.5zM856 1317q-31 53 -71 101t-111 89q14 -41 37.5 -68.5t48 -47t50.5 -37t46 -37.5zM590 1624q-53 8 -106.5 -7t-99.5 -47t-78 -78t-40 -95l157 110.5zM317 537q23 -117 73 -164t155 -49l-130.5 95t-97.5 118zM444 612
q21 -92 70 -144t123 -54q39 0 66.5 17.5t47 47t32 67.5t20.5 79q12 49 12 103t4 108q2 92 -7 178t-38 170q-29 78 -79 132t-115 52q-31 -2 -54.5 -21.5t-41 -49t-29 -65.5t-15.5 -73q-20 -135 -22 -273t26 -274zM684 223q70 2 119 17.5t83 45t55.5 76t33.5 111.5
q-23 -45 -53.5 -79t-68.5 -62.5t-81 -55zM803 2087q43 -41 49 -83t-41 -89q-47 -45 -118.5 -58.5t-133 -7.5t-94.5 24.5t-2 37.5q63 35 96 78t70 86q45 41 86 50t88 -38zM731 2075q-41 -2 -61.5 -24.5t-32.5 -59.5q84 8 108 59q5 4 -2.5 14.5t-11.5 10.5z" />
    <glyph glyph-name="ograve" unicode="&#xf2;" horiz-adv-x="1253" 
d="M907 1767q68 -32 109 -83.5t67.5 -113t42 -129l31.5 -132.5q47 -199 46 -396.5t-32 -396.5q-22 -145 -85.5 -255.5t-157.5 -179.5t-213 -89.5t-254 16.5q-101 27 -184.5 108t-129.5 193q-59 144 -88.5 296.5t-25.5 338.5q6 62 10 128.5t14.5 136t26.5 140t47 140.5
q49 119 140 194.5t200 109.5t223.5 26.5t212.5 -52.5zM856 1317q-31 53 -71 101t-111 89q14 -41 37.5 -68.5t48 -47t50.5 -37t46 -37.5zM590 1624q-53 8 -106.5 -7t-99.5 -47t-78 -78t-40 -95l157 110.5zM317 537q23 -117 73 -164t155 -49l-130.5 95t-97.5 118zM444 612
q21 -92 70 -144t123 -54q39 0 66.5 17.5t47 47t32 67.5t20.5 79q12 49 12 103t4 108q2 92 -7 178t-38 170q-29 78 -79 132t-115 52q-31 -2 -54.5 -21.5t-41 -49t-29 -65.5t-15.5 -73q-20 -135 -22 -273t26 -274zM684 223q70 2 119 17.5t83 45t55.5 76t33.5 111.5
q-23 -45 -53.5 -79t-68.5 -62.5t-81 -55zM451 2085q47 47 88 38t86 -50q37 -43 69.5 -86t96.5 -78q20 -13 11 -25t-37 -22.5t-71 -14.5t-88 1t-89 19.5t-75 45.5q-47 47 -40.5 89t49.5 83zM522 2073q-4 0 -11 -10.5t-3 -14.5q24 -51 108 -59q-12 36 -32.5 59t-61.5 25z" />
    <glyph glyph-name="ocircumflex" unicode="&#xf4;" horiz-adv-x="1253" 
d="M907 1767q68 -32 109 -83.5t67.5 -113t42 -129l31.5 -132.5q47 -199 46 -396.5t-32 -396.5q-22 -145 -85.5 -255.5t-157.5 -179.5t-213 -89.5t-254 16.5q-101 27 -184.5 108t-129.5 193q-59 144 -88.5 296.5t-25.5 338.5q6 62 10 128.5t14.5 136t26.5 140t47 140.5
q49 119 140 194.5t200 109.5t223.5 26.5t212.5 -52.5zM856 1317q-31 53 -71 101t-111 89q14 -41 37.5 -68.5t48 -47t50.5 -37t46 -37.5zM590 1624q-53 8 -106.5 -7t-99.5 -47t-78 -78t-40 -95l157 110.5zM317 537q23 -117 73 -164t155 -49l-130.5 95t-97.5 118zM444 612
q21 -92 70 -144t123 -54q39 0 66.5 17.5t47 47t32 67.5t20.5 79q12 49 12 103t4 108q2 92 -7 178t-38 170q-29 78 -79 132t-115 52q-31 -2 -54.5 -21.5t-41 -49t-29 -65.5t-15.5 -73q-20 -135 -22 -273t26 -274zM684 223q70 2 119 17.5t83 45t55.5 76t33.5 111.5
q-23 -45 -53.5 -79t-68.5 -62.5t-81 -55zM522 2077q27 22 51.5 37.5t51.5 13.5q26 2 50.5 -13.5t53.5 -37.5q37 -43 69.5 -86t96.5 -78q27 -17 7.5 -32t-63.5 -23.5t-102.5 -7.5t-111.5 20q-54 -19 -111 -20t-101 7.5t-63.5 23.5t6.5 32q64 35 96.5 78t69.5 86zM639 2077
q-4 0 -11 -10.5t-3 -14.5q24 -51 108 -59q-12 37 -32.5 59.5t-61.5 24.5z" />
    <glyph glyph-name="odieresis" unicode="&#xf6;" horiz-adv-x="1253" 
d="M907 1767q68 -32 109 -83.5t67.5 -113t42 -129l31.5 -132.5q47 -199 46 -396.5t-32 -396.5q-22 -145 -85.5 -255.5t-157.5 -179.5t-213 -89.5t-254 16.5q-101 27 -184.5 108t-129.5 193q-59 144 -88.5 296.5t-25.5 338.5q6 62 10 128.5t14.5 136t26.5 140t47 140.5
q49 119 140 194.5t200 109.5t223.5 26.5t212.5 -52.5zM856 1317q-31 53 -71 101t-111 89q14 -41 37.5 -68.5t48 -47t50.5 -37t46 -37.5zM590 1624q-53 8 -106.5 -7t-99.5 -47t-78 -78t-40 -95l157 110.5zM317 537q23 -117 73 -164t155 -49l-130.5 95t-97.5 118zM444 612
q21 -92 70 -144t123 -54q39 0 66.5 17.5t47 47t32 67.5t20.5 79q12 49 12 103t4 108q2 92 -7 178t-38 170q-29 78 -79 132t-115 52q-31 -2 -54.5 -21.5t-41 -49t-29 -65.5t-15.5 -73q-20 -135 -22 -273t26 -274zM684 223q70 2 119 17.5t83 45t55.5 76t33.5 111.5
q-23 -45 -53.5 -79t-68.5 -62.5t-81 -55zM471 2126q64 -4 97.5 -32t29.5 -93q-4 -64 -33.5 -110t-103.5 -44q-37 0 -58.5 14.5t-34 36t-18.5 48t-10 55.5q8 59 33.5 94t97.5 31zM524 2068q-14 -14 -20 -21t-6 -13t5 -15.5t13 -27.5q14 16 23.5 23t13.5 12.5t4 11.5t-4 22
q-2 4 -13.5 8.5t-15.5 -0.5zM778 2126q64 -4 97.5 -32t29.5 -93q-4 -64 -33.5 -110t-103.5 -44q-37 0 -58.5 14.5t-33.5 36t-18.5 48t-10.5 55.5q8 59 34 94t97 31zM831 2068q-14 -14 -20 -21t-6 -13t5 -15.5t13 -27.5q15 16 24 23t13 12.5t4 11.5t-4 22q-2 4 -13 8.5
t-16 -0.5z" />
    <glyph glyph-name="otilde" unicode="&#xf5;" horiz-adv-x="1253" 
d="M907 1767q68 -32 109 -83.5t67.5 -113t42 -129l31.5 -132.5q47 -199 46 -396.5t-32 -396.5q-22 -145 -85.5 -255.5t-157.5 -179.5t-213 -89.5t-254 16.5q-101 27 -184.5 108t-129.5 193q-59 144 -88.5 296.5t-25.5 338.5q6 62 10 128.5t14.5 136t26.5 140t47 140.5
q49 119 140 194.5t200 109.5t223.5 26.5t212.5 -52.5zM856 1317q-31 53 -71 101t-111 89q14 -41 37.5 -68.5t48 -47t50.5 -37t46 -37.5zM590 1624q-53 8 -106.5 -7t-99.5 -47t-78 -78t-40 -95l157 110.5zM317 537q23 -117 73 -164t155 -49l-130.5 95t-97.5 118zM444 612
q21 -92 70 -144t123 -54q39 0 66.5 17.5t47 47t32 67.5t20.5 79q12 49 12 103t4 108q2 92 -7 178t-38 170q-29 78 -79 132t-115 52q-31 -2 -54.5 -21.5t-41 -49t-29 -65.5t-15.5 -73q-20 -135 -22 -273t26 -274zM684 223q70 2 119 17.5t83 45t55.5 76t33.5 111.5
q-23 -45 -53.5 -79t-68.5 -62.5t-81 -55zM670 1944q-13 -41 -37.5 -65t-53 -33t-59.5 -7t-55 10q-62 19 -85.5 53.5t-27.5 82.5q-4 26 0 53.5t17.5 52.5t39 45.5t66.5 32.5q27 10 43.5 0t34.5 -41q10 -23 2 -38t-23 -30q-10 -6 -18 -10t-16 -10q-21 -15 -24 -42.5t11 -41.5
q11 -10 23 -8t20 12q7 8 13 18.5t10 22.5q22 61 82 117q26 20 63 27t74 0t68.5 -27.5t46.5 -51.5q10 -18 16 -38.5t4 -42.5q0 -27 -12 -51.5t-33.5 -43t-49.5 -30t-56 -9.5q-13 2 -19 5.5t-10 15.5q-4 16 -5 29.5t-1 37.5q2 13 16 19q8 4 15.5 7t11.5 7q8 10 11 21.5
t-7 21.5q-8 4 -25.5 3t-25.5 -7q-17 -14 -26 -30.5z" />
    <glyph glyph-name="uacute" unicode="&#xfa;" horiz-adv-x="1208" 
d="M891 1800q94 0 144 -2t75 -16.5t32 -46t13 -88.5q4 -56 7 -148t5 -200.5t3 -223t1 -216t-2 -180.5t-6 -116q-8 -100 -37.5 -195.5t-86 -172t-141.5 -129t-204 -66.5q-80 -8 -161.5 2t-154.5 41t-132.5 83t-95.5 128q-64 137 -83.5 279.5t-25.5 289.5q-8 205 -3 418t3 418
q0 55 21.5 82.5t56.5 39t76 13.5t81 6q189 19 189 -145q0 -105 1 -227.5l2 -248.5l2 -249t1 -228q0 -63 8 -128.5t45 -118.5q19 -27 53.5 -38t75.5 -1q35 8 60.5 28.5t29.5 49.5q5 20 8 59t4 83t3 84t2 60q4 113 5 233t0 232.5t-2 211.5t-1 173q0 27 3 56.5t15.5 54t38 42
t72.5 17.5zM268 324q64 -123 144 -158t206 0q-49 2 -93 15.5t-86 35t-84 49zM780 2089q43 -41 49.5 -83t-41.5 -89q-47 -45 -118.5 -58.5t-133 -7t-94 24.5t-2.5 37q64 35 96.5 78t69.5 86q45 41 86 50t88 -38zM709 2077q-41 -2 -61.5 -24.5t-33.5 -59.5q84 8 109 59
q4 4 -3 14.5t-11 10.5z" />
    <glyph glyph-name="ugrave" unicode="&#xf9;" horiz-adv-x="1208" 
d="M891 1800q94 0 144 -2t75 -16.5t32 -46t13 -88.5q4 -56 7 -148t5 -200.5t3 -223t1 -216t-2 -180.5t-6 -116q-8 -100 -37.5 -195.5t-86 -172t-141.5 -129t-204 -66.5q-80 -8 -161.5 2t-154.5 41t-132.5 83t-95.5 128q-64 137 -83.5 279.5t-25.5 289.5q-8 205 -3 418t3 418
q0 55 21.5 82.5t56.5 39t76 13.5t81 6q189 19 189 -145q0 -105 1 -227.5l2 -248.5l2 -249t1 -228q0 -63 8 -128.5t45 -118.5q19 -27 53.5 -38t75.5 -1q35 8 60.5 28.5t29.5 49.5q5 20 8 59t4 83t3 84t2 60q4 113 5 233t0 232.5t-2 211.5t-1 173q0 27 3 56.5t15.5 54t38 42
t72.5 17.5zM268 324q64 -123 144 -158t206 0q-49 2 -93 15.5t-86 35t-84 49zM428 2083q47 47 88 37.5t86 -49.5q37 -43 70 -86t96 -78q20 -13 11 -25t-36.5 -22.5t-70.5 -14.5t-88 1t-89 19.5t-75 45.5q-47 47 -41 89t49 83zM500 2071q-4 0 -11.5 -10.5t-3.5 -14.5
q25 -51 109 -59q-12 36 -32.5 58.5t-61.5 25.5z" />
    <glyph glyph-name="ucircumflex" unicode="&#xfb;" horiz-adv-x="1208" 
d="M891 1800q94 0 144 -2t75 -16.5t32 -46t13 -88.5q4 -56 7 -148t5 -200.5t3 -223t1 -216t-2 -180.5t-6 -116q-8 -100 -37.5 -195.5t-86 -172t-141.5 -129t-204 -66.5q-80 -8 -161.5 2t-154.5 41t-132.5 83t-95.5 128q-64 137 -83.5 279.5t-25.5 289.5q-8 205 -3 418t3 418
q0 55 21.5 82.5t56.5 39t76 13.5t81 6q189 19 189 -145q0 -105 1 -227.5l2 -248.5l2 -249t1 -228q0 -63 8 -128.5t45 -118.5q19 -27 53.5 -38t75.5 -1q35 8 60.5 28.5t29.5 49.5q5 20 8 59t4 83t3 84t2 60q4 113 5 233t0 232.5t-2 211.5t-1 173q0 27 3 56.5t15.5 54t38 42
t72.5 17.5zM268 324q64 -123 144 -158t206 0q-49 2 -93 15.5t-86 35t-84 49zM500 2073q26 22 50.5 37.5t51.5 13.5q27 2 51.5 -13.5t53.5 -37.5l69 -86t96 -78q27 -17 7.5 -32t-63.5 -23.5t-102.5 -7.5t-111.5 20q-53 -19 -110.5 -20t-101.5 7.5t-63.5 23.5t7.5 32
q63 35 96 78t70 86zM616 2073q-4 0 -11 -10.5t-3 -14.5q25 -51 109 -59q-13 36 -33.5 59t-61.5 25z" />
    <glyph glyph-name="udieresis" unicode="&#xfc;" horiz-adv-x="1208" 
d="M891 1800q94 0 144 -2t75 -16.5t32 -46t13 -88.5q4 -56 7 -148t5 -200.5t3 -223t1 -216t-2 -180.5t-6 -116q-8 -100 -37.5 -195.5t-86 -172t-141.5 -129t-204 -66.5q-80 -8 -161.5 2t-154.5 41t-132.5 83t-95.5 128q-64 137 -83.5 279.5t-25.5 289.5q-8 205 -3 418t3 418
q0 55 21.5 82.5t56.5 39t76 13.5t81 6q189 19 189 -145q0 -105 1 -227.5l2 -248.5l2 -249t1 -228q0 -63 8 -128.5t45 -118.5q19 -27 53.5 -38t75.5 -1q35 8 60.5 28.5t29.5 49.5q5 20 8 59t4 83t3 84t2 60q4 113 5 233t0 232.5t-2 211.5t-1 173q0 27 3 56.5t15.5 54t38 42
t72.5 17.5zM268 324q64 -123 144 -158t206 0q-49 2 -93 15.5t-86 35t-84 49zM449 2124q63 -4 97 -32t29 -93q-4 -64 -33.5 -110t-103.5 -44q-37 0 -58.5 14.5t-33.5 36t-18 48t-11 55.5q9 59 34.5 94t97.5 31zM502 2066q-15 -14 -21 -21t-6 -13.5t5 -15.5t14 -27
q14 16 23 23t13.5 12.5t4.5 11.5t-5 22q-2 4 -13 8.5t-15 -0.5zM756 2124q63 -4 97 -32t30 -93q-4 -64 -34 -110t-104 -44q-36 0 -57.5 14.5t-34 36t-18.5 48t-10 55.5q8 59 33.5 94t97.5 31zM809 2066q-14 -14 -20.5 -21t-6.5 -13.5t5.5 -15.5t13.5 -27q14 16 23.5 23
t13.5 12.5t4 11.5t-4 22q-2 4 -13.5 8.5t-15.5 -0.5z" />
    <glyph glyph-name="dagger" unicode="&#x2020;" horiz-adv-x="934" 
d="M355 -350v1180h-299v232h299v386h216v-386h297v-232h-297v-1180h-216z" />
    <glyph glyph-name="degree" unicode="&#xb0;" horiz-adv-x="819" 
d="M410 1490q158 -9 240.5 -73t72.5 -212q-9 -146 -82 -251t-256 -101q-91 0 -144.5 33t-84 82t-45.5 109.5t-25 127.5q20 134 83 214t241 71zM410 1294q-67 4 -89.5 -26.5t-31.5 -81.5q9 -48 26.5 -87.5t84.5 -44.5q71 0 96 40t30 92q5 55 -27.5 79t-88.5 29z" />
    <glyph glyph-name="cent" unicode="&#xa2;" horiz-adv-x="934" 
d="M682 25q83 44 147 120q18 16 31 46q12 29 19 62q6 33 5 62q-1 30 -9 47q-14 25 -38 33t-47 7q-23 0 -42 -5l-23 -6q-24 -5 -40 -13q-15 -9 -15 -34q1 -33 -18 -68q-20 -35 -52 -56q-27 -17 -57 -24t-61 -3q-31 3 -60 18q-28 15 -51 44q-24 17 -40 57q-15 40 -22 91
q-7 52 -8 109t8 108q8 52 23 93q15 40 39 60q39 31 87 41q48 11 92 1q45 -9 78 -37q34 -28 46 -74q4 -18 27 -24t51 -6q29 0 56 3q27 4 39 7q28 6 31 26q3 21 -3 41q-7 34 -16 67q-9 32 -30 61q-66 94 -150 144q-84 51 -175 50q-90 -1 -179 -54t-163 -164q-41 -60 -62 -138
q-20 -78 -23 -162q-4 -84 8 -168q12 -83 37 -155t63 -126t86 -79q9 -5 25 -15t43 -19q28 -9 69 -16q42 -7 99 -4q92 7 175 52zM193 448q12 -94 39 -185q-34 44 -48 89t-16 92t3 96q6 48 13 96q-3 -95 9 -188zM562 904q30 4 59 -6q28 -9 52 -32q25 -23 44 -58q-47 34 -99 53
t-114 21q28 19 58 22zM205 727q-4 0 -11 -4q4 44 23 76t54 57l-61 -126q-1 -2 -5 -3zM552 1419.5q-17 -31.5 -25 -97.5q-9 -69 -27.5 -191l-42.5 -269.5l-51.5 -308.5l-51.5 -305l-44 -258t-29 -172q-10 -52 -10 -74.5t14 -36.5q2 -3 15.5 -9t30 -12.5l34 -13t28.5 -11.5
q18 -8 28 0.5t17 58.5l54 305.5l60 342.5l62 357.5l58 351.5q13 80 23 133.5t14 87t1.5 53.5t-15 33t-36 24t-60.5 30q-30 13 -47 -18.5zM559.5 1205q-3.5 16 -4.5 33q-3 49 19.5 77.5t75.5 36.5l-2 -24.5t-5 -23.5q-8 -15 -10 -33.5t-6.5 -35.5t-15 -30t-34.5 -15
q-14 -1 -17.5 15z" />
    <glyph glyph-name="sterling" unicode="&#xa3;" horiz-adv-x="1063" 
d="M900 283q70 -8 94.5 -52t15.5 -144q-3 -27 -14 -44.5t-27.5 -26.5t-35.5 -12.5t-41 -3.5h-59.5h-104h-128t-136 1t-126 1h-96.5q-48 0 -76 4t-42.5 19t-21.5 43t-13 75q-19 175 76.5 437.5t94.5 297.5q67 -99 113.5 -26t66.5 -54q89 -80 37 -217t5.5 -201t80 -68.5
t68.5 -7.5q66 -5 134.5 -9.5t134.5 -11.5zM214 133q5 67 9 133.5l8 133.5q-9 2 -26 2q-32 -65 -27.5 -132t36.5 -137zM854 890q0 -84 -2 -123.5t-15 -53t-42 -10.5t-86 3q-81 0 -166 1.5t-169.5 5t-163 5.5t-144.5 7q-24 -2 -29.5 10t-5.5 39v41v51.5v45v23.5
q4 25 13.5 29.5t35.5 2.5q28 0 81.5 -1t122.5 -3.5t144 -3.5t145 -1t127 1t89 6q65 11 65 -75zM80 890q4 -20 14.5 -18.5t20.5 5.5q92 18 182 21.5t183 -12.5q45 -38 247 4l-308.5 21t-310.5 4l-21.5 -4t-6.5 -21zM754 810q-4 13 -11 17.5t-15.5 4.5t-16.5 -2t-16 0
q-6 2 -11.5 0t-10.5 -2q5 -11 -12 -19.5t-37.5 -14t-36 -8.5t-10 -4t40 0t116.5 5q8 0 14.5 6.5t5.5 16.5zM671 1362q5 42 1 86q-5 44 -30 75q-29 34 -67 39q-55 12 -102 -23t-58 -98q-15 -93 -11 -178q10 -53 21 -98q11 -44 28 -86q17 -43 43 -87q25 -44 65 -98
q38 -42 70 -91q31 -49 49 -95q-215 87 -215 46q1 -40 -24 -65q-19 -22 -69 -30t80 112q5 -236 -29 -213q-66 14 -25 66q6 26 -10 63q-16 36 -44 76q-27 39 -62 81l-68 81q-33 38 -58 70q-26 32 -34 54q-52 125 -48 256q4 130 56 264q21 53 62 97t94 76q52 32 113 51
q61 18 121 18q90 1 155 -12q64 -13 111 -40t81 -69t62 -100q23 -70 31 -145q7 -74 2 -142t-21 -126t-41 -95q-6 -9 -26 -20q-21 -11 -48 -16q-27 -6 -59 -3q-31 3 -58 23q-26 20 -44 61q-19 41 -21 111l7 23q15 52 20 101z" />
    <glyph glyph-name="section" unicode="&#xa7;" horiz-adv-x="984" 
d="M672 914q103 -35 160.5 -94t81 -130.5t19 -146.5t-24.5 -140q-23 -76 -57.5 -125.5t-77 -81t-94 -47t-109.5 -21.5q-64 -7 -131 2t-129 42t-111.5 94.5t-78.5 162.5q-9 34 -9 59t12.5 47t37 43t64.5 43q28 15 50 15.5t41 -8t36 -24.5t33 -36q18 -17 28.5 -39.5
t24.5 -41.5q17 -23 45 -37t57.5 -18t57.5 3t46 25q24 24 19 52.5t-30 47.5q-21 17 -46.5 32.5t-51.5 22.5q-80 36 -152 85.5t-132 118.5q-57 64 -73.5 155.5t0 182.5t65 168t124.5 114q49 23 101 40t104 11q67 0 128 -32.5t107 -84.5t71.5 -119t20.5 -137q-4 -29 -11 -46.5
t-38 -23.5l-38.5 -8.5t-35 -5t-39.5 -1.5t-50 2q-15 1 -28 12.5t-22 29.5q-7 16 -15 31.5t-21 27.5q-21 21 -49.5 29t-49.5 -18q-8 -9 -11 -26.5t-1.5 -35.5t7 -35t12.5 -26q35 -39 75 -66t88 -43zM193 605q-4 -31 12 -47t45 -29q-1 34 -8.5 54.5t-29.5 32.5q-3 2 -11 -3
t-8 -8zM380 874q29 -40 69 -60.5t82 -37.5l83 -35t75 -53q-23 55 -60.5 80.5t-80.5 41t-87 27t-81 37.5zM611 880l46 -33.5t43.5 -37t39 -47.5t33.5 -62q-4 80 -44 122.5t-118 57.5zM611 358q103 -34 160 -93.5t80.5 -130.5t19 -146.5t-24.5 -140.5q-23 -76 -57 -125.5
t-77 -81t-94 -46.5t-110 -21q-64 -8 -131 1t-129 42t-111.5 95t-78.5 162q-9 34 -9 59.5t12.5 47.5t37.5 42.5t64 43.5q28 14 50 14.5t41 -8t36 -24.5t33 -35q18 -17 28.5 -40t24.5 -41q17 -24 45 -38t57.5 -18t57.5 3t46 25q24 25 19 53t-30 48q-21 17 -46.5 32t-51.5 23
q-80 35 -152 84.5t-132 118.5q-56 65 -73 156t0 182t65 168.5t125 113.5q48 23 100 40t104 11q67 0 128 -32t107 -84.5t71.5 -119.5t20.5 -137q-3 -29 -10.5 -46.5t-38.5 -23.5q-22 -5 -38.5 -8t-35 -4.5t-39.5 -1.5t-50 1q-14 2 -27.5 13.5t-21.5 28.5l-16 31.5t-21 27.5
q-21 22 -49.5 29.5t-49.5 -18.5q-8 -9 -11 -26t-1.5 -35.5t7 -35t12.5 -25.5q35 -40 75 -66.5t89 -43.5zM168 -35q-3 -30 13 -46.5t45 -29.5q-2 34 -9.5 54.5t-28.5 32.5q-3 2 -11.5 -3t-8.5 -8zM356 234q29 -40 68.5 -60.5t82 -37t83.5 -35t74 -53.5q-23 55 -60 81t-80 41
t-87 26.5t-81 37.5zM587 240l45 -33.5t43.5 -37t39 -47.5t34.5 -62q-5 80 -45 122.5t-117 57.5zM623 1424q-8 -31 26 -47t95 -29q-3 33 -19 53.5t-61 33.5q-7 2 -24 -3t-17 -8z" />
    <glyph glyph-name="bullet" unicode="&#x2022;" horiz-adv-x="588" 
d="M539 724q0 -127 -73 -211.5t-170 -84.5q-96 0 -169 84.5t-73 211.5t73 211t169 84q97 0 170 -84t73 -211zM412 902q-28 -28 -41 -43t-13 -27t11 -30t27 -56q28 34 47 48t27 24t8 22t-8 46q-4 8 -27 16t-31 0z" />
    <glyph glyph-name="paragraph" unicode="&#xb6;" horiz-adv-x="934" 
d="M520 -403h-199v1047q-149 13 -236 118t-87 290q0 116 38.5 205t95.5 133.5t125 63.5q46 12 179 12h490v-261h-93v-1608h-195v1608h-118v-1608zM130 1322q-42 -41 -43 -83q-2 -42 21 -95q42 47 57 86q16 37 5 81q-3 5 -19 11t-21 0z" />
    <glyph glyph-name="germandbls" unicode="&#xdf;" horiz-adv-x="1132" 
d="M400 1101q0 19 -1 39q-2 20 -8 39q-10 24 -29 35t-42 14q-24 3 -50 2q-30 -1 -52 -2l-35 -2q-17 -1 -32 -5t-25 -14q-10 -9 -11 -26q-2 -10 -1 -70q1 -61 2 -150q1 -91 2 -200l4 -223l4 -216q3 -107 4 -182q0 -22 5 -42t19 -34t40 -21t69 -5q79 4 109 32q31 29 29 80
q-1 40 -2 115v168v194q1 101 1 193v281zM260 677l-11 153q-6 77 -8 154q-3 78 5 156q17 -76 23 -154q7 -78 7 -154q0 -77 -4 -155l-7 -155q1 78 -5 155zM1073 149q-26 162 -104 281t-224 204l-4 3l58 76q26 34 42 70t20 81q5 45 -5 109q-8 51 -31 118t-58 132t-81 118
q-45 53 -94 76q-76 35 -146 51q-71 16 -132 13q-61 -2 -105 -24t-64 -66q-22 -46 -29 -105q-8 -58 14 -119q10 -30 30 -43q20 -14 42 -21t47 -13t46 -18q3 -3 8 -3q6 0 9 -3q51 -28 72 -16t10 75q-5 25 -5 49q0 23 7 39q8 16 25 22t48 -1q22 -6 46 -36q24 -31 44 -71
q19 -40 30 -81q12 -41 12 -70q-3 -50 -15 -80q-13 -31 -32 -52q-20 -21 -46 -37q-27 -17 -57 -40q-13 -9 -13 -33q0 -23 9 -52t27 -59t46 -56q6 -6 12 -11q8 -7 17 -14l38 -34q21 -17 38 -33t27 -29q59 -72 42 -108q-16 -36 -85 -41q131 -10 76 -3q-56 8 -107 2
q-54 -6 -62 -45q-9 -39 21 -131q8 -26 21 -42q12 -17 28 -26q15 -10 31 -14q17 -4 32 -4q13 0 49 -2q35 -1 82 -2q48 -1 11 0q-36 2 17 0q52 -1 100 -3q47 -1 77 -3q37 -1 59 2q21 4 30 16q8 12 7 38t-8 69zM1001 129q-6 17 4 37q23 -21 26 -38q2 -16 -7 -37q-17 21 -23 38z
M355 1388l-77 4q23 21 43 32t38 9q17 -1 37 -13q19 -13 43 -37q-46 3 -84 5z" />
    <glyph glyph-name="registered" unicode="&#xae;" horiz-adv-x="1237" 
d="M620 1496q160 0 303.5 -95t234 -275.5t90.5 -395.5t-90.5 -395.5t-234.5 -275.5t-303 -95t-303 95t-234.5 275.5t-90.5 395.5t90.5 395.5t234.5 275.5t303 95zM621 1346q-128 0 -243.5 -76t-188 -221.5t-72.5 -318.5t72.5 -318.5t188.5 -222t243 -76.5q128 0 243.5 76.5
t188.5 222t73 318.5t-73 318.5t-188.5 221.5t-243.5 76zM772 601l26 -48.5l34 -65.5l37 -74l36 -74q18 -38 7 -58.5t-65 -23.5q-29 -2 -49 3.5t-35 16t-25 25t-17 30.5l-25.5 49.5l-27 52.5l-25.5 51t-22 44q-7 15 -16 26.5t-25 13.5q-2 1 -2.5 1t-2.5 1h-4q-29 2 -36 -10.5
t-5 -38.5q1 -17 1.5 -47l1 -63l1 -63.5t1.5 -47.5q0 -18 -3 -27t-7 -13t-8.5 -4h-6.5h-159q-10 0 -12.5 15.5t-2.5 27.5v64.5v107v134t0.5 146.5t0.5 143t0.5 125t0.5 92t1 42v19t2 15t8 12.5t16 7.5q26 6 63.5 9.5t76.5 4t75 -1t56 -5.5q53 -12 97 -31t76 -67
q34 -46 51.5 -106.5t15.5 -125.5t-29 -129t-87 -117q-5 -12 1.5 -22zM690 1093q-11 25 -22 40t-24.5 21t-31 4t-43.5 -10l58.5 -26.5zM694 788q14 21 17 52t0 62.5t-12.5 60t-23.5 47.5q-16 20 -39.5 35.5t-45.5 13.5q-23 -1 -35 -7t-17 -18t-5.5 -30.5t-1.5 -44.5
q0 -12 -1 -37.5t-2 -55.5t-1 -56.5v-39.5q0 -12 3 -24.5t19 -13.5q20 -2 40.5 -1.5t39 6t35.5 17.5t30 34z" />
    <glyph glyph-name="copyright" unicode="&#xa9;" horiz-adv-x="1237" 
d="M620 1496q160 0 303.5 -95t234 -275.5t90.5 -395.5t-90.5 -395.5t-234.5 -275.5t-303 -95t-303 95t-234.5 275.5t-90.5 395.5t90.5 395.5t234.5 275.5t303 95zM620 1345q-128 0 -243.5 -76t-188 -221t-72.5 -318t72.5 -318t188 -221t243.5 -76t243.5 76t188.5 221t73 318
t-73 318t-188.5 221t-243.5 76zM629 303q-43 -2 -73.5 3.5t-50.5 13t-31.5 16.5t-18.5 13q-35 22 -63 68t-46 107t-27 132t-6.5 143t17.5 138.5t45 117.5q54 95 119.5 140.5t131.5 46t128 -42.5t111 -123q15 -25 21.5 -52.5t11.5 -57.5q4 -16 2 -34t-22 -23q-9 -3 -29 -6
t-41 -3t-37.5 5.5t-19.5 20.5q-9 39 -34 63.5t-57 32t-67.5 -1t-64.5 -35.5q-17 -17 -28 -51.5t-17 -78.5t-5.5 -92.5t5.5 -92.5t16.5 -78t28.5 -49q17 -24 38 -37t44 -16t45 3t41 21q24 18 38.5 48t13.5 57q0 22 11 29t29 11q3 1 17 5t31 4.5t34.5 -6t27.5 -27.5
q6 -15 6.5 -40t-4 -53t-13.5 -53t-22 -39q-47 -65 -108.5 -103t-127.5 -44zM392 869q-6 -42 -10 -83t-2.5 -81.5t12 -79t34.5 -75.5q-19 78 -28 157.5t-6 161.5zM626 1079q46 -2 84 -18.5t72 -45.5q-14 30 -32 49.5t-38.5 27.5t-42.5 5t-43 -18zM455 1056q-26 -22 -39.5 -49
t-16.5 -64q5 3 8 3.5t4 2.5z" />
    <glyph glyph-name="trademark" unicode="&#x2122;" horiz-adv-x="1950" 
d="M1896 1743q0 -21 2.5 -49.5t2.5 -57t-6.5 -54.5t-26.5 -38q-8 -6 -59.5 -9t-129 -6t-176 -5t-201 -2h-202h-178t-131 1t-60.5 3q-24 2 -39.5 -8.5t-24 -30t-10.5 -44t-2 -48.5v-107t1 -71.5t0 -54t0 -54.5t1 -72v-106q0 -43 -11 -76t-52 -49q-86 -37 -182 -4
q-23 8 -23 33.5v48.5v391q0 41 -4 64.5t-8 64.5q-4 45 -8 69.5t-16.5 36t-36 12.5t-66.5 1q-10 0 -21.5 -1t-21.5 -1q-47 -2 -80 18.5t-49.5 55t-16.5 78.5t21 89q10 27 28.5 32t41.5 5h129h198.5h243.5h266t267.5 1t244 1h197.5h129q28 0 51 -10t18 -47zM147 1704
q54 -21 95 -12.5t77 24.5q-40 4 -81 10.5t-91 -22.5zM563 1030q15 53 12.5 104.5t-18.5 104.5q-12 -53 -17 -105.5t23 -103.5zM1581 854q0 -14 -3 -29.5t-22 -19.5q-22 -4 -56 -5t-64.5 1t-52 8t-21.5 16q4 90 9 182.5t7 186.5q-6 -6 -27.5 -44l-48 -84l-52 -92l-36.5 -67
q-2 -4 -16 -17t-59 -13q-47 0 -68 30q-10 13 -25.5 41.5l-35 67.5l-41 84t-45.5 88q-2 -21 -3 -67t-1 -98t-1 -102.5t-1 -76.5q2 -29 -11.5 -38t-46.5 -7q-37 0 -64.5 1t-47 8t-29.5 22.5t-10 46.5q-4 147 -2 281t2 282v20.5t3 23.5t11 18t25 7q90 0 142 -4t71 -49
q16 -39 41.5 -94l52 -110.5l51 -102.5l37.5 -72q26 47 57 109.5l60.5 121l53 102.5t34.5 56q14 29 24 36t35 7h121q53 0 53 -51v-604zM788 864q17 4 16 9.5t-3 13.5q-35 102 -8 200q16 72 -7 138q-12 -86 -18 -172t0 -174q0 -5 2 -11t18 -4zM168 1163q31 -2 48 -15t15 -46
q-4 -31 -18 -53.5t-49 -22.5q-37 0 -47.5 23.5t-14.5 52.5q4 28 17.5 46.5t48.5 14.5zM193 1135q-15 -15 -13 -18t10 -19q15 16 18 17t-1 15q0 5 -5 6t-9 -1zM1772 1163q30 -2 47.5 -15t13.5 -46q-2 -31 -16.5 -53.5t-49.5 -22.5q-36 0 -46.5 23.5t-14.5 52.5
q4 28 17.5 46.5t48.5 14.5zM1796 1135q-14 -15 -12 -18t10 -19q14 16 17.5 17t-1.5 15q0 5 -5 6t-9 -1z" />
    <glyph glyph-name="acute" unicode="&#xb4;" horiz-adv-x="543" 
d="M446 2148q43 -41 49.5 -83t-40.5 -89q-47 -45 -119 -58t-133.5 -7t-94 24.5t-2.5 36.5q64 35 97 78l69 86q45 41 86 50t88 -38zM375 2136q-41 -2 -61.5 -24.5t-32.5 -59.5q84 8 108 59q4 5 -3 15t-11 10z" />
    <glyph glyph-name="dieresis" unicode="&#xa8;" horiz-adv-x="631" 
d="M162 2183q63 -4 97 -31.5t30 -93.5q-4 -63 -34 -109t-103 -44q-37 0 -58.5 14t-34 35.5t-18.5 48.5t-10 55q8 60 33.5 94.5t97.5 30.5zM215 2126l-20.5 -22t-6.5 -13t5.5 -15.5t13.5 -27.5q14 16 23.5 23.5t13.5 12.5t4 11t-4 23q-2 4 -13.5 8t-15.5 0zM469 2183
q63 -4 97 -31.5t30 -93.5q-4 -63 -34 -109t-103 -44q-37 0 -58.5 14t-34 35.5t-18.5 48.5t-10 55q8 60 33.5 94.5t97.5 30.5zM522 2126q-14 -15 -20 -22t-6 -13t5 -15.5t13 -27.5q14 16 23.5 23.5t13.5 12.5t4 11t-4 23q-2 4 -13.5 8t-15.5 0z" />
    <glyph glyph-name="notequal" unicode="&#x2260;" horiz-adv-x="930" 
d="M893 969q0 -78 -2 -114t-15.5 -48t-44 -9t-90.5 3q-84 0 -173 1t-177 4t-170 5t-151 6q-25 -2 -31 9.5t-6 35.5v38.5v47v41v21.5q4 22 14 26t37 2q29 0 85 -1t128 -3t150.5 -3t151.5 -1t133.5 1t92.5 5q68 11 68 -67zM84 969q4 -19 15.5 -18t21.5 5q96 17 190.5 20
t190.5 -11q125 -19 258 4q-162 14 -324 21t-323 1l-22 -4t-7 -18zM788 895q-4 12 -11 16t-16 4t-17.5 -2t-16.5 0q-6 2 -12 0t-10 -2q4 -10 -13.5 -17t-39 -12t-38 -8.5t-10.5 -4.5t42 0t122 5q8 0 15.5 6.5t4.5 14.5zM37 530q0 76 2 112t15.5 48t44 10t89.5 -2
q84 0 173.5 -1t176.5 -4l170 -6t152 -5q25 2 31 -9t6 -36v-38v-47.5v-41.5v-21q-4 -22 -14.5 -26t-36.5 -2q-29 0 -85 1t-128 3t-151 3t-151.5 1t-133 -1t-93.5 -5q-67 -10 -67 67zM846 530q-4 19 -15.5 18t-21.5 -5q-96 -17 -190.5 -20t-190.5 12q-125 18 -258 -5
q162 -14 323.5 -21t323.5 -1q10 2 21.5 4t7.5 18zM141 604q4 -12 11.5 -16t16.5 -4t17.5 2t16.5 0q6 -2 12 0t10 2q-4 8 13.5 16t39 13.5t38 8.5t10 4t-43 0t-120.5 -5q-8 0 -15.5 -6.5t-5.5 -14.5zM572 1597q37 -19 61 -30q23 -11 35 -24q13 -13 15 -33q3 -20 -1 -54
q-4 -33 -14 -87q-10 -53 -23 -133l-58 -352l-62 -357l-60 -343l-54 -305q-7 -50 -17 -59q-10 -8 -28 0q-11 5 -29 11l-33 13q-17 7 -30 13q-14 6 -16 9q-14 14 -14 36q0 23 10 75q9 58 29 172l44 258l51 305l52 308q24 147 42 270q19 122 28 191q8 66 25 97q17 32 47 19z
" />
    <glyph glyph-name="AE" unicode="&#xc6;" horiz-adv-x="1812" 
d="M1706 358q51 0 69.5 -23.5t20.5 -78.5q0 -102 -8 -156.5t-38 -77t-87 -24.5t-156 -2q-41 2 -103.5 1t-130 -1t-130 -1t-103.5 1q-32 2 -51.5 6t-32.5 18q-22 11 -39.5 29.5t-23.5 44.5l-12 51.5t-9 51.5q-10 90 -60 134t-155 48q-73 2 -120.5 -11.5t-75 -41t-39.5 -67.5
t-19 -91q-10 -72 -25.5 -106.5t-40 -48t-59 -13.5t-79.5 -2q-41 -2 -73 4t-51.5 23.5t-26.5 45t1 68.5q17 92 46.5 228.5l65.5 290l73.5 310l70.5 291l57.5 231.5l32.5 130q17 66 24 102.5t25.5 54t58.5 19.5t124 0h27.5h37t35.5 -1t25 -1q47 -2 73.5 -7t41 -20.5t21.5 -43
t17 -72.5l13 -64v68q0 24 2 50t9 46.5t21.5 33.5t36.5 13l735 -4q64 0 68 -74q2 -4 2 -12q-2 -119 -7 -181.5t-24.5 -92t-59.5 -33.5t-112 -6h-110q-72 -2 -114 -4t-62.5 -20.5t-24.5 -62.5t0 -132q6 -29 21.5 -38.5t37.5 -9.5l170 -4q80 -2 105.5 -32.5t23.5 -112.5
q0 -39 -2 -78t-14 -69.5t-41 -49t-82 -14.5q-84 4 -128 5t-62.5 -17.5t-20.5 -64.5t0 -138q2 -47 1 -83t6 -60.5t25.5 -37t59.5 -12.5q86 -2 167 -3t161 1zM643 621q21 0 43.5 1t39.5 9t25.5 25.5t0.5 48.5q-13 49 -23 121.5t-21.5 140t-25.5 115.5t-35 48q-16 0 -31.5 -48
t-29 -115.5t-25.5 -141t-24 -125.5q-9 -34 1.5 -51.5t29 -24t39 -5t36.5 1.5zM1595 1583q2 -8 -1 -18.5t-3 -19.5t6.5 -14t28.5 -5q27 0 43.5 12t18.5 39q2 25 -2.5 49.5t-38.5 28.5q-23 2 -31 -4t-11 -17.5t-4.5 -25t-5.5 -25.5zM467 948q-6 131 51 271q37 100 35 186
q-41 -121 -72.5 -237.5t-50.5 -233.5q0 -8 1 -14.5t18 -1.5q18 6 19 14t-1 16z" />
    <glyph glyph-name="Oslash" unicode="&#xd8;" horiz-adv-x="1253" 
d="M920 1761q2 -2 6 -2q61 -18 82 -67q34 -37 56.5 -83t39 -96.5t29 -102.5l24.5 -101q47 -199 46 -396.5t-32 -396.5q-22 -145 -85.5 -255.5t-157.5 -179.5t-213 -89.5t-254 16.5q-39 8 -78 29l-21 6q-90 25 -121.5 62.5t-27.5 82.5q-41 58 -66 121q-59 144 -88.5 296.5
t-25.5 338.5q6 62 10 128.5t14.5 136t26.5 140t47 140.5q49 119 140 194.5t200 109.5t223.5 26.5t212.5 -52.5zM819 836q0 47 -2 94t-6 92l-116.5 -308.5l-108.5 -293.5q24 -6 51 -6q39 0 66.5 17.5t47 47t32 67.5t20.5 79q12 49 12 103t4 108zM440 1159q-12 -86 -19 -172
t-3 -172l194 551q-8 2 -16 2h-16q-31 -2 -54.5 -21.5t-41 -49t-29 -65.5t-15.5 -73zM590 1624q-53 8 -106.5 -7t-99.5 -47t-78 -78t-40 -95zM684 223q70 2 119 17.5t83 45t55.5 76t33.5 111.5q-23 -45 -53.5 -79t-68.5 -62.5t-81 -55zM580 934l76 170t71 172
q-8 14 -17.5 25.5t-19.5 21.5l-48 -196.5t-62 -192.5zM719 1430q20 -23 47 -44l10 41q-20 19 -47 41zM317 537q0 -7 2 -11v4q0 2 -1 3.5t-1 3.5z" />
    <glyph glyph-name="infinity" unicode="&#x221e;" horiz-adv-x="1890" 
d="M831 1399q72 -37 117 -129q37 53 78 80q82 57 167 81.5t168 24.5t164 -22.5t154 -61.5q43 -18 73 -77.5t49.5 -135t28.5 -156.5t9 -141q4 -149 -29.5 -243.5t-105.5 -157.5q-86 -74 -174 -92.5t-176 -20.5q-11 -2 -48.5 0t-86 9.5t-97.5 18.5t-84 30q-69 37 -116 129
q-37 -54 -78 -80q-82 -58 -167 -82.5t-168 -24.5t-164 22.5t-155 61.5q-43 19 -72.5 78.5t-49 135t-28.5 156.5t-9 140q-4 150 29.5 244t105.5 158q84 73 174 91.5t176 20.5q10 2 48 0t86 -9t98.5 -18.5t82.5 -29.5zM266 916q17 -41 41.5 -56.5t48.5 -21.5q78 -21 147.5 -26
t164.5 1q39 0 71.5 13.5t36.5 54.5q2 26 -8 44.5t-27.5 32t-38 22.5l-36.5 16q-52 18 -124.5 26t-137 0t-106.5 -33.5t-32 -72.5zM352 721q19 -27 32 -41t25.5 -17t25.5 3t32 20q-29 23 -56.5 32t-58.5 3zM1378 545q58 -35 119 -37t113.5 22.5t91.5 73.5t49 115
q-37 -78 -82 -107.5t-93 -38t-98.5 -9.5t-99.5 -19zM1614 756q-33 12 -57.5 -1t-51.5 -42q31 -10 56.5 -4t52.5 47zM201 862q0 -34 5 -52.5t14 -27t21.5 -11.5t22.5 -7q-10 31 -24.5 57.5t-38.5 40.5zM1606 889q-19 41 -43.5 55.5t-49.5 22.5q-77 20 -147 25.5t-164 -3.5
q-39 2 -71.5 -11t-36.5 -54q-2 -27 8 -45.5t27.5 -31.5t38 -22.5t36.5 -15.5q51 -18 124 -26.5t137.5 0t107.5 34t33 72.5zM1669 942q0 35 -5 53.5t-14.5 26.5t-21.5 11t-22 8q10 -31 25.5 -57.5t37.5 -41.5zM256 1049q33 -13 57.5 0.5t53.5 42.5q-33 10 -58.5 4t-52.5 -47z
M1520 1084q-39 53 -59.5 58t-57.5 -24q28 -22 56 -31.5t61 -2.5zM491 1260q-57 35 -117.5 37t-113.5 -23t-91 -74t-50 -114q39 77 83 107t92 38t98 9t99 20z" />
    <glyph glyph-name="plusminus" unicode="&#xb1;" horiz-adv-x="920" 
d="M524 476q-78 0 -113.5 2t-48 15.5t-9.5 44t3 89.5v179l-293 12q-24 -2 -30 9t-6 36v37.5v47v41v21.5q4 23 14 27t37 2q35 0 112.5 -2t171.5 -4q3 72 5 139.5t6 126.5q-2 25 9 31t36 6h37.5h47h41h21.5q23 -4 27 -14.5t2 -36.5q0 -33 -2 -100.5t-4 -153.5q74 0 135 1t96 5
q68 10 68 -68q0 -77 -2 -113t-15.5 -48.5t-44 -9.5t-90.5 3h-149q-2 -84 0 -152.5t6 -105.5q10 -67 -68 -67zM782 896q-4 12 -11 16t-16.5 4t-17.5 -2t-16 0q-6 2 -12.5 0t-10.5 -2q4 -10 -13 -17.5t-38.5 -12.5t-38 -8t-10.5 -4t42 0t122 5q8 0 15 6t5 15zM78 969
q4 -18 15 -17t22 5q96 16 190 19.5t191 -11.5q125 -18 258 4q-162 15 -324 22t-324 1l-21 -4t-7 -19zM889 364q0 -77 -2 -113t-15.5 -48.5t-44 -9.5t-90.5 3q-84 0 -173 1.5t-177 4.5t-170 5t-151 6q-25 -2 -31 9t-6 36v37.5v47v41v21.5q4 23 14 27t37 2q29 0 85 -1t128 -3
t150.5 -3t151.5 -1t133 1t93 5q68 10 68 -68zM80 364q4 -18 15 -17t22 5q96 16 190 19.5t191 -11.5q125 -18 258 4q-162 15 -324 22t-323 1l-22 -4t-7 -19zM784 291q-4 12 -11 16t-16 4t-17.5 -2t-16.5 0q-6 2 -12 0t-11 -2q5 -10 -12.5 -17.5t-39 -12.5t-38 -8t-10.5 -4
t42 0t122 5q8 0 15 6t5 15z" />
    <glyph glyph-name="lessequal" unicode="&#x2264;" horiz-adv-x="1055" 
d="M829 582q35 -24 69 -53t54.5 -60.5t20.5 -68.5t-31 -76l-32.5 -43.5t-34 -37t-37 -19.5t-41.5 8q-41 25 -220.5 143.5t-463.5 325.5q-37 27 -61.5 58.5t-16.5 78.5q-8 47 16.5 79t61.5 59l463.5 324t220.5 145q22 12 41.5 8t37 -19.5t34 -38l32.5 -43.5q31 -41 31 -76.5
t-20.5 -67.5t-54.5 -60.5t-69 -53.5q-106 -71 -207.5 -130.5l-205.5 -125.5l205.5 -124.5t207.5 -131.5zM512 533q39 -22 74 -50l69.5 -55.5t70.5 -53t79 -44.5q-60 70 -136.5 115zM778 1256q53 39 59.5 58.5t-22.5 56.5q-22 -29 -32.5 -55.5t-4.5 -59.5zM973 111
q0 -78 -2 -114t-17 -48t-48.5 -9t-98.5 3q-92 0 -189.5 1t-193.5 4t-185.5 5t-165.5 6q-27 -2 -33.5 9.5t-6.5 35.5v38.5v47v41v21.5q4 22 15 26t41 2q31 0 92.5 -1t140 -3t164.5 -3t165.5 -1t146 1t101.5 5q74 11 74 -67zM108 24q7 -6 15 -6q86 -4 122 -5t42 0t-10.5 4
t-38 8t-39 12.5t-12.5 17.5q-5 0 -11 2t-12 0q-8 -2 -16.5 0t-17.5 2t-16 -4t-11 -16q-2 -9 5 -15z" />
    <glyph glyph-name="greaterequal" unicode="&#x2265;" horiz-adv-x="1055" 
d="M384.5 713.5l205.5 124.5l-205.5 125.5t-207.5 130.5q-35 25 -69 53.5t-54.5 60.5t-20.5 67.5t31 76.5l32.5 43.5t34 38t37 19.5t41.5 -8q41 -25 220.5 -145l463.5 -324q37 -27 61.5 -59t16.5 -79q8 -47 -16.5 -78.5t-61.5 -58.5q-284 -207 -463.5 -325.5t-220.5 -143.5
q-22 -12 -41.5 -8t-37 19.5t-34 37l-32.5 43.5q-31 39 -31 76t20.5 68.5t54.5 60.5t69 53q106 72 207.5 131.5zM337.5 445q-76.5 -45 -136.5 -115q43 19 79 44.5t70.5 53l69.5 55.5t74 50zM223.5 1315.5q-10.5 26.5 -32.5 55.5q-29 -37 -22.5 -56.5t59.5 -58.5
q6 33 -4.5 59.5zM107 178q35 -4 101.5 -5t146 -1t165.5 1t164.5 3t140 3t92.5 1q30 2 41 -2t15 -26v-21.5v-41v-47v-38.5q0 -24 -6.5 -35.5t-33.5 -9.5q-76 -4 -165.5 -6t-185.5 -5t-193.5 -4t-189.5 -1q-65 0 -98.5 -3t-48.5 9t-17 48t-2 114t74 67zM903 39q-4 12 -11 16
t-16 4t-17.5 -2t-16.5 0q-6 2 -12 0t-11 -2q5 -10 -12.5 -17.5t-39 -12.5t-38 -8t-10.5 -4t42 0t122 5q8 0 15 6t5 15z" />
    <glyph glyph-name="yen" unicode="&#xa5;" horiz-adv-x="1263" 
d="M838 1075v-115.5v-169t-1 -195.5t-1 -196t1 -169.5t3 -115.5q2 -52 -44 -80.5t-167 -32.5q-65 -3 -104 4.5t-60.5 21.5t-29 34t-7.5 43q-2 77 -6 183t-7 219t-5 225t-4 202.5t-3 151t1 71.5q2 17 17.5 26.5t38 13.5t49 4.5t53.5 2.5q38 1 78 2.5t76 -2t64.5 -14.5
t43.5 -36q10 -18 12 -38.5t2 -39.5zM1179 1799q33 -4 33 -19t-7 -28l-148 -309l-146 -307q-23 -53 -136 -53h-319q-25 0 -41 1.5t-27.5 6t-19.5 13t-19 22.5q-8 6 -26.5 36.5t-42 76.5l-51 101.5l-54.5 112.5l-141 300q-10 22 17.5 37.5t99.5 15.5h145t82 -4.5t40 -16
t21 -33.5l29.5 -71.5l34.5 -84l36.5 -87l34 -78.5t28 -58t16.5 -28q22 49 44.5 106l46 115l46 113t43.5 100q4 10 47 16.5t101.5 9t122 1t110.5 -6.5zM261 1744q-6 -18 2.5 -31.5t21.5 -25.5t28.5 -22.5t23.5 -21.5q-2 24 -16.5 48.5t-59.5 52.5zM1049 959q0 -78 -2 -114
t-15.5 -48t-44 -9t-90.5 3q-84 0 -173 1t-177 4t-170 5t-151 6q-25 -2 -31 9.5t-6 35.5v38.5v47v41v21.5q4 22 14 26t37 2q29 0 85 -1t128 -3t150.5 -3t151.5 -1t133.5 1t92.5 5q68 11 68 -67zM240 959q4 -19 15.5 -18t21.5 5q96 17 190.5 20t190.5 -11q125 -19 258 4
q-162 14 -324 21t-323 1l-22 -4t-7 -18zM193 520q0 76 2 112t15.5 48t44 10t89.5 -2q84 0 173.5 -1t176.5 -4l170 -6t152 -5q25 2 31 -9t6 -36v-38v-47.5v-41.5v-21q-4 -22 -14.5 -26t-36.5 -2q-29 0 -85 1t-128 3t-151 3t-151.5 1t-133 -1t-93.5 -5q-67 -10 -67 67z
M1002 520q-4 19 -15.5 18t-21.5 -5q-96 -17 -190.5 -20t-190.5 12q-125 18 -258 -5q162 -14 323.5 -21t323.5 -1q10 2 21.5 4t7.5 18zM297 594q4 -12 11.5 -16t16.5 -4t17.5 2t16.5 0q6 -2 12 0t10 2q-4 8 13.5 16t39 13.5t38 8.5t10 4t-43 0t-120.5 -5q-8 0 -15.5 -6.5
t-5.5 -14.5z" />
    <glyph glyph-name="mu" unicode="&#xb5;" horiz-adv-x="1246" 
d="M768 736q0 -200 -1 -361t-3 -247q-2 -110 44 -171t167 -70q65 -5 104 10q39 16 61 46q21 31 29 73q7 43 7 91q2 166 6 390q4 226 13 653zM260 427q-6 98 -13 196q-7 97 -7 194t12 195q12 97 43 193q14 -98 9 -195q-5 -98 -15 -195l-20 -193q-11 -97 -9 -195zM344 1291
q-94 0 -144 -2t-75 -16q-25 -15 -32 -46q-7 -32 -13 -89q-4 -55 -7 -148q-3 -92 -6 -160q-3 -69 -1 -148t6 -116q8 -100 38 -195q29 -96 86 -172q56 -77 141 -129q85 -53 204 -67q80 -8 162 2q81 10 154 41t133 83q59 52 95 128q64 137 84 280q23 408 25 613q0 55 -21 83
q-22 27 -57 39q-35 11 -76 13t-81 6q-189 19 -189 -145q0 -105 -2 -98t-3 -116t-1 -227q0 -63 -8 -128q-8 -66 -45 -119q-19 -27 -53 -38q-35 -11 -76 -1q-35 8 -60 29q-26 20 -30 49q-5 20 -8 59t-4 83t-3 84t-2 60q-4 113 -5 233q-1 119 3 105q0 27 -3 57q-3 29 -15 54
q-13 24 -38 42q-26 17 -73 17zM122 -29q26 -143 55 -180t63 -68t78 -54q-129 22 -187 88q-57 65 -63 304zM34 493q1 -135 1 -258t-1 -223q-1 -199 -3 -252q-2 -69 44 -106q46 -38 167 -43q65 -4 104 6t61 28q21 19 29 45q7 27 7 56q2 203 6 342q4 140 7 287q3 151 5 296
l4 267q2 119 3 199t-1 93q-2 22 -17 35q-16 13 -38 18q-23 5 -49 6q-27 1 -54 3q-33 1 -78 3q-40 2 -76 -2q-36 -5 -64 -19q-29 -15 -44 -47q-10 -25 -12 -52t-2 -51q0 -499 1 -631z" />
    <glyph glyph-name="partialdiff" unicode="&#x2202;" horiz-adv-x="1012" 
d="M379 1123l-137 84q52 142 150.5 213t219.5 71q145 0 234 -100q131 -145 131 -448q0 -261 -83 -506t-230 -353.5t-309 -108.5q-138 0 -224.5 92t-86.5 262q0 158 87 303t266 230t429 80q-1 200 -74 296q-54 71 -145 71q-69 0 -120.5 -39.5t-107.5 -146.5zM814 758
q-29 1 -44 1q-137 0 -255.5 -55.5t-180 -158.5t-61.5 -207q0 -78 42 -125.5t99 -47.5q119 0 217 115q141 165 183 478z" />
    <glyph glyph-name="summation" unicode="&#x2211;" horiz-adv-x="1460" 
d="M139 1491h1237v-164h-988l607 -775l-649 -822h1040v-161h-1264v187l620 788l-603 772v175z" />
    <glyph glyph-name="product" unicode="&#x220f;" horiz-adv-x="1686" 
d="M161 1491h1362v-1922h-191v1748h-978v-1748h-193v1922z" />
    <glyph glyph-name="pi1" horiz-adv-x="1124" 
d="M0 1063h1124v-202h-169v-861h-288v861h-208v-861h-292v861h-167v202z" />
    <glyph glyph-name="integral" unicode="&#x222b;" horiz-adv-x="561" 
d="M201 948l17 531q9 153 50 254q27 65 74.5 97.5t92.5 32.5q50 0 87.5 -33.5t37.5 -73.5q0 -47 -26.5 -75.5t-65.5 -28.5q-35 0 -76 36q-23 20 -40 20t-28.5 -14.5t-11.5 -49.5q0 -42 9 -145q37 -410 37 -665q0 -67 -16 -588q-8 -295 -90 -399q-54 -67 -134 -67
q-52 0 -85 34t-33 87q0 45 25.5 72t64.5 27q40 0 69 -32t49 -32q17 0 28 14t11 47q0 42 -9 120q-37 315 -37 831z" />
    <glyph glyph-name="ordfeminine" unicode="&#xaa;" horiz-adv-x="621" 
d="M209 1252l-155 38q19 104 78 152.5t173 48.5q111 0 171 -34q46 -26 66 -86q15 -43 15 -162v-239q0 -104 5 -139t19 -70h-155q-12 26 -19 71q-36 -44 -80.5 -66.5t-96.5 -22.5q-89 0 -144 58t-55 157q0 67 23 112t65 70t168 55q65 16 103 33q-3 66 -11 79q-18 27 -72 27
q-43 0 -64 -16q-16 -12 -34 -66zM390 1095q-18 -13 -77 -28q-71 -18 -88 -35q-24 -25 -24 -58t23 -57t56 -24q47 0 78.5 41t31.5 121v40zM97 1069q-29 -29 -30 -58q-1 -30 15 -67q29 33 40 60q11 26 3 57q-2 4 -13 8t-15 0z" />
    <glyph glyph-name="ordmasculine" unicode="&#xba;" horiz-adv-x="520" 
d="M378 1469q28 -14 44.5 -35t27.5 -46t17 -52.5t13 -54.5q19 -81 18.5 -161.5t-12.5 -162.5q-9 -59 -35 -104t-64.5 -73t-87 -36.5t-103.5 6.5q-42 11 -76 44t-53 79q-24 59 -36 121t-10 138q2 26 3.5 53t6 55.5t11 57t19.5 57.5q20 49 57 79.5t81.5 44.5t91.5 11t87 -21z
M357 1285q-13 21 -29 41t-45 36q5 -16 15 -27.5t20 -19.5t20.5 -15t18.5 -15zM248 1410q-21 3 -43 -3t-41 -19t-32 -32t-16 -39l64 45.5zM137 966q9 -48 29.5 -67t63.5 -20q-29 20 -53.5 39t-39.5 48zM189 997q8 -38 28 -59t50 -22q16 0 27.5 7t19.5 19t13 27.5t8 32.5
q5 20 5 42t2 44q1 38 -3 73t-16 69q-11 32 -31.5 54t-47.5 22q-12 -1 -22 -9t-17 -20t-11.5 -27t-6.5 -30q-8 -55 -9 -111.5t11 -111.5zM287 838q28 1 48 7t34 18t23 31t14 46q-10 -18 -22.5 -32t-28 -26t-33 -22.5z" />
    <glyph glyph-name="Omega" unicode="&#x2126;" horiz-adv-x="1573" 
d="M462 206q-116 49 -185 112q-101 90 -150.5 216t-49.5 277q0 310 191.5 501t508.5 191q233 0 389.5 -79t250 -244.5t93.5 -366.5q0 -202 -93.5 -360.5t-288.5 -244.5l330 23h72v-231h-642v243q97 47 153 105q76 80 114.5 194.5t38.5 241.5q0 247 -114.5 373.5
t-292.5 126.5q-170 0 -284.5 -129.5t-114.5 -365.5q0 -136 43.5 -253t124.5 -198q52 -52 144 -95v-243h-645v230h98z" />
    <glyph glyph-name="ae" unicode="&#xe6;" horiz-adv-x="1812" 
d="M1706 358q51 0 69.5 -23.5t20.5 -78.5q0 -102 -8 -156.5t-38 -77t-87 -24.5t-156 -2q-41 2 -103.5 1t-130 -1t-130 -1t-103.5 1q-32 2 -51.5 6t-32.5 18q-22 11 -39.5 29.5t-23.5 44.5l-12 51.5t-9 51.5q-10 90 -60 134t-155 48q-73 2 -120.5 -11.5t-75 -41t-39.5 -67.5
t-19 -91q-10 -72 -25.5 -106.5t-40 -48t-59 -13.5t-79.5 -2q-41 -2 -73 4t-51.5 23.5t-26.5 45t1 68.5q17 92 46.5 228.5l65.5 290l73.5 310l70.5 291l57.5 231.5l32.5 130q17 66 24 102.5t25.5 54t58.5 19.5t124 0h27.5h37t35.5 -1t25 -1q47 -2 73.5 -7t41 -20.5t21.5 -43
t17 -72.5l13 -64v68q0 24 2 50t9 46.5t21.5 33.5t36.5 13l735 -4q64 0 68 -74q2 -4 2 -12q-2 -119 -7 -181.5t-24.5 -92t-59.5 -33.5t-112 -6h-110q-72 -2 -114 -4t-62.5 -20.5t-24.5 -62.5t0 -132q6 -29 21.5 -38.5t37.5 -9.5l170 -4q80 -2 105.5 -32.5t23.5 -112.5
q0 -39 -2 -78t-14 -69.5t-41 -49t-82 -14.5q-84 4 -128 5t-62.5 -17.5t-20.5 -64.5t0 -138q2 -47 1 -83t6 -60.5t25.5 -37t59.5 -12.5q86 -2 167 -3t161 1zM643 621q21 0 43.5 1t39.5 9t25.5 25.5t0.5 48.5q-13 49 -23 121.5t-21.5 140t-25.5 115.5t-35 48q-16 0 -31.5 -48
t-29 -115.5t-25.5 -141t-24 -125.5q-9 -34 1.5 -51.5t29 -24t39 -5t36.5 1.5zM1595 1583q2 -8 -1 -18.5t-3 -19.5t6.5 -14t28.5 -5q27 0 43.5 12t18.5 39q2 25 -2.5 49.5t-38.5 28.5q-23 2 -31 -4t-11 -17.5t-4.5 -25t-5.5 -25.5zM467 948q-6 131 51 271q37 100 35 186
q-41 -121 -72.5 -237.5t-50.5 -233.5q0 -8 1 -14.5t18 -1.5q18 6 19 14t-1 16z" />
    <glyph glyph-name="oslash" unicode="&#xf8;" horiz-adv-x="1253" 
d="M920 1761q2 -2 6 -2q61 -18 82 -67q34 -37 56.5 -83t39 -96.5t29 -102.5l24.5 -101q47 -199 46 -396.5t-32 -396.5q-22 -145 -85.5 -255.5t-157.5 -179.5t-213 -89.5t-254 16.5q-39 8 -78 29l-21 6q-90 25 -121.5 62.5t-27.5 82.5q-41 58 -66 121q-59 144 -88.5 296.5
t-25.5 338.5q6 62 10 128.5t14.5 136t26.5 140t47 140.5q49 119 140 194.5t200 109.5t223.5 26.5t212.5 -52.5zM819 836q0 47 -2 94t-6 92l-116.5 -308.5l-108.5 -293.5q24 -6 51 -6q39 0 66.5 17.5t47 47t32 67.5t20.5 79q12 49 12 103t4 108zM440 1159q-12 -86 -19 -172
t-3 -172l194 551q-8 2 -16 2h-16q-31 -2 -54.5 -21.5t-41 -49t-29 -65.5t-15.5 -73zM590 1624q-53 8 -106.5 -7t-99.5 -47t-78 -78t-40 -95zM684 223q70 2 119 17.5t83 45t55.5 76t33.5 111.5q-23 -45 -53.5 -79t-68.5 -62.5t-81 -55zM580 934l76 170t71 172
q-8 14 -17.5 25.5t-19.5 21.5l-48 -196.5t-62 -192.5zM719 1430q20 -23 47 -44l10 41q-20 19 -47 41zM317 537q0 -7 2 -11v4q0 2 -1 3.5t-1 3.5z" />
    <glyph glyph-name="questiondown" unicode="&#xbf;" horiz-adv-x="1141" 
d="M637 907q-4 -32 -4 -51.5t6 -31t19.5 -15.5t35.5 -6q-6 69 -57 104zM735 143q10 82 36 128.5t58.5 66.5t69.5 20t68.5 -9t54 -24.5t29.5 -25.5q24 -45 36.5 -114.5t11.5 -149.5t-17.5 -166t-51.5 -166q-39 -65 -83 -110.5t-101 -72t-134 -34.5t-182 2q-71 6 -139.5 34
t-127 71t-101.5 99t-62 120q-47 161 -37.5 314t82.5 294q13 24 45.5 59t74.5 76l88 87t82 89t58.5 84t18.5 72q-6 51 36 74.5t100.5 27.5t115.5 -10t78 -41q26 -33 21 -80t-30.5 -99t-67.5 -105.5t-91 -98.5q-51 -59 -86 -108.5t-59.5 -96.5t-42 -98t-33.5 -113
q-15 -98 -6 -209q6 -73 57 -119t117 -38q45 2 81 39q33 32 43.5 83.5t8.5 100.5q0 57 -13 121zM731 1026q-78 -4 -121 21.5t-45 93.5q0 65 32 115.5t122 58.5q43 4 70.5 -8.5t44 -34t26.5 -49t19 -56.5q-4 -61 -34 -100t-114 -41zM662 1079q16 17 22 25t6 14t-7 14.5
t-17 26.5q-17 -18 -27 -25.5t-15 -13.5t-4 -13t7 -24q2 -4 16 -6t19 2z" />
    <glyph glyph-name="exclamdown" unicode="&#xa1;" horiz-adv-x="438" 
d="M55.5 -480q-22.5 38 -18.5 105q6 70 8 171.5t2 217t-2 236.5l-4 233.5t-4 207t-2 153.5q-2 55 4 76.5t39 29.5q6 2 32.5 2t62.5 -1l72 -2t58 -1q39 0 56.5 -12t13.5 -63q4 -148 9 -266.5t8 -238.5t6 -254t3 -313q0 -84 3.5 -139t0 -90t-14.5 -53.5t-40 -25.5t-79 -8
t-128 -3q-63 0 -85.5 38zM113 826.5q-4 -21.5 -4 -41.5q-5 -115 -6 -203t1 -164t5.5 -145.5l7.5 -144.5t10 -163l14 -202q19 135 20 272t-11 272q-9 68 -13 109t-6 69.5t-1 51t5 50.5t10.5 69.5l16.5 107.5q4 23 6 47.5t-27 32.5q-24 4 -28 -17.5zM243 813.5
q-7 -14.5 -12 -31.5q-12 -49 0.5 -81.5t53.5 -55.5l4 25t0 24q-2 17 0 36.5t2 37t-6 32.5t-25 23q-10 5 -17 -9.5zM70.5 1040.5q-29.5 38.5 -33.5 100.5q8 29 18.5 56.5t26.5 49t44 33.5t71 8q90 -8 121.5 -58t31.5 -116q-2 -67 -45 -93t-121 -21q-84 2 -113.5 40.5z
M272.5 1051q14.5 2 16.5 6q6 16 7 23.5t-4 13.5t-15.5 13t-26.5 26q-10 -19 -17.5 -27t-7.5 -14t6.5 -14.5t22.5 -24.5q4 -4 18.5 -2z" />
    <glyph glyph-name="logicalnot" unicode="&#xac;" horiz-adv-x="981" 
d="M737.5 905q-14.5 8 -38.5 8q-20 0 -65 -0.5t-103 -1t-122.5 -0.5h-122h-103h-65.5q-26 0 -36 15t-12 35.5t1 42t2 33.5q-3 27 14 33t39 4h33.5h70.5h97t112 -0.5t117 -0.5t111.5 -0.5t95.5 -1t68 -0.5q44 3 61.5 -13t17.5 -54v-42v-47.5t-0.5 -48.5t-0.5 -45
q0 -27 -13.5 -39.5t-47.5 -12.5h-54.5t-30.5 8.5t-12 30.5t0 67q1 22 -13.5 30zM387 1033q-43 6 -85.5 5t-85.5 -9.5l-85 -16.5q86 -20 170.5 -24t170.5 18q-42 21 -85 27z" />
    <glyph glyph-name="radical" unicode="&#x221a;" horiz-adv-x="1124" 
d="M1050 1869h74l-312 -1947l-496 1021l-198 -91l-34 64l301 151l405 -823z" />
    <glyph glyph-name="florin" unicode="&#x192;" horiz-adv-x="934" 
d="M226 851l31 211h165l13 89q23 147 38 190q27 76 84 113t160 37q111 0 220 -41l-44 -226q-77 28 -130 28q-44 0 -65.5 -24t-35.5 -110l-9 -56h170l-30 -211h-168l-141 -978q-23 -160 -72 -223q-63 -81 -195 -81q-131 0 -233 40l47 221q89 -23 137 -23q50 0 68.5 32.5
t33.5 138.5l122 873h-166z" />
    <glyph glyph-name="approxequal" unicode="&#x2248;" horiz-adv-x="1124" 
d="M31 761v258q127 138 296 138q63 0 116 -12.5t166 -58.5q113 -45 149 -55t62 -10q56 0 129.5 34.5t143.5 110.5v-270q-46 -48 -128.5 -90.5t-170.5 -42.5q-50 0 -97.5 12t-150.5 57q-154 67 -242 67q-140 0 -273 -138zM31 276v259q127 137 296 137q63 0 116 -12.5
t166 -57.5t149 -55t62 -10q56 0 129.5 34.5t143.5 109.5v-270q-46 -48 -128.5 -90.5t-170.5 -42.5q-50 0 -97.5 12.5t-150.5 57.5q-154 67 -242 67q-140 0 -273 -139zM668 857l10 -4q74 -6 148.5 1t149.5 22q-61 22 -119 4q-45 -15 -88 -11.5t-88 19.5q-4 4 -9.5 5t-7.5 -17
q-1 -17 4 -19zM436 474l-10 4q-74 6 -148.5 -1t-149.5 -22q61 -22 119 -4q45 15 88 11.5t87 -19.5q5 -4 10.5 -5t6.5 17q2 17 -3 19z" />
    <glyph glyph-name="Delta" unicode="&#x2206;" horiz-adv-x="1253" 
d="M1226 0h-1200l628 1387zM990 82l-399 967l-440 -967h839z" />
    <glyph glyph-name="guillemotleft" unicode="&#xab;" horiz-adv-x="840" 
d="M131 251q-26 -35 -32 -95q0 -57 3 -110t-22 -121q-12 -35 26 -26q38 8 88 44q50 35 95 93q45 57 51 120q7 66 -26 94q-33 27 -92 31q-66 4 -91 -30zM190 224q11 -4 13 -8q8 -31 -3 -57q-11 -27 -40 -60q-16 37 -15 67q1 29 30 58q4 4 15 0zM518 251q-26 -35 -32 -95
q0 -57 3 -110t-22 -121q-12 -35 26 -26q38 8 88 44q50 35 95 93q45 57 51 120q7 66 -26 94q-33 27 -92 31q-66 4 -91 -30zM577 224q11 -4 13 -8q8 -31 -3 -57q-11 -27 -40 -60q-16 37 -15 67q1 29 30 58q4 4 15 0z" />
    <glyph glyph-name="guillemotright" unicode="&#xbb;" horiz-adv-x="840" 
d="M159 1436q-26 -35 -32 -95q0 -57 3 -110t-22 -121q-12 -35 26 -26q38 8 88 44q50 35 95 93q45 57 51 120q7 66 -26 94q-33 27 -92 31q-66 4 -91 -30zM218 1409q11 -4 13 -8q8 -31 -3 -57q-11 -27 -40 -60q-16 37 -15 67q1 29 30 58q4 4 15 0zM546 1436q-26 -35 -32 -95
q0 -57 3 -110t-22 -121q-12 -35 26 -26q38 8 88 44q50 35 95 93q45 57 51 120q7 66 -26 94q-33 27 -92 31q-66 4 -91 -30zM605 1409q11 -4 13 -8q8 -31 -3 -57q-11 -27 -40 -60q-16 37 -15 67q1 29 30 58q4 4 15 0z" />
    <glyph glyph-name="ellipsis" unicode="&#x2026;" horiz-adv-x="965" 
d="M160 272q63 -4 97 -31.5t30 -93.5q-4 -63 -34 -109t-103 -44q-37 0 -58.5 14.5t-34 36t-18.5 48t-10 54.5q8 60 33.5 94.5t97.5 30.5zM213 215q-14 -14 -20.5 -21.5t-6.5 -13.5t5.5 -15t13.5 -28q14 17 23.5 24t13.5 12t4 11t-4 23q-2 4 -13.5 8t-15.5 0zM481 272
q64 -4 97.5 -31.5t29.5 -93.5q-4 -63 -33.5 -109t-103.5 -44q-37 0 -58.5 14.5t-33.5 36t-18.5 48t-10.5 54.5q8 60 34 94.5t97 30.5zM535 215q-15 -14 -21 -21.5t-6 -13.5t5 -15t13 -28q15 17 24 24t13 12t4 11t-4 23q-2 4 -13 8t-15 0zM803 272q63 -4 97 -31.5t30 -93.5
q-4 -63 -34 -109t-103 -44q-37 0 -58.5 14.5t-34 36t-18.5 48t-10 54.5q8 60 33.5 94.5t97.5 30.5zM856 215q-14 -14 -20.5 -21.5t-6.5 -13.5t5.5 -15t13.5 -28q14 17 23.5 24t13.5 12t4 11t-4 23q-2 4 -13.5 8t-15.5 0z" />
    <glyph glyph-name="uni00A0" unicode="&#xa0;" horiz-adv-x="934" 
 />
    <glyph glyph-name="Agrave" unicode="&#xc0;" horiz-adv-x="1292" 
d="M905 1651l167 -753l173 -753q6 -22 11.5 -44.5t2 -43t-19.5 -36t-57 -21.5q-35 -4 -80 -5t-88 7t-77 29.5t-44 62.5l-12 51.5t-9 51.5q-10 90 -60 134t-155 48q-73 2 -120.5 -11.5t-75 -41t-39.5 -67.5t-19 -91q-10 -72 -25.5 -106.5t-40 -48t-59 -13.5t-79.5 -2
q-41 -2 -73 4t-51.5 23.5t-26.5 45t1 68.5q17 92 46.5 228.5l65.5 290l73.5 310l70.5 291l57.5 231.5l32.5 130q17 66 24 102.5t25.5 54t58.5 19.5t124 0h27.5h37t35.5 -1t25 -1q47 -2 73.5 -7t41 -20.5t21.5 -43t17 -72.5zM467 948q-6 131 51 271q37 100 35 186
q-41 -121 -72.5 -237.5t-50.5 -233.5q0 -8 1 -14.5t18 -1.5q18 6 19 14t-1 16zM643 621q21 0 43.5 1t39.5 9t25.5 25.5t0.5 48.5q-13 49 -23 121.5t-21.5 140t-25.5 115.5t-35 48q-16 0 -31.5 -48t-29 -115.5t-25.5 -141t-24 -125.5q-9 -34 1.5 -51.5t29 -24t39 -5t36.5 1.5
zM1094 342l4 -77t10 -74.5t24.5 -71.5t45.5 -66q2 78 -20.5 150.5t-63.5 138.5zM469 2087q47 47 88 38t86 -50q37 -43 69.5 -86t96.5 -78q20 -13 11 -25t-36.5 -22.5t-70.5 -14.5t-88 1t-89 19.5t-75 45.5q-47 47 -41 89t49 83zM541 2075q-4 0 -11.5 -10.5t-3.5 -14.5
q25 -51 109 -59q-12 37 -32.5 59.5t-61.5 24.5z" />
    <glyph glyph-name="Atilde" unicode="&#xc3;" horiz-adv-x="1292" 
d="M905 1651l167 -753l173 -753q6 -22 11.5 -44.5t2 -43t-19.5 -36t-57 -21.5q-35 -4 -80 -5t-88 7t-77 29.5t-44 62.5l-12 51.5t-9 51.5q-10 90 -60 134t-155 48q-73 2 -120.5 -11.5t-75 -41t-39.5 -67.5t-19 -91q-10 -72 -25.5 -106.5t-40 -48t-59 -13.5t-79.5 -2
q-41 -2 -73 4t-51.5 23.5t-26.5 45t1 68.5q17 92 46.5 228.5l65.5 290l73.5 310l70.5 291l57.5 231.5l32.5 130q17 66 24 102.5t25.5 54t58.5 19.5t124 0h27.5h37t35.5 -1t25 -1q47 -2 73.5 -7t41 -20.5t21.5 -43t17 -72.5zM467 948q-6 131 51 271q37 100 35 186
q-41 -121 -72.5 -237.5t-50.5 -233.5q0 -8 1 -14.5t18 -1.5q18 6 19 14t-1 16zM643 621q21 0 43.5 1t39.5 9t25.5 25.5t0.5 48.5q-13 49 -23 121.5t-21.5 140t-25.5 115.5t-35 48q-16 0 -31.5 -48t-29 -115.5t-25.5 -141t-24 -125.5q-9 -34 1.5 -51.5t29 -24t39 -5t36.5 1.5
zM1094 342l4 -77t10 -74.5t24.5 -71.5t45.5 -66q2 78 -20.5 150.5t-63.5 138.5zM690 1952q-12 -41 -36.5 -64.5t-53.5 -33t-59.5 -7.5t-55.5 11q-61 18 -84.5 53t-27.5 82q-4 26 0 54t17 52.5t39 45t67 32.5q26 10 42.5 0t34.5 -41q11 -22 2.5 -37.5t-22.5 -30.5
q-10 -6 -18.5 -10t-16.5 -10q-20 -14 -23 -42t11 -42q10 -10 22.5 -8t20.5 12q6 8 12 18.5t10 22.5q23 62 82 117q27 20 64 27.5t73.5 0t68.5 -28t46 -50.5q10 -19 16.5 -39.5t4.5 -42.5q0 -27 -12.5 -51.5t-34 -43t-49 -29.5t-56.5 -9q-12 2 -18 5t-11 15q-4 16 -5 29.5
t-1 38.5q2 12 17 18q8 4 15 7t11 7q9 11 12 22t-8 21q-8 5 -25.5 3.5t-25.5 -7.5q-16 -14 -25.5 -30.5t-19.5 -36.5z" />
    <glyph glyph-name="Otilde" unicode="&#xd5;" horiz-adv-x="1253" 
d="M907 1767q68 -32 109 -83.5t67.5 -113t42 -129l31.5 -132.5q47 -199 46 -396.5t-32 -396.5q-22 -145 -85.5 -255.5t-157.5 -179.5t-213 -89.5t-254 16.5q-101 27 -184.5 108t-129.5 193q-59 144 -88.5 296.5t-25.5 338.5q6 62 10 128.5t14.5 136t26.5 140t47 140.5
q49 119 140 194.5t200 109.5t223.5 26.5t212.5 -52.5zM856 1317q-31 53 -71 101t-111 89q14 -41 37.5 -68.5t48 -47t50.5 -37t46 -37.5zM590 1624q-53 8 -106.5 -7t-99.5 -47t-78 -78t-40 -95l157 110.5zM317 537q23 -117 73 -164t155 -49l-130.5 95t-97.5 118zM444 612
q21 -92 70 -144t123 -54q39 0 66.5 17.5t47 47t32 67.5t20.5 79q12 49 12 103t4 108q2 92 -7 178t-38 170q-29 78 -79 132t-115 52q-31 -2 -54.5 -21.5t-41 -49t-29 -65.5t-15.5 -73q-20 -135 -22 -273t26 -274zM684 223q70 2 119 17.5t83 45t55.5 76t33.5 111.5
q-23 -45 -53.5 -79t-68.5 -62.5t-81 -55zM670 1944q-13 -41 -37.5 -65t-53 -33t-59.5 -7t-55 10q-62 19 -85.5 53.5t-27.5 82.5q-4 26 0 53.5t17.5 52.5t39 45.5t66.5 32.5q27 10 43.5 0t34.5 -41q10 -23 2 -38t-23 -30q-10 -6 -18 -10t-16 -10q-21 -15 -24 -42.5t11 -41.5
q11 -10 23 -8t20 12q7 8 13 18.5t10 22.5q22 61 82 117q26 20 63 27t74 0t68.5 -27.5t46.5 -51.5q10 -18 16 -38.5t4 -42.5q0 -27 -12 -51.5t-33.5 -43t-49.5 -30t-56 -9.5q-13 2 -19 5.5t-10 15.5q-4 16 -5 29.5t-1 37.5q2 13 16 19q8 4 15.5 7t11.5 7q8 10 11 21.5
t-7 21.5q-8 4 -25.5 3t-25.5 -7q-17 -14 -26 -30.5z" />
    <glyph glyph-name="OE" unicode="&#x152;" horiz-adv-x="1745" 
d="M1630 358q51 0 69.5 -23.5t20.5 -78.5q0 -102 -8 -156.5t-37.5 -77t-87 -24.5t-155.5 -2q-41 2 -103.5 1t-130.5 -1t-130 -1t-103 1t-63.5 11t-35.5 34q-86 -45 -188.5 -54.5t-216.5 21.5q-101 27 -184.5 108t-129.5 193q-59 144 -88.5 296.5t-25.5 338.5q6 62 10 128.5
t14.5 136t26.5 140t47 140.5q47 113 132 186.5t188.5 110.5t213 35t207.5 -39q17 16 39 16l736 -4q63 0 67 -74q2 -4 2 -12q-2 -119 -7 -181.5t-24.5 -92t-59.5 -33.5t-112 -6h-110q-72 -2 -114 -4t-62.5 -20.5t-24.5 -62.5t0 -132q6 -29 21.5 -38.5t38.5 -9.5l170 -4
q79 -2 105 -32.5t24 -112.5q0 -39 -2.5 -78t-14.5 -69.5t-40.5 -49t-82.5 -14.5q-84 4 -128 5t-62.5 -17.5t-20.5 -64.5t0 -138q2 -47 1 -83t6.5 -60.5t26 -37t59.5 -12.5q86 -2 166.5 -3t160.5 1zM444 612q21 -92 70 -144t123 -54q39 0 66.5 17.5t47 47t32 67.5t20.5 79
q12 49 12 103t4 108q2 92 -7 178t-38 170q-29 78 -79 132t-115 52q-31 -2 -54.5 -21.5t-41 -49t-29 -65.5t-15.5 -73q-20 -135 -22 -273t26 -274zM590 1624q-53 8 -106.5 -7t-99.5 -47t-78 -78t-40 -95zM1520 1583q2 -8 -1 -18.5t-3 -19.5t6 -14t28 -5q27 0 43.5 12t18.5 39
q2 25 -2 49.5t-39 28.5q-23 2 -31 -4t-11 -17.5t-4 -25t-5 -25.5zM317 537q23 -117 73 -164t155 -49l-130.5 95t-97.5 118zM674 1507q14 -39 33.5 -64.5t43 -45t47 -34.5t44.5 -34v10q-29 47 -67 89t-101 79zM684 223q96 4 156 33v63q-35 -24 -75 -47.5z" />
    <glyph glyph-name="oe" unicode="&#x153;" horiz-adv-x="1745" 
d="M1630 358q51 0 69.5 -23.5t20.5 -78.5q0 -102 -8 -156.5t-37.5 -77t-87 -24.5t-155.5 -2q-41 2 -103.5 1t-130.5 -1t-130 -1t-103 1t-63.5 11t-35.5 34q-86 -45 -188.5 -54.5t-216.5 21.5q-101 27 -184.5 108t-129.5 193q-59 144 -88.5 296.5t-25.5 338.5q6 62 10 128.5
t14.5 136t26.5 140t47 140.5q47 113 132 186.5t188.5 110.5t213 35t207.5 -39q17 16 39 16l736 -4q63 0 67 -74q2 -4 2 -12q-2 -119 -7 -181.5t-24.5 -92t-59.5 -33.5t-112 -6h-110q-72 -2 -114 -4t-62.5 -20.5t-24.5 -62.5t0 -132q6 -29 21.5 -38.5t38.5 -9.5l170 -4
q79 -2 105 -32.5t24 -112.5q0 -39 -2.5 -78t-14.5 -69.5t-40.5 -49t-82.5 -14.5q-84 4 -128 5t-62.5 -17.5t-20.5 -64.5t0 -138q2 -47 1 -83t6.5 -60.5t26 -37t59.5 -12.5q86 -2 166.5 -3t160.5 1zM444 612q21 -92 70 -144t123 -54q39 0 66.5 17.5t47 47t32 67.5t20.5 79
q12 49 12 103t4 108q2 92 -7 178t-38 170q-29 78 -79 132t-115 52q-31 -2 -54.5 -21.5t-41 -49t-29 -65.5t-15.5 -73q-20 -135 -22 -273t26 -274zM590 1624q-53 8 -106.5 -7t-99.5 -47t-78 -78t-40 -95zM1520 1583q2 -8 -1 -18.5t-3 -19.5t6 -14t28 -5q27 0 43.5 12t18.5 39
q2 25 -2 49.5t-39 28.5q-23 2 -31 -4t-11 -17.5t-4 -25t-5 -25.5zM317 537q23 -117 73 -164t155 -49l-130.5 95t-97.5 118zM674 1507q14 -39 33.5 -64.5t43 -45t47 -34.5t44.5 -34v10q-29 47 -67 89t-101 79zM684 223q96 4 156 33v63q-35 -24 -75 -47.5z" />
    <glyph glyph-name="endash" unicode="&#x2013;" horiz-adv-x="793" 
d="M758 854q0 -78 -2 -113.5t-15.5 -48t-44 -9.5t-90.5 3q-84 0 -152.5 1t-131 4t-124 5t-130.5 6q-25 -2 -31 9.5t-6 36.5v37.5v47v41v21.5q4 23 14 27t37 2q43 0 124 -2t172 -4.5t177 -2.5t135 7q68 10 68 -68zM82 854q4 -18 15.5 -17t21.5 5q47 8 73.5 13t50 6t50 -2
t74.5 -9q125 -19 258 4q-80 6 -140.5 12t-117 9.5t-117 3.5t-139.5 -2q-11 -3 -22 -5t-7 -18zM653 780q-4 13 -11 17t-16.5 4t-17.5 -2t-16 0q-6 2 -12.5 0t-10.5 -2q4 -11 -13 -18t-38.5 -12t-38 -8t-10.5 -4t42 0t122 5q8 0 15 6t5 14z" />
    <glyph glyph-name="emdash" unicode="&#x2014;" horiz-adv-x="1296" 
d="M1262 854q0 -78 -2.5 -113.5t-15.5 -48t-44 -9.5t-90 3q-55 0 -141 1t-186.5 2l-207 2t-204 3t-177 4t-126.5 4q-25 -2 -31 9.5t-6 36.5v37.5v47v41v21.5q4 23 14 27t37 2q29 0 113 -1t196.5 -3t239.5 -3.5t240.5 -1.5t201.5 1.5t121 5.5q68 10 68 -68zM82 854
q4 -18 15.5 -17t21.5 5q31 6 90 10t133 6t152.5 3t152.5 0t132.5 -4t90.5 -7q125 -19 258 4q-53 4 -135 8t-177 7t-196.5 5.5t-196.5 3.5t-177 1t-135 -2q-11 -3 -22 -5t-7 -18zM1157 780q-4 13 -11 17t-16.5 4t-17.5 -2t-16 0q-6 2 -12.5 0t-10.5 -2q4 -11 -13.5 -18
t-39 -12t-37.5 -8t-10 -4t42 0t122 5q8 0 15 6t5 14z" />
    <glyph glyph-name="quotedblleft" unicode="&#x201c;" horiz-adv-x="840" 
d="M703 1113q25 34 31 94q0 58 -3 110q-3 53 22 121q12 35 -26 27q-38 -9 -88 -44q-50 -36 -95 -93q-45 -58 -51 -121q-7 -66 26 -93q33 -28 92 -32q66 -4 92 31zM643 1139q-11 4 -13 8q-8 31 3 58q11 26 40 59q16 -37 15 -66q-1 -30 -30 -59q-4 -4 -15 0zM316 1113
q25 34 31 94q0 58 -3 110q-3 53 22 121q12 35 -26 27q-38 -9 -88 -44q-50 -36 -95 -93q-45 -58 -51 -121q-7 -66 26 -93q33 -28 92 -32q66 -4 92 31zM256 1139q-11 4 -13 8q-8 31 3 58q11 26 40 59q16 -37 15 -66q-1 -30 -30 -59q-4 -4 -15 0z" />
    <glyph glyph-name="quotedblright" unicode="&#x201d;" horiz-adv-x="840" 
d="M159 1436q-26 -35 -32 -95q0 -57 3 -110t-22 -121q-12 -35 26 -26q38 8 88 44q50 35 95 93q45 57 51 120q7 66 -26 94q-33 27 -92 31q-66 4 -91 -30zM218 1409q11 -4 13 -8q8 -31 -3 -57q-11 -27 -40 -60q-16 37 -15 67q1 29 30 58q4 4 15 0zM546 1436q-26 -35 -32 -95
q0 -57 3 -110t-22 -121q-12 -35 26 -26q38 8 88 44q50 35 95 93q45 57 51 120q7 66 -26 94q-33 27 -92 31q-66 4 -91 -30zM605 1409q11 -4 13 -8q8 -31 -3 -57q-11 -27 -40 -60q-16 37 -15 67q1 29 30 58q4 4 15 0z" />
    <glyph glyph-name="quoteleft" unicode="&#x2018;" horiz-adv-x="467" 
d="M232 1082q-59 4 -92 31.5t-26 93.5q6 63 51 120.5t95 93t88 44t26 -26.5q-25 -68 -22 -121t3 -110q-6 -60 -31.5 -94.5t-91.5 -30.5zM279 1139q29 29 30 58.5t-15 66.5q-29 -33 -40 -59.5t-3 -57.5q2 -4 13 -8t15 0z" />
    <glyph glyph-name="quoteright" unicode="&#x2019;" horiz-adv-x="467" 
d="M258 1466q59 -4 92 -31.5t26 -93.5q-6 -63 -51 -120.5t-95 -93t-88 -44t-26 26.5q25 68 22 121t-3 110q6 60 31.5 94.5t91.5 30.5zM211 1409q-29 -29 -30 -58.5t15 -66.5q29 33 40 59.5t3 57.5q-2 4 -13 8t-15 0z" />
    <glyph glyph-name="divide" unicode="&#xf7;" horiz-adv-x="920" 
d="M889 827q0 -77 -2 -113t-15.5 -48.5t-44 -9.5t-90.5 3q-84 0 -173 1.5t-177 4.5t-170 5t-151 6q-25 -2 -31 9t-6 36v37.5v47v41v21.5q4 23 14 27t37 2q29 0 85 -1t128 -3t150.5 -3t151.5 -1t133 1t93 5q68 10 68 -68zM80 827q4 -18 15 -17t22 5q96 16 190 19.5t191 -11.5
q125 -18 258 4q-162 15 -324 22t-323 1l-22 -4t-7 -19zM784 754q-4 12 -11 16t-16 4t-17.5 -2t-16.5 0q-6 2 -12 0t-11 -2q5 -10 -12.5 -17.5t-39 -12.5t-38 -8t-10.5 -4t42 0t122 5q8 0 15 6t5 15zM420 594q47 -2 74.5 -23.5t23.5 -72.5q-4 -49 -26.5 -85t-79.5 -34
q-29 0 -45.5 11t-26.5 27.5t-14 37t-9 43.5q7 47 27.5 73.5t75.5 22.5zM461 549q-12 -10 -16.5 -15.5t-4.5 -10.5t4.5 -12t10.5 -22q20 25 26 28t2 26q-2 4 -11 7t-11 -1zM420 1190q47 -2 74.5 -23.5t23.5 -72.5q-4 -50 -26.5 -85.5t-79.5 -33.5q-29 0 -45.5 11t-26.5 27.5
t-14 37t-9 43.5q7 47 27.5 73.5t75.5 22.5zM461 1145q-12 -10 -16.5 -15.5t-4.5 -10.5t4.5 -12t10.5 -22q20 25 26 28t2 26q-2 4 -11 7t-11 -1z" />
    <glyph glyph-name="lozenge" unicode="&#x25ca;" horiz-adv-x="1012" 
d="M549 1422l418 -713l-418 -709h-111l-391 709l391 713h111zM495 1325l-340 -616l340 -615l359 615z" />
    <glyph glyph-name="ydieresis" unicode="&#xff;" horiz-adv-x="1268" 
d="M479 2126q64 -4 97.5 -32t29.5 -93q-4 -64 -33.5 -110t-103.5 -44q-37 0 -58.5 14.5t-33.5 36t-18.5 48t-10.5 55.5q8 59 34 94t97 31zM532 2068q-14 -14 -20 -21t-6 -13t5 -15.5t13 -27.5q15 16 24 23t13 12.5t4 11.5t-4 22q-2 4 -13 8.5t-16 -0.5zM786 2126
q64 -4 98 -32t29 -93q-4 -64 -33.5 -110t-103.5 -44q-37 0 -58.5 14.5t-33.5 36t-18.5 48t-10.5 55.5q9 59 34.5 94t96.5 31zM840 2068q-15 -14 -21 -21t-6 -13t5 -15.5t13 -27.5q15 16 24 23t13 12.5t4 11.5t-4 22q-2 4 -13 8.5t-15 -0.5zM895 1771q-56 -37 -72 -105
q-6 -23 -22 -71l-34 -105l-40 -116l-35 -99q-7 10 -24 41l-36 66l-37 67q-16 31 -22 41q-43 82 -69 138q-27 56 -48 90q-20 34 -43 53q-22 18 -59 25t-94 8q-58 1 -148 3q-74 2 -80 -35q-6 -38 35 -106q31 -47 78 -130l104 -187l118 -216l118 -225l-106 -257l-94 -229
l-78 -184l-54 -131q-23 -53 -19 -76q3 -22 60 -30q20 -2 68 0q49 2 131 2q69 0 104 13q35 12 51 63q13 24 39 77l54 112l56 113q27 54 40 83l178 346l76 179l66 164t61 164l61 177q25 78 55 137q31 58 34 98q3 39 -40 59q-43 19 -162 19q-116 0 -171 -36zM424 67q1 12 5 22
q68 187 159 368t195 365q-22 -145 -118 -292q-72 -109 -114 -215q-42 -107 -58 -216l-6 -24q-3 -12 -35 -17q-29 -4 -28 9zM94 1751q-13 -7 -28 -12l3 11q2 6 6 11q4 4 13 7q9 2 26 2q-7 -12 -20 -19z" />
    <glyph glyph-name="Ydieresis" unicode="&#x178;" horiz-adv-x="1268" 
d="M479 2126q64 -4 97.5 -32t29.5 -93q-4 -64 -33.5 -110t-103.5 -44q-37 0 -58.5 14.5t-33.5 36t-18.5 48t-10.5 55.5q8 59 34 94t97 31zM532 2068q-14 -14 -20 -21t-6 -13t5 -15.5t13 -27.5q15 16 24 23t13 12.5t4 11.5t-4 22q-2 4 -13 8.5t-16 -0.5zM786 2126
q64 -4 98 -32t29 -93q-4 -64 -33.5 -110t-103.5 -44q-37 0 -58.5 14.5t-33.5 36t-18.5 48t-10.5 55.5q9 59 34.5 94t96.5 31zM840 2068q-15 -14 -21 -21t-6 -13t5 -15.5t13 -27.5q15 16 24 23t13 12.5t4 11.5t-4 22q-2 4 -13 8.5t-15 -0.5zM895 1771q-56 -37 -72 -105
q-6 -23 -22 -71l-34 -105l-40 -116l-35 -99q-7 10 -24 41l-36 66l-37 67q-16 31 -22 41q-43 82 -69 138q-27 56 -48 90q-20 34 -43 53q-22 18 -59 25t-94 8q-58 1 -148 3q-74 2 -80 -35q-6 -38 35 -106q31 -47 78 -130l104 -187l118 -216l118 -225l-106 -257l-94 -229
l-78 -184l-54 -131q-23 -53 -19 -76q3 -22 60 -30q20 -2 68 0q49 2 131 2q69 0 104 13q35 12 51 63q13 24 39 77l54 112l56 113q27 54 40 83l178 346l76 179l66 164t61 164l61 177q25 78 55 137q31 58 34 98q3 39 -40 59q-43 19 -162 19q-116 0 -171 -36zM424 67q1 12 5 22
q68 187 159 368t195 365q-22 -145 -118 -292q-72 -109 -114 -215q-42 -107 -58 -216l-6 -24q-3 -12 -35 -17q-29 -4 -28 9zM94 1751q-13 -7 -28 -12l3 11q2 6 6 11q4 4 13 7q9 2 26 2q-7 -12 -20 -19z" />
    <glyph glyph-name="fraction" unicode="&#x2044;" horiz-adv-x="907" 
d="M811 1485l-60 -161.5l-89.5 -239l-102.5 -275.5l-102 -275.5l-88 -241t-58 -165.5q-12 -37 -27.5 -56.5t-30.5 -27.5t-30.5 -6t-32.5 6q-61 18 -95 42t-46 51.5t-8 58t14 63.5l89.5 260.5l108.5 310l111.5 319.5l101.5 288l77.5 215t38.5 100q10 23 29.5 30t42 5
t49 -10.5l51.5 -16.5q49 -14 68.5 -43.5t21.5 -67.5t-8.5 -81t-24.5 -82zM408 934l79 177t75 181t56.5 186.5t26.5 196.5q-49 -88 -77.5 -180t-52 -187.5l-47.5 -189.5t-60 -184z" />
    <glyph glyph-name="fraction" unicode="&#x2215;" horiz-adv-x="907" 
d="M811 1485l-60 -161.5l-89.5 -239l-102.5 -275.5l-102 -275.5l-88 -241t-58 -165.5q-12 -37 -27.5 -56.5t-30.5 -27.5t-30.5 -6t-32.5 6q-61 18 -95 42t-46 51.5t-8 58t14 63.5l89.5 260.5l108.5 310l111.5 319.5l101.5 288l77.5 215t38.5 100q10 23 29.5 30t42 5
t49 -10.5l51.5 -16.5q49 -14 68.5 -43.5t21.5 -67.5t-8.5 -81t-24.5 -82zM408 934l79 177t75 181t56.5 186.5t26.5 196.5q-49 -88 -77.5 -180t-52 -187.5l-47.5 -189.5t-60 -184z" />
    <glyph glyph-name="Euro" unicode="&#x20ac;" horiz-adv-x="1434" 
d="M834 -29q-84 -4 -144.5 7.5t-100.5 26.5t-63.5 32.5t-36.5 25.5q-69 43 -124.5 134.5t-92 213t-54 263t-12.5 284t34.5 274.5t89.5 234q108 189 238 279t261.5 91t254 -84t219.5 -245q30 -49 43.5 -104t23.5 -113q8 -33 4 -68.5t-45 -45.5q-18 -5 -57 -11t-81 -6
t-75 10.5t-39 40.5q-18 78 -67 126t-113.5 63.5t-134.5 -2t-127 -70.5q-35 -33 -56.5 -101.5t-34 -156.5t-11 -184.5t11.5 -183.5t32.5 -154.5t57.5 -97.5q33 -48 75 -73.5t87 -31.5t89 6t83 41q47 35 75.5 94.5t26.5 114.5q0 43 22.5 57.5t57.5 22.5q6 2 33.5 10t61.5 9
t69 -12t55 -56q12 -29 13 -79t-8 -105.5t-27.5 -105.5t-44.5 -77q-93 -129 -214.5 -204.5t-254.5 -88.5zM363 1096q-11 -82 -19 -164t-5 -162t23.5 -156.5t69.5 -150.5q-39 155 -56.5 313t-12.5 320zM829 1513q91 -4 166.5 -36.5t143.5 -90.5q-27 60 -63 99t-77 55t-85 10
t-85 -37zM489 1468q-51 -43 -78.5 -97t-33.5 -128q10 6 16 7t8 5zM891 1101q0 -78 -2 -114t-15.5 -48t-44 -9t-90.5 3q-84 0 -173 1t-177 4t-170 5t-151 6q-25 -2 -31 9.5t-6 35.5v38.5v47v41v21.5q4 22 14 26t37 2q29 0 85 -1t128 -3t150.5 -3t151.5 -1t133.5 1t92.5 5
q68 11 68 -67zM82 1101q4 -19 15.5 -18t21.5 5q96 17 190.5 20t190.5 -11q125 -19 258 4q-162 14 -324 21t-323 1l-22 -4t-7 -18zM35 662q0 76 2 112t15.5 48t44 10t89.5 -2q84 0 173.5 -1t176.5 -4l170 -6t152 -5q25 2 31 -9t6 -36v-38v-47.5v-41.5v-21q-4 -22 -14.5 -26
t-36.5 -2q-29 0 -85 1t-128 3t-151 3t-151.5 1t-133 -1t-93.5 -5q-67 -10 -67 67zM844 662q-4 19 -15.5 18t-21.5 -5q-96 -17 -190.5 -20t-190.5 12q-125 18 -258 -5q162 -14 323.5 -21t323.5 -1q10 2 21.5 4t7.5 18z" />
    <glyph glyph-name="guilsinglleft" unicode="&#x2039;" horiz-adv-x="559" 
d="M502 983l-212 -451l212 -462h-181l-259 462l259 451h181zM287 768q-29 -29 -30 -58.5t15 -66.5q29 33 40 59.5t3 57.5q-2 4 -13 8t-15 0z" />
    <glyph glyph-name="guilsinglright" unicode="&#x203a;" horiz-adv-x="559" 
d="M61 70l213 452l-213 461h181l259 -461l-259 -452h-181zM287 768q-29 -29 -30 -59q-1 -29 15 -66q29 33 40 60q11 26 3 57q-2 4 -13 8t-15 0z" />
    <glyph glyph-name="uniFB01" unicode="&#xfb01;" horiz-adv-x="1026" 
d="M25 1062h128v80q0 145 27.5 210t89 102t151.5 37q98 0 192 -36l-30 -196q-56 16 -107 16q-49 0 -71 -28t-22 -110v-75h172v-221h-172v-841h-230v841h-128v221zM672 1206v260h230v-260h-230zM672 0v1062h230v-1062h-230z" />
    <glyph glyph-name="uniFB02" unicode="&#xfb02;" horiz-adv-x="1026" 
d="M25 1062h128v80q0 145 27.5 210t89 102t151.5 37q98 0 192 -36l-30 -196q-56 16 -107 16q-49 0 -71 -28t-22 -110v-75h172v-221h-172v-841h-230v841h-128v221zM672 0v1466h231v-1466h-231z" />
    <glyph glyph-name="daggerdbl" unicode="&#x2021;" horiz-adv-x="934" 
d="M357 -350v333h-301v233h301v656h-301v233h301v343h216v-343h295v-233h-295v-656h295v-233h-295v-333h-216z" />
    <glyph glyph-name="uni2219" unicode="&#x2219;" horiz-adv-x="467" 
d="M121 573v281h231v-281h-231z" />
    <glyph glyph-name="quotesinglbase" unicode="&#x201a;" horiz-adv-x="348" 
d="M197 272q59 -4 92 -31.5t26 -93.5q-6 -63 -51 -120.5t-95 -93t-88 -44t-26 26.5q25 68 22 121t-3 110q6 60 31.5 94.5t91.5 30.5zM150 215q-29 -29 -30 -58.5t15 -66.5q29 33 40 59.5t3 57.5q-2 4 -13 8t-15 0z" />
    <glyph glyph-name="quotedblbase" unicode="&#x201e;" horiz-adv-x="840" 
d="M131 251q-26 -35 -32 -95q0 -57 3 -110t-22 -121q-12 -35 26 -26q38 8 88 44q50 35 95 93q45 57 51 120q7 66 -26 94q-33 27 -92 31q-66 4 -91 -30zM190 224q11 -4 13 -8q8 -31 -3 -57q-11 -27 -40 -60q-16 37 -15 67q1 29 30 58q4 4 15 0zM518 251q-26 -35 -32 -95
q0 -57 3 -110t-22 -121q-12 -35 26 -26q38 8 88 44q50 35 95 93q45 57 51 120q7 66 -26 94q-33 27 -92 31q-66 4 -91 -30zM577 224q11 -4 13 -8q8 -31 -3 -57q-11 -27 -40 -60q-16 37 -15 67q1 29 30 58q4 4 15 0z" />
    <glyph glyph-name="perthousand" unicode="&#x2030;" horiz-adv-x="1179" 
d="M813 1485l-60 -161.5l-89.5 -239l-102.5 -275.5l-102 -275.5l-88 -241t-58 -165.5q-12 -37 -27.5 -56.5t-30.5 -27.5t-30.5 -6t-31.5 6q-62 18 -96 42t-46 51.5t-8 58t14 63.5l89.5 260.5l108.5 310l111.5 319.5l101.5 288l78 215t38 100q10 23 29.5 30t42 5t49 -10.5
l51.5 -16.5q49 -14 68.5 -43.5t21.5 -67.5t-8.5 -81t-24.5 -82zM410 934l79.5 177t74.5 181t56.5 186.5t26.5 196.5q-49 -88 -77.5 -180t-52 -187.5l-47.5 -189.5t-60 -184zM223 1638q64 -4 97.5 -31.5t29.5 -93.5q-4 -63 -33.5 -109t-103.5 -44q-37 0 -58.5 14.5t-33.5 36
t-18.5 48t-10.5 54.5q8 60 34 94.5t97 30.5zM223 1552q-26 2 -35.5 -11t-13.5 -36q4 -20 11.5 -37.5t33.5 -19.5q29 0 39 17.5t12 39.5q2 25 -11 35t-36 12zM700 401q64 -4 97.5 -31.5t29.5 -93.5q-4 -63 -33.5 -109t-103.5 -44q-37 0 -58.5 14.5t-33.5 36t-18.5 48
t-10.5 54.5q9 60 34.5 95t96.5 30zM700 315q-26 2 -35.5 -11t-13.5 -36q4 -20 11.5 -37.5t33.5 -19.5q29 0 39 17.5t13 39.5q2 25 -11.5 35t-36.5 12zM1000 401q64 -4 97.5 -31.5t29.5 -93.5q-4 -63 -33.5 -109t-103.5 -44q-37 0 -58.5 14.5t-33.5 36t-18.5 48t-10.5 54.5
q9 60 34.5 95t96.5 30zM1000 315q-26 2 -35.5 -11t-13.5 -36q4 -20 11.5 -37.5t33.5 -19.5q29 0 39 17.5t13 39.5q2 25 -11.5 35t-36.5 12z" />
    <glyph glyph-name="Acircumflex" unicode="&#xc2;" horiz-adv-x="1292" 
d="M905 1651l167 -753l173 -753q6 -22 11.5 -44.5t2 -43t-19.5 -36t-57 -21.5q-35 -4 -80 -5t-88 7t-77 29.5t-44 62.5l-12 51.5t-9 51.5q-10 90 -60 134t-155 48q-73 2 -120.5 -11.5t-75 -41t-39.5 -67.5t-19 -91q-10 -72 -25.5 -106.5t-40 -48t-59 -13.5t-79.5 -2
q-41 -2 -73 4t-51.5 23.5t-26.5 45t1 68.5q17 92 46.5 228.5l65.5 290l73.5 310l70.5 291l57.5 231.5l32.5 130q17 66 24 102.5t25.5 54t58.5 19.5t124 0h27.5h37t35.5 -1t25 -1q47 -2 73.5 -7t41 -20.5t21.5 -43t17 -72.5zM467 948q-6 131 51 271q37 100 35 186
q-41 -121 -72.5 -237.5t-50.5 -233.5q0 -8 1 -14.5t18 -1.5q18 6 19 14t-1 16zM643 621q21 0 43.5 1t39.5 9t25.5 25.5t0.5 48.5q-13 49 -23 121.5t-21.5 140t-25.5 115.5t-35 48q-16 0 -31.5 -48t-29 -115.5t-25.5 -141t-24 -125.5q-9 -34 1.5 -51.5t29 -24t39 -5t36.5 1.5
zM1094 342l4 -77t10 -74.5t24.5 -71.5t45.5 -66q2 78 -20.5 150.5t-63.5 138.5zM543 2081q26 22 50.5 37.5t51.5 13.5q27 2 51.5 -13.5t53.5 -37.5l69 -86t96 -78q27 -16 7.5 -31.5t-63.5 -24t-102.5 -7.5t-111.5 20q-53 -19 -110.5 -20t-101.5 7.5t-63.5 24t7.5 31.5
q63 35 96 78t70 86zM659 2081q-4 0 -11 -10.5t-3 -14.5q25 -51 109 -59q-13 37 -33.5 59.5t-61.5 24.5z" />
    <glyph glyph-name="Ecircumflex" unicode="&#xca;" horiz-adv-x="948" 
d="M825 358q52 0 70 -23.5t20 -78.5q0 -102 -8 -156.5t-37.5 -77t-87 -24.5t-155.5 -2q-41 2 -103.5 1t-130 -1t-130 -1t-103.5 1q-37 0 -58.5 8t-34 26.5t-18.5 49.5t-12 78q-2 8 -2 71.5v163v224t1 257t1 262.5t1 237.5t0 182t-1 99.5q0 24 2 50t9 46.5t21.5 33.5t36.5 13
q76 0 173.5 -1t199 -1t196.5 -1t167 -1q63 0 67 -74q2 -4 2 -12q-2 -119 -7 -181.5t-24.5 -92t-59.5 -33.5t-111 -6h-111q-72 -2 -114 -4t-62.5 -20.5t-24.5 -62.5t0 -132q6 -29 21.5 -38.5t38.5 -9.5q43 -2 86 -2t84 -2q80 -2 105.5 -32.5t23.5 -112.5q0 -39 -2 -78
t-14.5 -69.5t-41 -49t-82.5 -14.5q-84 4 -128 5t-62 -17.5t-20.5 -64.5t0.5 -138q2 -47 1 -83t6 -60.5t25.5 -37t59.5 -12.5q86 -2 166.5 -3t160.5 1zM715 1583q2 -8 -1 -18.5t-3 -19.5t6 -14t28 -5q27 0 43.5 12t18.5 39q2 25 -2 49.5t-39 28.5q-23 2 -31 -4t-11 -17.5
t-4 -25t-5 -25.5zM371 2073q26 22 50.5 37.5t51.5 13.5q27 2 51.5 -13.5t53.5 -37.5l69 -86t96 -78q27 -17 7.5 -32t-63.5 -23.5t-102.5 -7.5t-111.5 20q-53 -19 -110.5 -20t-101.5 7.5t-63.5 23.5t7.5 32q63 35 96 78t70 86zM487 2073q-4 0 -11 -10.5t-3 -14.5
q25 -51 109 -59q-13 36 -33.5 59t-61.5 25z" />
    <glyph glyph-name="Aacute" unicode="&#xc1;" horiz-adv-x="1292" 
d="M905 1651l167 -753l173 -753q6 -22 11.5 -44.5t2 -43t-19.5 -36t-57 -21.5q-35 -4 -80 -5t-88 7t-77 29.5t-44 62.5l-12 51.5t-9 51.5q-10 90 -60 134t-155 48q-73 2 -120.5 -11.5t-75 -41t-39.5 -67.5t-19 -91q-10 -72 -25.5 -106.5t-40 -48t-59 -13.5t-79.5 -2
q-41 -2 -73 4t-51.5 23.5t-26.5 45t1 68.5q17 92 46.5 228.5l65.5 290l73.5 310l70.5 291l57.5 231.5l32.5 130q17 66 24 102.5t25.5 54t58.5 19.5t124 0h27.5h37t35.5 -1t25 -1q47 -2 73.5 -7t41 -20.5t21.5 -43t17 -72.5zM467 948q-6 131 51 271q37 100 35 186
q-41 -121 -72.5 -237.5t-50.5 -233.5q0 -8 1 -14.5t18 -1.5q18 6 19 14t-1 16zM643 621q21 0 43.5 1t39.5 9t25.5 25.5t0.5 48.5q-13 49 -23 121.5t-21.5 140t-25.5 115.5t-35 48q-16 0 -31.5 -48t-29 -115.5t-25.5 -141t-24 -125.5q-9 -34 1.5 -51.5t29 -24t39 -5t36.5 1.5
zM1094 342l4 -77t10 -74.5t24.5 -71.5t45.5 -66q2 78 -20.5 150.5t-63.5 138.5zM821 2089q43 -41 49.5 -83t-41.5 -89q-47 -45 -118.5 -58.5t-133 -7t-94 24.5t-2.5 37q64 35 96.5 78t69.5 86q45 41 86 50t88 -38zM750 2077q-41 -2 -61.5 -24.5t-33.5 -59.5q84 8 109 59
q4 4 -3 14.5t-11 10.5z" />
    <glyph glyph-name="Edieresis" unicode="&#xcb;" horiz-adv-x="948" 
d="M825 358q52 0 70 -23.5t20 -78.5q0 -102 -8 -156.5t-37.5 -77t-87 -24.5t-155.5 -2q-41 2 -103.5 1t-130 -1t-130 -1t-103.5 1q-37 0 -58.5 8t-34 26.5t-18.5 49.5t-12 78q-2 8 -2 71.5v163v224t1 257t1 262.5t1 237.5t0 182t-1 99.5q0 24 2 50t9 46.5t21.5 33.5t36.5 13
q76 0 173.5 -1t199 -1t196.5 -1t167 -1q63 0 67 -74q2 -4 2 -12q-2 -119 -7 -181.5t-24.5 -92t-59.5 -33.5t-111 -6h-111q-72 -2 -114 -4t-62.5 -20.5t-24.5 -62.5t0 -132q6 -29 21.5 -38.5t38.5 -9.5q43 -2 86 -2t84 -2q80 -2 105.5 -32.5t23.5 -112.5q0 -39 -2 -78
t-14.5 -69.5t-41 -49t-82.5 -14.5q-84 4 -128 5t-62 -17.5t-20.5 -64.5t0.5 -138q2 -47 1 -83t6 -60.5t25.5 -37t59.5 -12.5q86 -2 166.5 -3t160.5 1zM715 1583q2 -8 -1 -18.5t-3 -19.5t6 -14t28 -5q27 0 43.5 12t18.5 39q2 25 -2 49.5t-39 28.5q-23 2 -31 -4t-11 -17.5
t-4 -25t-5 -25.5zM319 2120q64 -4 98 -32t29 -93q-4 -64 -33.5 -110t-103.5 -44q-37 0 -58.5 14.5t-33.5 36t-18 48t-11 55.5q9 59 34.5 94t96.5 31zM373 2062q-15 -14 -21 -21t-6 -13.5t5 -15.5t14 -27q14 16 23 23t13.5 12t4.5 11.5t-5 22.5q-2 4 -13 8t-15 0zM627 2120
q63 -4 97 -32t30 -93q-4 -64 -34 -110t-104 -44q-36 0 -57.5 14.5t-34 36t-18.5 48t-10 55.5q8 59 33.5 94t97.5 31zM680 2062q-14 -14 -20.5 -21t-6.5 -13.5t5.5 -15.5t13.5 -27q14 16 23.5 23t13.5 12t4 11.5t-4 22.5q-2 4 -13.5 8t-15.5 0z" />
    <glyph glyph-name="Egrave" unicode="&#xc8;" horiz-adv-x="948" 
d="M825 358q52 0 70 -23.5t20 -78.5q0 -102 -8 -156.5t-37.5 -77t-87 -24.5t-155.5 -2q-41 2 -103.5 1t-130 -1t-130 -1t-103.5 1q-37 0 -58.5 8t-34 26.5t-18.5 49.5t-12 78q-2 8 -2 71.5v163v224t1 257t1 262.5t1 237.5t0 182t-1 99.5q0 24 2 50t9 46.5t21.5 33.5t36.5 13
q76 0 173.5 -1t199 -1t196.5 -1t167 -1q63 0 67 -74q2 -4 2 -12q-2 -119 -7 -181.5t-24.5 -92t-59.5 -33.5t-111 -6h-111q-72 -2 -114 -4t-62.5 -20.5t-24.5 -62.5t0 -132q6 -29 21.5 -38.5t38.5 -9.5q43 -2 86 -2t84 -2q80 -2 105.5 -32.5t23.5 -112.5q0 -39 -2 -78
t-14.5 -69.5t-41 -49t-82.5 -14.5q-84 4 -128 5t-62 -17.5t-20.5 -64.5t0.5 -138q2 -47 1 -83t6 -60.5t25.5 -37t59.5 -12.5q86 -2 166.5 -3t160.5 1zM715 1583q2 -8 -1 -18.5t-3 -19.5t6 -14t28 -5q27 0 43.5 12t18.5 39q2 25 -2 49.5t-39 28.5q-23 2 -31 -4t-11 -17.5
t-4 -25t-5 -25.5zM315 2083q47 47 88 37.5t86 -49.5q37 -43 70 -86t96 -78q21 -13 11.5 -25t-37 -22.5t-70.5 -14.5t-88 1t-89 19.5t-75 45.5q-47 47 -41 89t49 83zM387 2071q-4 0 -11 -10.5t-3 -14.5q24 -51 108 -59q-12 36 -32.5 58.5t-61.5 25.5z" />
    <glyph glyph-name="Iacute" unicode="&#xcd;" horiz-adv-x="530" 
d="M469 1604v-173.5v-254t-1 -294t-1 -295t1 -255t3 -174.5q2 -78 -44 -121t-167 -49q-65 -4 -104 7t-60.5 32.5t-29 51.5t-7.5 64q-2 117 -6 276t-7 329t-5 338.5t-4 305t-3 227.5t1 107q2 25 17.5 39.5t38 20.5t49 7t53.5 3l78 4t76 -3t64.5 -21.5t43.5 -53.5
q10 -28 12 -59t2 -59zM242 932q6 98 13 195.5t7 194.5t-12 194.5t-43 193.5q-14 -98 -9 -195.5t15 -194.5l20.5 -193.5t8.5 -194.5zM442 2091q43 -41 49.5 -83t-40.5 -89q-48 -45 -119.5 -58.5t-133 -7t-94 24.5t-2.5 37q64 35 96.5 78t69.5 86q45 41 86 50t88 -38z
M371 2079q-41 -2 -61.5 -24.5t-33.5 -59.5q84 8 109 59q4 4 -3 14.5t-11 10.5z" />
    <glyph glyph-name="Icircumflex" unicode="&#xce;" horiz-adv-x="530" 
d="M469 1604v-173.5v-254t-1 -294t-1 -295t1 -255t3 -174.5q2 -78 -44 -121t-167 -49q-65 -4 -104 7t-60.5 32.5t-29 51.5t-7.5 64q-2 117 -6 276t-7 329t-5 338.5t-4 305t-3 227.5t1 107q2 25 17.5 39.5t38 20.5t49 7t53.5 3l78 4t76 -3t64.5 -21.5t43.5 -53.5
q10 -28 12 -59t2 -59zM242 932q6 98 13 195.5t7 194.5t-12 194.5t-43 193.5q-14 -98 -9 -195.5t15 -194.5l20.5 -193.5t8.5 -194.5zM162 2073q26 22 51 37.5t51 13.5q27 2 51.5 -13.5t53.5 -37.5q37 -43 69.5 -86t96.5 -78q26 -17 6.5 -32t-63.5 -23.5t-102.5 -7.5
t-111.5 20q-53 -19 -110.5 -20t-101.5 7.5t-63.5 23.5t7.5 32q63 35 96 78t70 86zM279 2073q-5 0 -12 -10.5t-3 -14.5q25 -51 109 -59q-13 36 -33.5 59t-60.5 25z" />
    <glyph glyph-name="Idieresis" unicode="&#xcf;" horiz-adv-x="530" 
d="M469 1604v-173.5v-254t-1 -294t-1 -295t1 -255t3 -174.5q2 -78 -44 -121t-167 -49q-65 -4 -104 7t-60.5 32.5t-29 51.5t-7.5 64q-2 117 -6 276t-7 329t-5 338.5t-4 305t-3 227.5t1 107q2 25 17.5 39.5t38 20.5t49 7t53.5 3l78 4t76 -3t64.5 -21.5t43.5 -53.5
q10 -28 12 -59t2 -59zM242 932q6 98 13 195.5t7 194.5t-12 194.5t-43 193.5q-14 -98 -9 -195.5t15 -194.5l20.5 -193.5t8.5 -194.5zM111 2124q63 -4 97 -32t30 -93q-5 -64 -34.5 -110t-103.5 -44q-37 0 -58.5 14.5t-33.5 36t-18 48t-10 55.5q8 59 33.5 94t97.5 31zM164 2066
q-14 -14 -20.5 -21t-6.5 -13.5t5 -15.5t14 -27q14 16 23 23t13.5 12.5t4.5 11.5t-4 22q-3 4 -14 8.5t-15 -0.5zM418 2124q63 -4 97 -32t30 -93q-4 -64 -34 -110t-103 -44q-37 0 -58.5 14.5t-34 36t-18.5 48t-10 55.5q8 59 33.5 94t97.5 31zM471 2066q-14 -14 -20.5 -21
t-6.5 -13.5t5.5 -15.5t13.5 -27q14 16 23.5 23t13.5 12.5t4 11.5t-4 22q-2 4 -13.5 8.5t-15.5 -0.5z" />
    <glyph glyph-name="Igrave" unicode="&#xcc;" horiz-adv-x="530" 
d="M469 1604v-173.5v-254t-1 -294t-1 -295t1 -255t3 -174.5q2 -78 -44 -121t-167 -49q-65 -4 -104 7t-60.5 32.5t-29 51.5t-7.5 64q-2 117 -6 276t-7 329t-5 338.5t-4 305t-3 227.5t1 107q2 25 17.5 39.5t38 20.5t49 7t53.5 3l78 4t76 -3t64.5 -21.5t43.5 -53.5
q10 -28 12 -59t2 -59zM242 932q6 98 13 195.5t7 194.5t-12 194.5t-43 193.5q-14 -98 -9 -195.5t15 -194.5l20.5 -193.5t8.5 -194.5zM90 2091q47 47 88 38t86 -50q37 -43 70 -86t96 -78q21 -12 11.5 -24.5t-37 -22.5t-70.5 -14.5t-88 1t-89 19.5t-75 45q-47 47 -41 89t49 83z
M162 2079q-4 0 -11.5 -10.5t-3.5 -14.5q25 -51 109 -59q-12 37 -32.5 59.5t-61.5 24.5z" />
    <glyph glyph-name="Oacute" unicode="&#xd3;" horiz-adv-x="1253" 
d="M907 1767q68 -32 109 -83.5t67.5 -113t42 -129l31.5 -132.5q47 -199 46 -396.5t-32 -396.5q-22 -145 -85.5 -255.5t-157.5 -179.5t-213 -89.5t-254 16.5q-101 27 -184.5 108t-129.5 193q-59 144 -88.5 296.5t-25.5 338.5q6 62 10 128.5t14.5 136t26.5 140t47 140.5
q49 119 140 194.5t200 109.5t223.5 26.5t212.5 -52.5zM856 1317q-31 53 -71 101t-111 89q14 -41 37.5 -68.5t48 -47t50.5 -37t46 -37.5zM590 1624q-53 8 -106.5 -7t-99.5 -47t-78 -78t-40 -95l157 110.5zM317 537q23 -117 73 -164t155 -49l-130.5 95t-97.5 118zM444 612
q21 -92 70 -144t123 -54q39 0 66.5 17.5t47 47t32 67.5t20.5 79q12 49 12 103t4 108q2 92 -7 178t-38 170q-29 78 -79 132t-115 52q-31 -2 -54.5 -21.5t-41 -49t-29 -65.5t-15.5 -73q-20 -135 -22 -273t26 -274zM684 223q70 2 119 17.5t83 45t55.5 76t33.5 111.5
q-23 -45 -53.5 -79t-68.5 -62.5t-81 -55zM803 2087q43 -41 49 -83t-41 -89q-47 -45 -118.5 -58.5t-133 -7.5t-94.5 24.5t-2 37.5q63 35 96 78t70 86q45 41 86 50t88 -38zM731 2075q-41 -2 -61.5 -24.5t-32.5 -59.5q84 8 108 59q5 4 -2.5 14.5t-11.5 10.5z" />
    <glyph glyph-name="Ocircumflex" unicode="&#xd4;" horiz-adv-x="1253" 
d="M907 1767q68 -32 109 -83.5t67.5 -113t42 -129l31.5 -132.5q47 -199 46 -396.5t-32 -396.5q-22 -145 -85.5 -255.5t-157.5 -179.5t-213 -89.5t-254 16.5q-101 27 -184.5 108t-129.5 193q-59 144 -88.5 296.5t-25.5 338.5q6 62 10 128.5t14.5 136t26.5 140t47 140.5
q49 119 140 194.5t200 109.5t223.5 26.5t212.5 -52.5zM856 1317q-31 53 -71 101t-111 89q14 -41 37.5 -68.5t48 -47t50.5 -37t46 -37.5zM590 1624q-53 8 -106.5 -7t-99.5 -47t-78 -78t-40 -95l157 110.5zM317 537q23 -117 73 -164t155 -49l-130.5 95t-97.5 118zM444 612
q21 -92 70 -144t123 -54q39 0 66.5 17.5t47 47t32 67.5t20.5 79q12 49 12 103t4 108q2 92 -7 178t-38 170q-29 78 -79 132t-115 52q-31 -2 -54.5 -21.5t-41 -49t-29 -65.5t-15.5 -73q-20 -135 -22 -273t26 -274zM684 223q70 2 119 17.5t83 45t55.5 76t33.5 111.5
q-23 -45 -53.5 -79t-68.5 -62.5t-81 -55zM522 2077q27 22 51.5 37.5t51.5 13.5q26 2 50.5 -13.5t53.5 -37.5q37 -43 69.5 -86t96.5 -78q27 -17 7.5 -32t-63.5 -23.5t-102.5 -7.5t-111.5 20q-54 -19 -111 -20t-101 7.5t-63.5 23.5t6.5 32q64 35 96.5 78t69.5 86zM639 2077
q-4 0 -11 -10.5t-3 -14.5q24 -51 108 -59q-12 37 -32.5 59.5t-61.5 24.5z" />
    <glyph glyph-name="Ograve" unicode="&#xd2;" horiz-adv-x="1253" 
d="M907 1767q68 -32 109 -83.5t67.5 -113t42 -129l31.5 -132.5q47 -199 46 -396.5t-32 -396.5q-22 -145 -85.5 -255.5t-157.5 -179.5t-213 -89.5t-254 16.5q-101 27 -184.5 108t-129.5 193q-59 144 -88.5 296.5t-25.5 338.5q6 62 10 128.5t14.5 136t26.5 140t47 140.5
q49 119 140 194.5t200 109.5t223.5 26.5t212.5 -52.5zM856 1317q-31 53 -71 101t-111 89q14 -41 37.5 -68.5t48 -47t50.5 -37t46 -37.5zM590 1624q-53 8 -106.5 -7t-99.5 -47t-78 -78t-40 -95l157 110.5zM317 537q23 -117 73 -164t155 -49l-130.5 95t-97.5 118zM444 612
q21 -92 70 -144t123 -54q39 0 66.5 17.5t47 47t32 67.5t20.5 79q12 49 12 103t4 108q2 92 -7 178t-38 170q-29 78 -79 132t-115 52q-31 -2 -54.5 -21.5t-41 -49t-29 -65.5t-15.5 -73q-20 -135 -22 -273t26 -274zM684 223q70 2 119 17.5t83 45t55.5 76t33.5 111.5
q-23 -45 -53.5 -79t-68.5 -62.5t-81 -55zM451 2085q47 47 88 38t86 -50q37 -43 69.5 -86t96.5 -78q20 -13 11 -25t-37 -22.5t-71 -14.5t-88 1t-89 19.5t-75 45.5q-47 47 -40.5 89t49.5 83zM522 2073q-4 0 -11 -10.5t-3 -14.5q24 -51 108 -59q-12 36 -32.5 59t-61.5 25z" />
    <glyph glyph-name="Uacute" unicode="&#xda;" horiz-adv-x="1208" 
d="M891 1800q94 0 144 -2t75 -16.5t32 -46t13 -88.5q4 -56 7 -148t5 -200.5t3 -223t1 -216t-2 -180.5t-6 -116q-8 -100 -37.5 -195.5t-86 -172t-141.5 -129t-204 -66.5q-80 -8 -161.5 2t-154.5 41t-132.5 83t-95.5 128q-64 137 -83.5 279.5t-25.5 289.5q-8 205 -3 418t3 418
q0 55 21.5 82.5t56.5 39t76 13.5t81 6q189 19 189 -145q0 -105 1 -227.5l2 -248.5l2 -249t1 -228q0 -63 8 -128.5t45 -118.5q19 -27 53.5 -38t75.5 -1q35 8 60.5 28.5t29.5 49.5q5 20 8 59t4 83t3 84t2 60q4 113 5 233t0 232.5t-2 211.5t-1 173q0 27 3 56.5t15.5 54t38 42
t72.5 17.5zM268 324q64 -123 144 -158t206 0q-49 2 -93 15.5t-86 35t-84 49zM780 2089q43 -41 49.5 -83t-41.5 -89q-47 -45 -118.5 -58.5t-133 -7t-94 24.5t-2.5 37q64 35 96.5 78t69.5 86q45 41 86 50t88 -38zM709 2077q-41 -2 -61.5 -24.5t-33.5 -59.5q84 8 109 59
q4 4 -3 14.5t-11 10.5z" />
    <glyph glyph-name="Ucircumflex" unicode="&#xdb;" horiz-adv-x="1208" 
d="M891 1800q94 0 144 -2t75 -16.5t32 -46t13 -88.5q4 -56 7 -148t5 -200.5t3 -223t1 -216t-2 -180.5t-6 -116q-8 -100 -37.5 -195.5t-86 -172t-141.5 -129t-204 -66.5q-80 -8 -161.5 2t-154.5 41t-132.5 83t-95.5 128q-64 137 -83.5 279.5t-25.5 289.5q-8 205 -3 418t3 418
q0 55 21.5 82.5t56.5 39t76 13.5t81 6q189 19 189 -145q0 -105 1 -227.5l2 -248.5l2 -249t1 -228q0 -63 8 -128.5t45 -118.5q19 -27 53.5 -38t75.5 -1q35 8 60.5 28.5t29.5 49.5q5 20 8 59t4 83t3 84t2 60q4 113 5 233t0 232.5t-2 211.5t-1 173q0 27 3 56.5t15.5 54t38 42
t72.5 17.5zM268 324q64 -123 144 -158t206 0q-49 2 -93 15.5t-86 35t-84 49zM500 2073q26 22 50.5 37.5t51.5 13.5q27 2 51.5 -13.5t53.5 -37.5l69 -86t96 -78q27 -17 7.5 -32t-63.5 -23.5t-102.5 -7.5t-111.5 20q-53 -19 -110.5 -20t-101.5 7.5t-63.5 23.5t7.5 32
q63 35 96 78t70 86zM616 2073q-4 0 -11 -10.5t-3 -14.5q25 -51 109 -59q-13 36 -33.5 59t-61.5 25z" />
    <glyph glyph-name="Ugrave" unicode="&#xd9;" horiz-adv-x="1208" 
d="M891 1800q94 0 144 -2t75 -16.5t32 -46t13 -88.5q4 -56 7 -148t5 -200.5t3 -223t1 -216t-2 -180.5t-6 -116q-8 -100 -37.5 -195.5t-86 -172t-141.5 -129t-204 -66.5q-80 -8 -161.5 2t-154.5 41t-132.5 83t-95.5 128q-64 137 -83.5 279.5t-25.5 289.5q-8 205 -3 418t3 418
q0 55 21.5 82.5t56.5 39t76 13.5t81 6q189 19 189 -145q0 -105 1 -227.5l2 -248.5l2 -249t1 -228q0 -63 8 -128.5t45 -118.5q19 -27 53.5 -38t75.5 -1q35 8 60.5 28.5t29.5 49.5q5 20 8 59t4 83t3 84t2 60q4 113 5 233t0 232.5t-2 211.5t-1 173q0 27 3 56.5t15.5 54t38 42
t72.5 17.5zM268 324q64 -123 144 -158t206 0q-49 2 -93 15.5t-86 35t-84 49zM428 2083q47 47 88 37.5t86 -49.5q37 -43 70 -86t96 -78q20 -13 11 -25t-36.5 -22.5t-70.5 -14.5t-88 1t-89 19.5t-75 45.5q-47 47 -41 89t49 83zM500 2071q-4 0 -11.5 -10.5t-3.5 -14.5
q25 -51 109 -59q-12 36 -32.5 58.5t-61.5 25.5z" />
    <glyph glyph-name="dotlessi" unicode="&#x131;" horiz-adv-x="530" 
d="M468 1604v-173.5v-254t-1 -294t-1 -295t1 -255t3 -174.5q2 -78 -44 -121t-167 -49q-65 -4 -104 7t-60.5 32.5t-29 51.5t-7.5 64q-2 117 -6 276t-7 329t-5 338.5t-4 305t-3 227.5t1 107q2 25 17.5 39.5t38 20.5t49 7t53.5 3l78 4t76 -3t64.5 -21.5t43.5 -53.5
q10 -28 12 -59t2 -59zM241 932q6 98 13 195.5t7 194.5t-12 194.5t-43 193.5q-14 -98 -9 -195.5t15 -194.5l20.5 -193.5t8.5 -194.5z" />
    <glyph glyph-name="circumflex" unicode="&#x2c6;" horiz-adv-x="727" 
d="M260 2136q27 23 51.5 38t50.5 13q27 2 51.5 -13t53.5 -38q37 -43 69.5 -86t96.5 -78q26 -16 7 -31.5t-63.5 -23.5t-102.5 -7t-112 19q-53 -18 -110 -19t-101.5 7t-63.5 23.5t7 31.5q64 35 96.5 78t69.5 86zM377 2136q-4 0 -11.5 -10t-3.5 -15q25 -51 109 -59
q-12 37 -32.5 59.5t-61.5 24.5z" />
    <glyph glyph-name="tilde" unicode="&#x2dc;" horiz-adv-x="621" 
d="M354 1982q-12 -40 -36.5 -64t-53 -33t-59.5 -7t-55 10q-62 19 -85.5 53.5t-27.5 81.5q-4 27 0 54.5t17.5 52t39 45t66.5 33.5q26 10 42.5 0t35.5 -41q10 -23 1.5 -38t-22.5 -30q-10 -6 -18.5 -10t-16.5 -10q-20 -15 -23 -42.5t11 -41.5q10 -10 22.5 -8t20.5 12
q6 8 12 18.5t11 22.5q22 61 81 117q27 20 64 27t74 0t68.5 -27.5t45.5 -51.5q11 -18 17 -38.5t4 -43.5q0 -26 -12.5 -50.5t-34 -43t-49 -30t-56.5 -9.5q-12 2 -18 5t-10 16q-4 16 -5.5 29.5t-1.5 37.5q3 13 17 19q8 4 15 7t11 7q9 10 12 21.5t-7 21.5q-9 4 -26 3t-26 -7
q-16 -14 -25 -30.5zM208 2163q-3 10 -7.5 13t-10 3t-10.5 -1.5t-10 -0.5q-4 2 -7.5 0.5t-6.5 -1.5q3 -8 -7.5 -13.5t-24 -9.5t-23.5 -6.5t-6.5 -3t25.5 0t75 3.5q5 0 9.5 5t3.5 11z" />
    <glyph glyph-name="uni02C9" unicode="&#x2c9;" horiz-adv-x="559" 
d="M543 1368q0 -59 -1 -86t-9.5 -36.5t-27 -7.5t-55.5 2q-52 0 -106.5 1t-108.5 3.5t-104.5 4t-92.5 4.5q-16 -1 -19.5 7t-3.5 27v29v36v31v16q2 18 8.5 21t22.5 1q18 0 52.5 -0.5t78.5 -2t92.5 -2.5t93 -1t81.5 1t57 4q42 7 42 -52zM46 1368q3 -14 9.5 -13t13.5 4
q59 12 116.5 14.5t117.5 -8.5q77 -14 158 3q-99 11 -198.5 16.5t-198.5 1.5q-7 -2 -13.5 -3.5t-4.5 -14.5zM479 1312q-3 10 -7.5 13t-10 3t-10.5 -1.5t-10 -0.5q-4 2 -7.5 0.5t-6.5 -1.5q3 -8 -7.5 -13.5t-24 -9.5t-23.5 -6.5t-6.5 -3t25.5 0t75 3.5q5 0 9.5 5t3.5 11z" />
    <glyph glyph-name="breve" unicode="&#x2d8;" horiz-adv-x="559" 
d="M559 1724q-2 -14 0 -42.5t-4.5 -71.5t-67 -71t-168.5 -31q-62 -2 -107 2t-77 15.5t-52 30.5t-32 47t-20 56t-10 57q-2 19 14.5 27.5t62.5 8.5q51 0 78.5 -0.5t41 -6t16 -18t4.5 -35.5q0 -6 -0.5 -12t2.5 -11q2 -5 2 -11t2.5 -11t11 -8.5t29.5 -2.5q33 1 44.5 11.5
t11.5 24.5q-1 51 0.5 -37t-1 -16t-4.5 104q0 18 12.5 26t33 10.5t46 2.5h49.5q47 -1 65 -9.5t17 -28.5zM268 1559q94 -31 148.5 8.5t61.5 144.5q-8 -38 -27 -64t-47 -43t-63 -27.5t-73 -18.5z" />
    <glyph glyph-name="dotaccent" unicode="&#x2d9;" horiz-adv-x="559" 
d="M395 1413q0 -84 -0.5 -123.5t-4 -53t-11.5 -10.5t-24 3q-22 0 -45.5 2t-47 5l-45 5.5t-39.5 6.5q-7 -2 -8.5 10t-1.5 39v41.5v51v45v23.5q1 25 3.5 29.5t9.5 2.5q8 0 23 -1t34 -3.5t39.5 -3.5t40 -1t35 1t24.5 6q18 11 18 -75zM181 1413q2 -19 4.5 -18t5.5 5
q26 18 50.5 21.5t50.5 -12.5q33 -20 68 4q-43 17 -85.5 24.5t-85.5 0.5l-6 -4t-2 -21zM367 1333q-1 13 -2.5 17.5t-4 4.5t-5 -2t-4.5 0q-1 2 -3 0t-3 -2q1 -11 -3.5 -19.5t-10 -13.5t-10 -8.5t-3 -4.5t11 0t32.5 5q2 0 4 6.5t1 16.5z" />
    <glyph glyph-name="ring" unicode="&#x2da;" horiz-adv-x="322" 
d="M160 2198q63 -5 97 -32.5t30 -92.5q-4 -64 -34 -110t-103 -44q-37 0 -58.5 14.5t-34 36t-18.5 48t-10 55.5q8 59 33.5 94t97.5 31zM160 2111q-27 3 -36 -10.5t-13 -36.5q4 -20 11 -37.5t34 -19.5q28 0 38.5 17.5t12.5 39.5q2 25 -11.5 35t-35.5 12z" />
    <glyph glyph-name="cedilla" unicode="&#xb8;" horiz-adv-x="276" 
d="M262 -4h-4q2 -21 10 -36t29 -19q88 -17 144.5 -59t87 -95t37.5 -114.5t1 -118.5q-8 -66 -28.5 -112t-51 -79t-70.5 -52.5t-87 -33.5q-51 -16 -108.5 -19t-113 15t-105.5 62t-89 124q-27 52 -14.5 87.5t71.5 84.5q41 33 74 21t66 -41q16 -10 28.5 -27.5t28.5 -29.5
q16 -17 40.5 -25t50.5 -7t47.5 11t33.5 29q16 22 8 45.5t-31 34.5q-22 12 -43.5 21t-44.5 11q-36 9 -76 22t-77 31.5t-65.5 45t-41.5 63.5q-14 35 3.5 90.5t58.5 102.5l-13 4zM104 -201q31 -28 67 -38.5t73 -17.5t73.5 -16.5t69.5 -33.5q-29 41 -62.5 57.5t-71.5 22.5t-76 9
t-73 17zM295 -160q43 -22 84 -46.5t76 -78.5q-17 66 -56 94.5t-104 30.5zM-8 -451q0 -24 16.5 -35.5t40.5 -17.5q-8 53 -43 66q-4 0 -10 -4t-4 -9z" />
    <glyph glyph-name="hungarumlaut" unicode="&#x2dd;" horiz-adv-x="559" 
d="M79 1197l114 298h241l-210 -298h-145zM388 1197l115 298h235l-203 -298h-147z" />
    <glyph glyph-name="ogonek" unicode="&#x2db;" horiz-adv-x="559" 
d="M161 26h123q-17 -56 -17 -144q0 -82 31 -120t88 -38q50 0 110 23v-135q-82 -43 -161 -43q-91 0 -147.5 61t-56.5 172q0 88 30 224zM349 -355.5q-35 10.5 -63 27.5t-47 43t-27 64q7 -105 61.5 -144.5t148.5 -8.5q-38 8 -73 18.5z" />
    <glyph glyph-name="caron" unicode="&#x2c7;" horiz-adv-x="727" 
d="M467 1933q-27 -22 -51.5 -37.5t-50.5 -13.5q-27 -2 -51.5 13.5t-53.5 37.5q-37 43 -69.5 86t-96.5 78q-26 14 -7 30.5t63.5 25t102.5 7.5t112 -20q51 19 109 20t102.5 -7.5t63.5 -25t-7 -30.5q-64 -35 -96.5 -78t-69.5 -86zM350 1933q4 0 11.5 10.5t3.5 14.5
q-25 51 -109 59q12 -37 32.5 -59.5t61.5 -24.5z" />
    <glyph glyph-name="Lslash" unicode="&#x141;" horiz-adv-x="819" 
d="M520 338q109 4 163 0t74.5 -25.5t20.5 -65.5v-118q0 -72 -29.5 -101.5t-97.5 -29.5q-51 0 -109.5 -1t-117.5 -1h-115.5h-101.5q-94 0 -132 38t-32 132q-2 78 -3 224.5t-1 320.5q-23 0 -46.5 1t-49.5 3q-25 -2 -31 9t-6 36v37.5v47v41v21.5q4 23 14 27t37 2h35.5t44.5 -2
q0 135 -1 264t-1 232.5v172v83.5q-4 47 11 83.5t81 30.5q29 -2 81 4t102 2t87 -25.5t37 -78.5v-119t-1 -188.5t-1 -228.5v-238q84 0 133 6q68 10 68 -68t-2 -113.5t-15.5 -48t-44 -9.5t-90.5 3h-51q0 -86 -1 -150.5t-1 -96.5q0 -52 19.5 -83.5t72.5 -29.5zM170 215
q23 76 18.5 150.5t-24.5 150.5l-16.5 -75t-9.5 -75.5t5.5 -75.5t26.5 -75zM371 1638q-29 66 -59.5 79.5t-96.5 -9.5zM528 793q-4 12 -11 16t-16 4t-17.5 -2t-16.5 0q-6 2 -12 0t-11 -2l64 -37q8 0 15 6t5 15z" />
    <glyph glyph-name="lslash" unicode="&#x142;" horiz-adv-x="819" 
d="M520 338q109 4 163 0t74.5 -25.5t20.5 -65.5v-118q0 -72 -29.5 -101.5t-97.5 -29.5q-51 0 -109.5 -1t-117.5 -1h-115.5h-101.5q-94 0 -132 38t-32 132q-2 78 -3 224.5t-1 320.5q-23 0 -46.5 1t-49.5 3q-25 -2 -31 9t-6 36v37.5v47v41v21.5q4 23 14 27t37 2h35.5t44.5 -2
q0 135 -1 264t-1 232.5v172v83.5q-4 47 11 83.5t81 30.5q29 -2 81 4t102 2t87 -25.5t37 -78.5v-119t-1 -188.5t-1 -228.5v-238q84 0 133 6q68 10 68 -68t-2 -113.5t-15.5 -48t-44 -9.5t-90.5 3h-51q0 -86 -1 -150.5t-1 -96.5q0 -52 19.5 -83.5t72.5 -29.5zM170 215
q23 76 18.5 150.5t-24.5 150.5l-16.5 -75t-9.5 -75.5t5.5 -75.5t26.5 -75zM371 1638q-29 66 -59.5 79.5t-96.5 -9.5zM528 793q-4 12 -11 16t-16 4t-17.5 -2t-16.5 0q-6 2 -12 0t-11 -2l64 -37q8 0 15 6t5 15z" />
    <glyph glyph-name="Scaron" unicode="&#x160;" horiz-adv-x="1174" 
d="M788 1047q138 -46 214.5 -125.5t108.5 -175t25.5 -196.5t-32.5 -188q-31 -102 -77 -168.5t-103.5 -108.5t-126 -62.5t-146.5 -28.5q-86 -10 -176 2t-173 56t-149.5 127t-105.5 218q-12 45 -12 79t16.5 63.5t50 57.5t86.5 58q37 19 67 20t55.5 -10.5t48 -33t44.5 -47.5
q23 -23 37.5 -53.5t32.5 -55.5q23 -31 60.5 -50t77.5 -24.5t77 4t62 33.5q32 33 25 71t-40 64q-28 23 -62 43.5t-69 30.5q-108 47 -204.5 113.5t-176.5 159.5q-76 86 -98.5 208.5t0 244.5t87 225.5t167.5 152.5q65 31 135 53.5t139 14.5q90 0 172 -43t143.5 -113t95.5 -160
t28 -184q-5 -39 -15 -62.5t-51 -31.5l-51.5 -10.5t-47 -6.5t-53 -2t-67.5 2q-19 2 -37 17.5t-29 38.5q-10 22 -21 42.5t-28 36.5q-28 29 -66 39.5t-67 -24.5q-10 -12 -14 -35t-2 -47.5t9 -47t17 -34.5q47 -53 100.5 -89t118.5 -58zM195 520q-5 -41 16.5 -62.5t60.5 -39.5
q-2 45 -12 72.5t-39 44.5q-4 2 -15 -4.5t-11 -10.5zM446 881q39 -54 92.5 -81.5t110 -50t111.5 -47t100 -71.5q-31 74 -81 108.5t-107.5 55t-116.5 36t-109 50.5zM756 889l61 -45.5t58.5 -50t52 -63.5t45.5 -83q-6 107 -59.5 164t-157.5 78zM690 1896q-26 -22 -51 -37.5
t-51 -13.5q-27 -2 -51.5 13.5t-53.5 37.5q-37 43 -69.5 86t-96.5 78q-26 15 -6.5 31t63.5 24.5t102.5 7.5t111.5 -20q51 19 109.5 20t102.5 -7.5t63.5 -24.5t-7.5 -31q-63 -35 -96 -78t-70 -86zM573 1896q5 0 12 10.5t3 14.5q-25 51 -109 59q13 -36 33 -59t61 -25z" />
    <glyph glyph-name="scaron" unicode="&#x161;" horiz-adv-x="1174" 
d="M788 1047q138 -46 214.5 -125.5t108.5 -175t25.5 -196.5t-32.5 -188q-31 -102 -77 -168.5t-103.5 -108.5t-126 -62.5t-146.5 -28.5q-86 -10 -176 2t-173 56t-149.5 127t-105.5 218q-12 45 -12 79t16.5 63.5t50 57.5t86.5 58q37 19 67 20t55.5 -10.5t48 -33t44.5 -47.5
q23 -23 37.5 -53.5t32.5 -55.5q23 -31 60.5 -50t77.5 -24.5t77 4t62 33.5q32 33 25 71t-40 64q-28 23 -62 43.5t-69 30.5q-108 47 -204.5 113.5t-176.5 159.5q-76 86 -98.5 208.5t0 244.5t87 225.5t167.5 152.5q65 31 135 53.5t139 14.5q90 0 172 -43t143.5 -113t95.5 -160
t28 -184q-5 -39 -15 -62.5t-51 -31.5l-51.5 -10.5t-47 -6.5t-53 -2t-67.5 2q-19 2 -37 17.5t-29 38.5q-10 22 -21 42.5t-28 36.5q-28 29 -66 39.5t-67 -24.5q-10 -12 -14 -35t-2 -47.5t9 -47t17 -34.5q47 -53 100.5 -89t118.5 -58zM195 520q-5 -41 16.5 -62.5t60.5 -39.5
q-2 45 -12 72.5t-39 44.5q-4 2 -15 -4.5t-11 -10.5zM446 881q39 -54 92.5 -81.5t110 -50t111.5 -47t100 -71.5q-31 74 -81 108.5t-107.5 55t-116.5 36t-109 50.5zM756 889l61 -45.5t58.5 -50t52 -63.5t45.5 -83q-6 107 -59.5 164t-157.5 78zM690 1896q-26 -22 -51 -37.5
t-51 -13.5q-27 -2 -51.5 13.5t-53.5 37.5q-37 43 -69.5 86t-96.5 78q-26 15 -6.5 31t63.5 24.5t102.5 7.5t111.5 -20q51 19 109.5 20t102.5 -7.5t63.5 -24.5t-7.5 -31q-63 -35 -96 -78t-70 -86zM573 1896q5 0 12 10.5t3 14.5q-25 51 -109 59q13 -36 33 -59t61 -25z" />
    <glyph glyph-name="Zcaron" unicode="&#x17d;" horiz-adv-x="1020" 
d="M915 1800q23 0 37.5 -12t22.5 -32.5t10 -46.5t0 -50q0 -25 -25.5 -104.5t-66.5 -192.5l-92 -249l-104.5 -274.5l-103.5 -267.5l-89 -229h172q108 4 162.5 0t75 -25.5t20.5 -65.5v-118q-2 -72 -31 -101.5t-96 -31.5h-438q-13 -2 -28 -2h-38l-4 2h-82h-35h-6h-4
q-33 0 -51 6q-47 10 -66.5 44t2.5 120v2q0 4 19.5 58.5l51.5 140.5l73 193.5l83 220l83 221l73.5 194.5l53 140.5t22.5 60.5q8 35 -2 52t-28.5 25.5t-40 8.5h-31.5q-11 2 -31.5 1t-30.5 -1q-71 2 -117.5 4t-74 21.5t-37.5 64.5t-10 135v12q4 74 67 74q74 0 169 1t195.5 1
h198h172.5zM178 1665l80 38l76 34q-66 22 -96.5 8t-59.5 -80zM342 264q55 66 63.5 140.5t6.5 152.5q-35 -68 -54.5 -141.5t-15.5 -151.5zM612 1894q-26 -22 -50.5 -37.5t-51.5 -13.5q-27 -2 -51.5 13.5t-52.5 37.5q-37 43 -70 86t-96 78q-27 15 -7.5 31t63.5 24.5t102.5 7.5
t111.5 -20q51 19 109.5 20t102.5 -7.5t63.5 -24.5t-7.5 -31q-63 -35 -96 -78t-70 -86zM496 1894q4 0 11 10.5t3 14.5q-25 51 -109 59q13 -36 33.5 -59t61.5 -25z" />
    <glyph glyph-name="zcaron" unicode="&#x17e;" horiz-adv-x="1020" 
d="M915 1800q23 0 37.5 -12t22.5 -32.5t10 -46.5t0 -50q0 -25 -25.5 -104.5t-66.5 -192.5l-92 -249l-104.5 -274.5l-103.5 -267.5l-89 -229h172q108 4 162.5 0t75 -25.5t20.5 -65.5v-118q-2 -72 -31 -101.5t-96 -31.5h-438q-13 -2 -28 -2h-38l-4 2h-82h-35h-6h-4
q-33 0 -51 6q-47 10 -66.5 44t2.5 120v2q0 4 19.5 58.5l51.5 140.5l73 193.5l83 220l83 221l73.5 194.5l53 140.5t22.5 60.5q8 35 -2 52t-28.5 25.5t-40 8.5h-31.5q-11 2 -31.5 1t-30.5 -1q-71 2 -117.5 4t-74 21.5t-37.5 64.5t-10 135v12q4 74 67 74q74 0 169 1t195.5 1
h198h172.5zM178 1665l80 38l76 34q-66 22 -96.5 8t-59.5 -80zM342 264q55 66 63.5 140.5t6.5 152.5q-35 -68 -54.5 -141.5t-15.5 -151.5zM612 1894q-26 -22 -50.5 -37.5t-51.5 -13.5q-27 -2 -51.5 13.5t-52.5 37.5q-37 43 -70 86t-96 78q-27 15 -7.5 31t63.5 24.5t102.5 7.5
t111.5 -20q51 19 109.5 20t102.5 -7.5t63.5 -24.5t-7.5 -31q-63 -35 -96 -78t-70 -86zM496 1894q4 0 11 10.5t3 14.5q-25 51 -109 59q13 -36 33.5 -59t61.5 -25z" />
    <glyph glyph-name="brokenbar" unicode="&#xa6;" horiz-adv-x="471" 
d="M193 1502q78 0 114 -2t48 -15.5t9 -44t-3 -90.5q0 -84 -1 -173t-4 -177t-5 -170t-6 -151q2 -25 -9.5 -31t-35.5 -6h-38.5h-47h-41h-21.5q-22 4 -26 14t-2 37q0 29 1 85t3 128t3 150.5t1 151.5t-1 133.5t-5 92.5q-11 68 67 68zM198 687q19 4 18 15.5t-5 21.5
q-17 96 -20 190.5t11 190.5q19 125 -4 258q-14 -162 -21 -324t-1 -323l4 -22t18 -7zM272 1391q-12 -4 -16 -11t-4 -16t2 -17.5t0 -16.5q-2 -6 0 -12t2 -10q10 4 17 -13.5t12 -39t8.5 -38t4.5 -10.5t0 42t-5 122q0 8 -6.5 15.5t-14.5 4.5zM126 -398q4 32 5 92.5t1 133.5
t-1 151.5t-3 150.5t-3 128t-1 85q-2 27 2 37t26 14h21.5h41h47h38.5q24 0 35.5 -6t9.5 -31q4 -69 6 -151t5 -170t4 -177t1 -173q0 -60 3 -90.5t-9 -44t-48 -15.5t-114 -2t-67 68zM180 249l-4 -22q-6 -161 1 -323t21 -324q23 133 4 258q-14 96 -11 190.5t20 190.5
q4 10 5 21.5t-18 15.5q-16 4 -18 -7zM281.5 -356.5q6.5 7.5 6.5 15.5q4 86 5 122t0 42t-4.5 -10.5t-8.5 -38t-12 -39t-17 -13.5q0 -4 -2 -10t0 -12q2 -8 0 -16.5t-2 -17.5t4 -16t16 -11q8 -3 14.5 4.5z" />
    <glyph glyph-name="Eth" unicode="&#xd0;" horiz-adv-x="1174" 
d="M678 1786q51 -10 105.5 -30.5t103.5 -49.5t91 -68t66 -86q33 -61 53.5 -180t29 -264t0 -303t-31 -298t-63.5 -247.5t-100 -150.5q-31 -27 -87.5 -47.5t-119.5 -35t-124.5 -22.5t-104.5 -8h-396q-41 0 -55 29.5t-14 52.5v620l-154 7q-24 -3 -30.5 8.5t-6.5 36.5v37.5v47
v41v21.5q4 23 14.5 27t36.5 2q23 0 58 -1t82 -1q0 135 1 264t2 232.5t2 171t3 79.5q2 37 5 63.5t48 37.5q49 10 131 17t169 9t165 -1t121 -11zM700 856q0 -78 -2 -113.5t-15 -48t-44 -9.5t-90 3h-160q-2 -80 -2 -148.5t2 -103.5q0 -24 1 -49t4 -45t11.5 -33.5t24.5 -15.5
q33 -6 72 -6q35 0 67.5 6t63.5 29.5t58.5 65.5t49.5 114q25 80 32 190.5t1 225t-25.5 218t-46.5 171.5q-16 36 -36.5 71t-42 61.5t-45 41t-43.5 12.5h-11q-4 0 -9 1t-9 -1q-43 -4 -64.5 -27.5t-31 -69.5t-10.5 -115t-3 -165l-6 -198q78 0 142.5 1t99.5 5q67 10 67 -68z
M637 102q180 -6 259 89.5t46 281.5q2 -51 -8 -94t-39 -78q-6 -6 -18.5 -38t-42 -67.5t-83 -64.5t-139.5 -31q17 0 25 2zM578 1679q-43 4 -109 -20l108.5 -49.5l114.5 -53.5l-8 21l47 -21q-33 72 -66.5 99.5t-86.5 23.5zM596 782q-4 13 -11 17t-16.5 4t-17.5 -2t-16 0
q-7 2 -13 0t-10 -2q4 -11 -13.5 -18t-39 -12t-37.5 -8t-10 -4t41.5 0t121.5 5q9 0 16 6t5 14zM-109 856q5 -18 16 -17t21 5q27 4 52.5 7t50.5 7v23q-27 0 -54.5 -1t-56.5 -1l-21.5 -4.5t-7.5 -18.5zM391 868v-24q86 -4 176 12zM575 102q7 -2 19 -2q-4 0 -9 1t-10 1z" />
    <glyph glyph-name="eth" unicode="&#xf0;" horiz-adv-x="1174" 
d="M678 1786q51 -10 105.5 -30.5t103.5 -49.5t91 -68t66 -86q33 -61 53.5 -180t29 -264t0 -303t-31 -298t-63.5 -247.5t-100 -150.5q-31 -27 -87.5 -47.5t-119.5 -35t-124.5 -22.5t-104.5 -8h-396q-41 0 -55 29.5t-14 52.5v620l-154 7q-24 -3 -30.5 8.5t-6.5 36.5v37.5v47
v41v21.5q4 23 14.5 27t36.5 2q23 0 58 -1t82 -1q0 135 1 264t2 232.5t2 171t3 79.5q2 37 5 63.5t48 37.5q49 10 131 17t169 9t165 -1t121 -11zM700 856q0 -78 -2 -113.5t-15 -48t-44 -9.5t-90 3h-160q-2 -80 -2 -148.5t2 -103.5q0 -24 1 -49t4 -45t11.5 -33.5t24.5 -15.5
q33 -6 72 -6q35 0 67.5 6t63.5 29.5t58.5 65.5t49.5 114q25 80 32 190.5t1 225t-25.5 218t-46.5 171.5q-16 36 -36.5 71t-42 61.5t-45 41t-43.5 12.5h-11q-4 0 -9 1t-9 -1q-43 -4 -64.5 -27.5t-31 -69.5t-10.5 -115t-3 -165l-6 -198q78 0 142.5 1t99.5 5q67 10 67 -68z
M637 102q180 -6 259 89.5t46 281.5q2 -51 -8 -94t-39 -78q-6 -6 -18.5 -38t-42 -67.5t-83 -64.5t-139.5 -31q17 0 25 2zM578 1679q-43 4 -109 -20l108.5 -49.5l114.5 -53.5l-8 21l47 -21q-33 72 -66.5 99.5t-86.5 23.5zM596 782q-4 13 -11 17t-16.5 4t-17.5 -2t-16 0
q-7 2 -13 0t-10 -2q4 -11 -13.5 -18t-39 -12t-37.5 -8t-10 -4t41.5 0t121.5 5q9 0 16 6t5 14zM-109 856q5 -18 16 -17t21 5q27 4 52.5 7t50.5 7v23q-27 0 -54.5 -1t-56.5 -1l-21.5 -4.5t-7.5 -18.5zM391 868v-24q86 -4 176 12zM575 102q7 -2 19 -2q-4 0 -9 1t-10 1z" />
    <glyph glyph-name="Yacute" unicode="&#xdd;" horiz-adv-x="1268" 
d="M809 2091q43 -41 49 -83t-41 -89q-47 -45 -118.5 -58.5t-133 -7t-94.5 24.5t-2 37q63 35 96 78t70 86q45 41 86 50t88 -38zM737 2079q-41 -2 -61.5 -24.5t-32.5 -59.5q84 8 109 59q4 4 -3.5 14.5t-11.5 10.5zM895 1771q-56 -37 -72 -105q-6 -23 -22 -71l-34 -105
l-40 -116l-35 -99q-7 10 -24 41l-36 66l-37 67q-16 31 -22 41q-43 82 -69 138q-27 56 -48 90q-20 34 -43 53q-22 18 -59 25t-94 8q-58 1 -148 3q-74 2 -80 -35q-6 -38 35 -106q31 -47 78 -130l104 -187l118 -216l118 -225l-106 -257l-94 -229l-78 -184l-54 -131
q-23 -53 -19 -76q3 -22 60 -30q20 -2 68 0q49 2 131 2q69 0 104 13q35 12 51 63q13 24 39 77l54 112l56 113q27 54 40 83l178 346l76 179l66 164t61 164l61 177q25 78 55 137q31 58 34 98q3 39 -40 59q-43 19 -162 19q-116 0 -171 -36zM424 67q1 12 5 22q68 187 159 368
t195 365q-22 -145 -118 -292q-72 -109 -114 -215q-42 -107 -58 -216l-6 -24q-3 -12 -35 -17q-29 -4 -28 9zM94 1751q-13 -7 -28 -12l3 11q2 6 6 11q4 4 13 7q9 2 26 2q-7 -12 -20 -19z" />
    <glyph glyph-name="yacute" unicode="&#xfd;" horiz-adv-x="1268" 
d="M809 2091q43 -41 49 -83t-41 -89q-47 -45 -118.5 -58.5t-133 -7t-94.5 24.5t-2 37q63 35 96 78t70 86q45 41 86 50t88 -38zM737 2079q-41 -2 -61.5 -24.5t-32.5 -59.5q84 8 109 59q4 4 -3.5 14.5t-11.5 10.5zM895 1771q-56 -37 -72 -105q-6 -23 -22 -71l-34 -105
l-40 -116l-35 -99q-7 10 -24 41l-36 66l-37 67q-16 31 -22 41q-43 82 -69 138q-27 56 -48 90q-20 34 -43 53q-22 18 -59 25t-94 8q-58 1 -148 3q-74 2 -80 -35q-6 -38 35 -106q31 -47 78 -130l104 -187l118 -216l118 -225l-106 -257l-94 -229l-78 -184l-54 -131
q-23 -53 -19 -76q3 -22 60 -30q20 -2 68 0q49 2 131 2q69 0 104 13q35 12 51 63q13 24 39 77l54 112l56 113q27 54 40 83l178 346l76 179l66 164t61 164l61 177q25 78 55 137q31 58 34 98q3 39 -40 59q-43 19 -162 19q-116 0 -171 -36zM424 67q1 12 5 22q68 187 159 368
t195 365q-22 -145 -118 -292q-72 -109 -114 -215q-42 -107 -58 -216l-6 -24q-3 -12 -35 -17q-29 -4 -28 9zM94 1751q-13 -7 -28 -12l3 11q2 6 6 11q4 4 13 7q9 2 26 2q-7 -12 -20 -19z" />
    <glyph glyph-name="Thorn" unicode="&#xde;" horiz-adv-x="1122" 
d="M644 1356q49 -7 100.5 -22t98.5 -37.5t86 -51t63 -65.5q45 -69 65.5 -160.5t10.5 -184t-55 -175t-129 -130.5q-29 -22 -82 -38t-114.5 -27t-120.5 -16.5t-96 -3.5q-53 3 -61.5 -15t-3.5 -55q-3 -71 -3 -133v-104t3 -76q0 -26 -6.5 -38.5t-13.5 -18t-15.5 -5.5h-12.5h-299
q-16 0 -22 21.5t-6 39.5v90.5v151.5t1 190t1 207.5v202.5t1 177t2 130.5t1 60.5q2 26 6 47t45 29q47 8 125 13t160 6t156 -1.5t115 -8.5zM693 1184q-20 36 -39.5 57t-45 29.5t-59 6t-80.5 -14.5l109 -38zM703 752q25 29 31 73t0 89t-23.5 85t-43.5 67q-29 28 -74.5 50.5
t-86.5 19.5q-43 -2 -64.5 -10.5t-31 -25.5t-10.5 -43.5t-3 -61.5q-2 -18 -3 -54.5t-3 -78.5t-2 -80v-55q0 -18 5 -35.5t36 -18.5q39 -3 77 -2.5t73 8.5t67 25t56 48zM529 436.5q-74 -2.5 -156 -1.5t-160 6t-125 13q-41 8 -45 29t-6 47q0 10 -1 61t-2 130.5t-1 177v202
t-1 207.5t-1 190v151.5v90.5q0 18 6 39.5t22 21.5h299h12.5t15.5 -5.5t13.5 -18t6.5 -38.5q-3 -24 -3 -76v-104q0 -62 3 -133q-5 -37 3.5 -54.5t61.5 -14.5q37 1 96 -4.5t120.5 -16.5t114.5 -27t82 -37q84 -49 129 -131.5t55 -175t-10.5 -183.5t-65.5 -161
q-24 -37 -63 -65.5t-86 -51t-98.5 -37.5t-100.5 -22q-41 -6 -115 -8.5zM578 577.5l-109 -37.5q47 -13 80.5 -15.5t59 6.5t45 29.5t39.5 56.5zM647 1097.5q-32 17.5 -67 25t-73 8t-77 -2.5q-31 -1 -36 -18t-5 -36v-55t2 -80t3 -78.5t3 -53.5q2 -36 3 -62t10.5 -43.5t31 -26
t64.5 -10.5q41 -3 86.5 19.5t74.5 50.5q26 27 43.5 67t23.5 85.5t0 89t-31 72.5q-24 31 -56 48.5zM148 968q7 98 15 195.5t8 194.5t-14 194.5t-50 193.5q-17 -98 -11 -195.5t17.5 -194.5l24 -193.5t10.5 -194.5z" />
    <glyph glyph-name="thorn" unicode="&#xfe;" horiz-adv-x="1122" 
d="M644 1356q49 -7 100.5 -22t98.5 -37.5t86 -51t63 -65.5q45 -69 65.5 -160.5t10.5 -184t-55 -175t-129 -130.5q-29 -22 -82 -38t-114.5 -27t-120.5 -16.5t-96 -3.5q-53 3 -61.5 -15t-3.5 -55q-3 -71 -3 -133v-104t3 -76q0 -26 -6.5 -38.5t-13.5 -18t-15.5 -5.5h-12.5h-299
q-16 0 -22 21.5t-6 39.5v90.5v151.5t1 190t1 207.5v202.5t1 177t2 130.5t1 60.5q2 26 6 47t45 29q47 8 125 13t160 6t156 -1.5t115 -8.5zM693 1184q-20 36 -39.5 57t-45 29.5t-59 6t-80.5 -14.5l109 -38zM703 752q25 29 31 73t0 89t-23.5 85t-43.5 67q-29 28 -74.5 50.5
t-86.5 19.5q-43 -2 -64.5 -10.5t-31 -25.5t-10.5 -43.5t-3 -61.5q-2 -18 -3 -54.5t-3 -78.5t-2 -80v-55q0 -18 5 -35.5t36 -18.5q39 -3 77 -2.5t73 8.5t67 25t56 48zM529 436.5q-74 -2.5 -156 -1.5t-160 6t-125 13q-41 8 -45 29t-6 47q0 10 -1 61t-2 130.5t-1 177v202
t-1 207.5t-1 190v151.5v90.5q0 18 6 39.5t22 21.5h299h12.5t15.5 -5.5t13.5 -18t6.5 -38.5q-3 -24 -3 -76v-104q0 -62 3 -133q-5 -37 3.5 -54.5t61.5 -14.5q37 1 96 -4.5t120.5 -16.5t114.5 -27t82 -37q84 -49 129 -131.5t55 -175t-10.5 -183.5t-65.5 -161
q-24 -37 -63 -65.5t-86 -51t-98.5 -37.5t-100.5 -22q-41 -6 -115 -8.5zM578 577.5l-109 -37.5q47 -13 80.5 -15.5t59 6.5t45 29.5t39.5 56.5zM647 1097.5q-32 17.5 -67 25t-73 8t-77 -2.5q-31 -1 -36 -18t-5 -36v-55t2 -80t3 -78.5t3 -53.5q2 -36 3 -62t10.5 -43.5t31 -26
t64.5 -10.5q41 -3 86.5 19.5t74.5 50.5q26 27 43.5 67t23.5 85.5t0 89t-31 72.5q-24 31 -56 48.5zM148 968q7 98 15 195.5t8 194.5t-14 194.5t-50 193.5q-17 -98 -11 -195.5t17.5 -194.5l24 -193.5t10.5 -194.5z" />
    <glyph glyph-name="minus" unicode="&#x2212;" horiz-adv-x="926" 
d="M891 827q0 -77 -2 -113t-15.5 -48.5t-44 -9.5t-90.5 3q-84 0 -173 1.5t-177 4.5t-170 5t-151 6q-25 -2 -31 9t-6 36v37.5v47v41v21.5q4 23 14 27t37 2q29 0 85 -1t128 -3t150.5 -3t151.5 -1t133.5 1t92.5 5q68 10 68 -68zM82 827q4 -18 15.5 -17t21.5 5q96 16 190 19.5
t191 -11.5q125 -18 258 4q-162 15 -324 22t-323 1l-22 -4t-7 -19zM786 754q-4 12 -11 16t-16 4t-17.5 -2t-16.5 0q-6 2 -12 0t-11 -2q5 -10 -12.5 -17.5t-39 -12.5t-38 -8t-10.5 -4t42 0t122 5q8 0 15 6t5 15z" />
    </font>
</defs>
</svg>
